<mxfile host="app.diagrams.net" modified="2024-03-07T23:17:56.256Z" agent="Mozilla/5.0 (Windows NT 10.0; Win64; x64; rv:123.0) Gecko/20100101 Firefox/123.0" etag="KY2Uq65joc_eTDPZpr9G" version="24.0.2" type="device">
  <diagram name="PÃ¡gina-1" id="KGgLWuAfCx1Iv-mHiD2X">
    <mxGraphModel dx="1035" dy="544" grid="1" gridSize="10" guides="1" tooltips="1" connect="1" arrows="1" fold="1" page="1" pageScale="1" pageWidth="827" pageHeight="1169" math="0" shadow="0">
      <root>
        <mxCell id="0" />
        <mxCell id="1" parent="0" />
        <mxCell id="Xs_mq94B_sRQJEEhU1SU-4" value="" style="labelPosition=right;align=left;strokeWidth=1;shape=mxgraph.mockup.markup.curlyBrace;html=1;shadow=0;dashed=0;strokeColor=#FF6F0F;direction=north;rotation=-180;" parent="1" vertex="1">
          <mxGeometry x="520" y="250" width="35" height="210" as="geometry" />
        </mxCell>
        <mxCell id="Xs_mq94B_sRQJEEhU1SU-5" value="&lt;font style=&quot;font-size: 16px;&quot; color=&quot;#ff5500&quot;&gt;QRCode Activity&lt;br&gt;&lt;/font&gt;" style="text;html=1;align=center;verticalAlign=middle;whiteSpace=wrap;rounded=0;" parent="1" vertex="1">
          <mxGeometry x="570" y="330" width="110" height="50" as="geometry" />
        </mxCell>
        <mxCell id="Xs_mq94B_sRQJEEhU1SU-7" value="&lt;font style=&quot;font-size: 16px;&quot; color=&quot;#ff5500&quot;&gt;Header &amp;amp; Footer&lt;/font&gt;&lt;font style=&quot;font-size: 16px;&quot;&gt;&lt;br&gt;&lt;/font&gt;" style="text;html=1;align=center;verticalAlign=middle;whiteSpace=wrap;rounded=0;" parent="1" vertex="1">
          <mxGeometry x="60" y="300" width="110" height="50" as="geometry" />
        </mxCell>
        <mxCell id="Xs_mq94B_sRQJEEhU1SU-12" value="" style="endArrow=classic;html=1;rounded=0;exitX=-0.012;exitY=0.204;exitDx=0;exitDy=0;exitPerimeter=0;strokeColor=#FF5500;entryX=0.75;entryY=0;entryDx=0;entryDy=0;" parent="1" target="Xs_mq94B_sRQJEEhU1SU-7" edge="1">
          <mxGeometry width="50" height="50" relative="1" as="geometry">
            <mxPoint x="264.5132799999999" y="156.27999999999997" as="sourcePoint" />
            <mxPoint x="150" y="290" as="targetPoint" />
          </mxGeometry>
        </mxCell>
        <mxCell id="Xs_mq94B_sRQJEEhU1SU-13" value="" style="endArrow=classic;html=1;rounded=0;exitX=-0.012;exitY=0.204;exitDx=0;exitDy=0;exitPerimeter=0;strokeColor=#FF5500;" parent="1" edge="1">
          <mxGeometry width="50" height="50" relative="1" as="geometry">
            <mxPoint x="268" y="540" as="sourcePoint" />
            <mxPoint x="140" y="360" as="targetPoint" />
          </mxGeometry>
        </mxCell>
        <mxCell id="QsdEgpgo2d-icxKY0zvt-12" value="" style="shape=image;verticalLabelPosition=bottom;labelBackgroundColor=default;verticalAlign=top;aspect=fixed;imageAspect=0;image=data:image/png,iVBORw0KGgoAAAANSUhEUgAAAeEAAAPMCAYAAAB15wHPAACAAElEQVR4XuydBXgU1/rG5/7rAhQrVqReSp22VKCut07b295LhVKKxT2ECCTBvbi7W3B3d3d3KBVoKU6///eezYawGWCSTSAh7/s877PJ7szs7M7s+Z3vnO+cY1nUFRUUFFQiMjLsy7j4mOCGjRvEJCTExkVFhdf3D6xT39e35kD/QJ81waEBv4SFBx2PiAw5rT4XHhH8T1h4sOhzEhIaIEHBfhIQ6CN+/rWNfXxrSu06P9E0TWeJtRyS6dMnyfz5s9K4Z6+uabb39atlyib/gDoSGOQrwSH+EhoWaMowlGeRdUPP6zHPhkeEnNTnj2qZtsvXr/ZMH58aLULDA+trqVi/YcMGceq60bHRNcPCwl7+Mu7Lmz3LU4pKo8DAwDKxDaJ9EhPjYsPCghL0JpyvAP1Tb7jzgGcdnxppbliapunsbIWmzJ49TRYvnpfGffr2SLN9VhhQV4j/o+A+ExTiv9fXv3b32NiouAQFdUS9iI/i4uJu9CyPqetcGsG+rjdAvcBAv44hoYGHcYNcKSrF64hmtaYnzZo3kg4d20rPnl2l/4DeMnTYIBkzZqRMmjxeZsycKvPmzZbFSxbIipVLZc3albJh41rZtHm9bN22SXbs3CK7dm+X3Xt2yB713n27ZN/+3TRN05nu3bt3yLp1q2StlkOe3qxlUupt9+zZacoleOeurbJt+2bZsnWjbNy0TtatXy2rVi+XZcsXy4KFc2X2nBkyddokGT9hjIwcNUwGDe5noN6la0dp07aFJCTWNxUARNSeZamnEXEroE8HBPjMj4qOjGvQINZHVdCz3KZysGJj630WHRsZFxQcsE5B+o9dVAvI1o0Kk5atmkmv3t3MjQWgAqSA5/4De+Tgof0pPnBwr+zdu0tv1u16s26RzVs2GNiuXbda1qxZKStXLpPly5fI0mWLFcgLZdHiBbJw0XxZsGCuzJ8/x4B6Ljx3lsyZO5OmaTrTPX/BHFm/YbVs1LLJ0yu1bLuw7SxXeaSeN2+O7jdXYTtPy635GjUvkCVLF8kyLctWrFgqq1YtV4iv0uOuSRVcbFV475T9+1FO7rtQVh7cZ6CObQHvCRPHysBB/aRT53YG1Ghl9CyLYcBbg6O/Q0L8e8Yn1g8ND/e7x7Ncp7KxQkO/vaNBQqxfULD/yNCwwLOe0MUFbtwkQfr262miV9TwEJG6bpx9Bq5bt202Nw5gCoACltNnTNHtJ8jYcaNlVNIIBfVwGTlymIwYOVSGj1APHyLD1EOHDXZ56CAZYjxQBg9J7QEuD6Zpms46o3xasWKJBgbL03jWrGlptjd2l0/J5RXKL5cHmTINZduw4fAQU+ah7Buh74P3Qpk4evRIA9upUyfJzFnTDdARjKBVcNOm9SZwQRDjhjQgPm/+bD3GEOnY6WcTDNmV2SGhgfvq1otIqFcv4iXPMp/KJmrQIPoHjXTHBYf4n099AZEM1bpNC71JhsrKVcuSa2v7Zc/enaYmB9DO0+h06rTJMnZskrmRcGPhRsNNZ25GvTkHDe4vAwf2kwED+0r/AX2M+/XvLf369Vag9zLu07dninv36ZHiXr3h7he5Z69uNE3TWWZEnUuXLjRRr6enTJ2YZnvPMspVbl0ox+ALZZyrzINNOdjfVSb2H9BXy8h+5r1RZgLogDjgDWgD2EmjR8jEieMMpJcsWShr162S7Tu2pMAZf6MlEueALsDUUEbyWFh44C9R0eGJ0dHRD3pygLrKiowMeiAyMqyFwvev1BcKWYG4gGiO2bdvt4lwt+/YaqLeufNmmRsA0ezwEYhcXaDFDeMGbF8FqxukuAl79roAzR49u6a4e48uxt26d5YOHdtJm7YtpVnzJhppJ0pCQn2Jqx8j0dF1pW7dcImICJXQsGAJDgmSwKAA44BAP/Hz96Vpms50h2hZ06ZNS2nfvm0aJyQ0SNnOXx0Y5G/KpKDgAI06MaojRLRslah6kRITW08aNIiThg3jpUnTRqbbrl37NtK5S8eUMrB7jwvlIpwa7G54u4ENULsg7QI0Ah7AefSYUabFETk1GzeuSym7N23eYPJumrdoctGoEo2Q/wkJCZgfFxdV1ZMNVBYrJr5upbCI4KTAIN+UqBf9C4Ahmo8PHNhrLiCalBHljh8/1lzkYVobQ80MN0D//oCtK3p1R6ap4YqbrGGjBIlUgPr5+Ui1H3+Qr7/+j3z88Ufy9jtvS6VXKslzzz0nTz75pDz66KPGZcuWlUceeUQefvhhefDBB+X++++X++67T+69914pU6aMlC5dWkqVKiUlS5ZM8T333ENnI6e+NvQFe35P9PVjz2uNMgrlFYyyC2XYAw88IA899JAp21DOwSjzHnvsMXnmmWfkxRdflNdff03+/e/35fPPK8u331aRWrVqaNARqNFstLRo2cwkbqFsvQDpC4AGnBEEIRhC0zdaI5OSRsq0aVNk+Yolsn37FhMlI2FsjMI6sWH9FBgjAAsNC/g1JqZueI0aNW735AWViYqLi34rLDxojq9frX/cFyA+IVYmThprEgCQQLVu/RqZPWem1qpGmkgXNS00I+MipwauO4JF5IpaHyD76WefyquvviJPPfWUuclww+EGxI1ZrFgxufvuu6VgwYKSL18+ufPOO+X222+XW2+9VW666Sa54YYb5F//+pfoadI50DfeeKPccsst9CV88803y//93/+l+d7o3GncC/jN4L647bbb5I477pC8efNK/vz5pVChQlK0aFEpUaKEATkCEpSn5cqVkwoVnpd333tX/vu/rzWqrSP168dIhw4/XwRngBkBElolES2jKRvJssjhWbp0kUkEQ4SMls0ePbuYLkc3jINDAo5HRYUn+vn55bWozFN8fEyl0LCgmW744stu3aa5yd5D5z76EBYtmm+SplCDQrSLWhUuJC6oG7rt2reVqKgIqVr1O3n77bcUtk8a0KK2B8gCsLiRAFYWOLnHqEChYoWCBMDB9acvGN9Jnjx5jFnRpDNi3DcIVvAbu+uuu0xAg+AGETYiakTSlSt/Jr5+SJxtKF27dTJQRtDkipT7yMBB/U334ahRw2Xa9CmyZu0qE3jtVCgj4AqPCE6JjoND/I9HRoXGBQUF3WZRGVfd+nUfiYgMHennXzsFvu3atTYJVgcUvhs2rpMZM6eZZKohQwYa8CJhABcO0O3arbMkJDYwUe6bb75hamKIbAFc3AgoXFio0KjJuytfMP6nL9j9vSDKYeWUzmyjEgw4Fy5c2IAZgdGzzz4rlT//zDRno2uwW3dEyq4oGa2agxTIyNBG4IUhVBgihWTbMWNHmTHKFyJj/9+joyNqWlT65Ofnd0tkZFiroGC/0+6aTavWzVLgiybnKVMnyQiNetFcgYuCBCrUnNDEnNgwXr75toq88EIF049RvHhxU8ii+cSyuQno3G10LaAQcAMY3Qz0BbtBjNYC/oborDYCI9xvaNZGczb6nd9//z0JDPSX9h3amgALrZuIkBF4ITpGUtfChfNl1+4dCuNdMippuJly0w3jkNCA9XGJcRUt6sqKjY36ICjY/5A72zkhIU6/3Lmm2Xn9hrUyZcok0+SMDnw0N7ujXtSWatepJa+8UsmAF30SKEAY6dJXMiCDShoBfGnjuylQoICJWjy/P5rOSqPih1YYJLYiERaJX/UbxJqAC4FX7z49TcY1ErqSRo80EyMhMsaYZMxq6J65y8+/zvnIqLB+QUE/FrCotNLot3DdqPAh7n5fTBM5bvxo0+a/Zesm0wfginxd8HX38zZt1ki+/vorc3HQlIHClOCl02OABd0TiIgJ4rR2V1LYJ0xfayMRDM3WCLRee+1VM6SqU+cOyTDukQJjRMaYJARTcmKUTKvWzS/0Fwf7/1Yvtt4nFnVBDRrEvh4U7PeL+0vCzClIRUdtBtOoueYnHWAmxkBaO+DbsFG8fPrpJ6ZTH3286N+1bC4aTTsxs6MvbTQNMjuazk5GZRAVZ+T4vPDCC1LHp7Zyo91FMEYz9YQJY033JSYCwQQg7uQtDfbOR0WFDWDiloUJN0I7+PnXPocvBl/Q7DnTzReG9PMxY5PMECNXn68Lvk2aNDTwRcp7kSJF2EdFZ5rxw6Yvbc/vi6avtXFfooUGfccVKlQwczp07uKKjNFnjDkh0H05c+Y02blrmxne1Klz+5S+4qBg/53x8THlrdwof3//Ugrg6e6+X6y+gegX7fiosQwfPsRMf4ZaDb5QzEb13/9+bTKcCV+apmnabTeMERlXrFhRIiLDTJ8xui0xAyJmRUQT9cpVy02QN236ZIwpNuwJCvY7FRYZUt3KTUpMjHs2MMj3cHKzgJlLFLNcYdyXiX71C3P3+2KWFR/f2vLMM0+b2V3QLGbZXASapmk6dxswRjM1+owxexem2UQLau/ePUxQh+AOc1ZjcidMjemeeQvN05F1Q3tbuUF1o8M/Dg72O4kPjjmeMU/ovv17zPSSmFoSs1sh283V75sgb7zxupn+EUNILJsvnaZpmqZTG8mWaDF9/PHHpfpPP5omagR16NpEF+e48WNk46b1snffbjPrlrt5ul69iMnX9WxboaGBwQGBPmfM0KPE+mYd3p07t5kxv5jEG7OiuKPf6tWrmfFhyIRjQghN0zSdXiOzHzMivvb6a9KocaIrKtYgD4m+WMRn2fIlpnl67Lgk0yqbPKZ4RWBkYBnrelN4eHBLhPym/7dNC5P5jKUEUSNBSjman9H326JFU3n7nbdM2z6yMi2bL5amaZqmnRhN1AjmnnjiCYVsLdNXjERfNE9jPfi582abJW7nzJ0pgUG+JioODPLbGx4eXta6XhQeHtLFx7emATBqImh+Xr1mpVkAGvM8I4sNz2PJv/Lly5uJNhj90jRN05lljHnHYhIYXYN1BNDqikUi0E+MeSj2aGCIyDgsPCgZxD6HY2JinrRyuhTAHdwA7qfR7v4De2XZssVmvmekjyP7GTWTH3/8wQw7wqQAls0XSNM0TdPeGH3FmNSpUqWK0rRZY9P6iuxptMZOmjzBjM5ZvWZFyvzTAYE+h6Oioh6zcqpCQ4Oa+fi6mqAHDuprMqAXL15gZr4aMKCvaRLAmC2snoHVNDAxgGXzxV0N/0t9k/p2dT71XXS6nVd9g5X2u6Xp68m3WSwjMmp8byhjUdaizPX8bq+G3c3T5cs/I9ExUcljinuZYUyY3ANjidetX50C4sBA331hYWEPWjlN4eFBtXz9aplJOPr262kAjDk9MXAas5mgKeDndq3l3XffMQOtr/a4X8CilLqS+nN1DbUP7bV/VOvdmub7pumcbsD33+o6Vtr7nk6/Ueai7EUZjLL4alfgMZQJ2dPBwYGmOxTdougeHT9hjOzYsVXWrF1pRvCAYSGh/mt9fHwKWjlF9etHv+POgkamMwC8ZMlCEwGjDR4Abt2mpbz22mtm7O/V6v+9WV1WXVkdrI6is8Qh6vuttN8/TedUI3L7wkp7r9OZZ5QbKJtRRqOs9rwGWWHMF49uUB+f2smZ0z2SQTzWzLC1cuUyTOZhsqY1Mp4pggA+mwtTgAUF+5pxwK1aNZN9+3bL8hVLzBhgNEEDwJhMu1KlSmbO56sxHV5x9fuW6yJ7Xng6a1zdckUOntcis437B5W4f/3r6lTk6NzpZ9R1rbT3OZ01RlmNMru4lfZaZLYxjAlrGNeo6UocRkSMCaMmThpvRvHMXzBH/PxrGxBHRYUPs7KzQkJqFAoM8tsNANdvEC27dm2XtWtXmSQspINj8QVEwFhuEBnQWQng/1M/rP7O4o/nWhjf+aNW2uuSGQZ0b775Fv3x3CG333Gn3HFnHq3R5pU782A5wtuvetcGfX37RvUPVtp7nM56oxxBGf6I5SrTPa9NZhnDYQFiLIfrAnEvk6w1ddpkE0hOmjzeNEsjyTgsLCjSyq6Kqhc+AbWF0LAg2bBxrWzZutHM14ksaCRhIS389ddfk+LFi2cZgHGh0Jzxk5X2gtJX1+9Zaa+Pd/6X3HTTzQa0t91+MYDz5MknefLeJXnz3SX57spvXsuqe4zOXS6sDrTS3t/01TXKdJTtWQVjRMSPPPKIBAT6K4iRNd1Lhg0bLLPnzDSjejDblmvoku+Z+EbxlazsptDw4Hg9wX+0piDz5s82UTAm4hg0qH9KFvT7779n+oCzqnAsbbHGmp38pZX2GmXUuGduviU5+nUD+I48F0E4b14XgO/KX0DyFyio/+e7avkG9PXrkuowK+39TV8bo4wvY6W9TplhTI+MmRrr1o0wEbEB8fAhKdMrN2veyD2Zx5GwsDpFreyi+PiYFwMCfU0iFtZwxOwjCOPRwY2O7q7dOsmX//nCTB+GcVqWzYf3xneqP1ZHWmkvGH3t/LWV9lpl1K4IGAC+0wA4310FpEiJe6VwsdJSqEgp81is5ANSsHAxA+ACBQpJgYKFNTrOJ4igPY9H005dWh1upb2/6WtnlPWfWK6y3/N6eet8+fLJ008/JYkN483wJUynjJwmrEu8desmkzGNFt+69cLHWtlBX3755c1BwX47AOCmzRqa2sKChfMMjM1MWN27SM2aP5lVLW666aY0H9gbY5zZY+oAK+1Foq+9v7HSXrOM+P/+74ZUAM4j+fIXkkIlHpD8Re+VAsXuk7tLPiwF9O+7CpeUwiXul7uL3qMALiQFC90thdS3cPpT2gvfq46w0t7f9LU3yv7Hrcwfc1yoUCF56aWXzBK6SCYeMLCvjBk7yowhRqIWIIz+4Yi6oTWta62IiNDuOKHgEH+zKsX6DWtNraFfv94mnI+JrWfWAEZ7u2XzYTNqZN5+ajHpKjsbCRWe1y0jRjO0u/k5b74CcnfpslKs7ItS+ul35O77npEC9zwqhUo9JiUeeUmK3Pe0FClVVkFcQgoVLiKF7y5qImPPY9K0U2O4HVvZsq/BALAgM0djoPurRIkSZjlEDLNFlyoWfUAL7/4De8zcFwg8g0P8ToaF+V+7iTwSE+MqBgT6nMXJTJw0zqzROHbcaJMJ3aMnxgK3kOeff94MirZsPmhGXVSt1Y80F4POXsYwJW9rqPgxIAnL3f9b5J4HpHi5V+ShN7+Xhyt+K/c++r7cWbSs5ClWTgo/VFFKP/OhFC7ztJS4t5yB8N1FihoQM2OazqgxysLz3qazn8EEsMHz+mXU6DrFMrrVqlU1UyujZRctvEuWLpQ9e3dKbFyUAXFk3bDJ1rVSSGjAWpxEi5ZNTfbYnDkzTT9wr96ufuAPP/wg0zOhy1kc75tTjBlxMMmB5zVMj9EUDQCbIUjqIhoFl6nwiTz2UYh8VqWzfPJxKyl+32tyR9FyUuDBSlLquS+kxKNvSNGSD0thhXCRosXUxeWWW9gkTWfMT1hp7206expsACM8r2FGjamU0ZIbVz8mpX941KjhsnXbZpOshURkNEvXi633lXW1VbduaDCyof0D6pgmaHRaY0pKZJOhGdrHt45ZsSKzErEQUb1ksW8mJ7m25X0T0Q033JiS/YxxwMXuf0IefrOqlFUIV/q4gVR6PUzyl3hG7iiiEH6gopR87iuNhj+RYmUe0wi4iBQtVlxdwgxr8jw2TTvxc1bae5vOvkbXwUuW961wbufPn9/0D7tXXsKQ2ylTJppmabDO1Sztf6Rq1aq3WldLmEMzKNjvb7z5kKEDZO++3WaaL3Reo7bQvEUTefrpp026t2XzodJrjAt7x2L/b06znzq/lfZ6pseoxKWMAc6bT4reW07ue/kLeeSDACn6bGXJU9IF4AdfryJvBraVcv/2lXsef1eKoV+4SFEppgAuVvyeTM9JoHOPX7fS3tt09jZY8baVOWOK0ZJbqlQp+d//vjbN0hjxM3TYYFmxcqls37FVQsMCXc3SkaHNrKuliIjQrmYKr3rhZlqvRYsXmNlF3MORPvjg35k2Ixa+REyaTgDnPGN+7mJW2muaHmOcL4YZ5c2XX/Kpi5V+WIqXqySPvPOT3PN8ZclX+lnJU+xxebpygHwY3VOe/SJUijxQQUre/5iJggFg+Oabb05zbJp24o+stPc2nf0NZoAdmQFilB+PPvqoaZZG9Is1EDAR1a7dyINKckfDp0NDQ++1slp164Y8ghlD8KZTpk6UHTu3yaikEWY2EZxcaFiImf4rM5qh0ZzwrkUA51Sj6+A+K+11TY9RkUOfsJmE464CUrioQvWBp+SeJ16XMs99JIUVuAVKPSV36+NDFStLcWRIlyknJcs8aKLg4iVKmn7hzKgQ0rnTGGrneW/TOcNgB2buy4ym6YIFC8prr78qnTp3MNnSyH+aN3+OmdYyrn49A+LwyJC+VlZL32Qg3iwhIc60iWNKr8GDkYzVXTp0/FlefPEFM9jZsvkQ6TWagQjgnO3yVtrrml6jFuqeBQuTcBQpUVqK3vuYFCxZVu4u9aj+/YQULvmI5E8eM1zy3odNPzAAXOKeUpInT940x6RpJ75VXctKe1/TOcdgCFjieW3Ta7TKIVu6TvKKSwg8MRx32/bNMmv2dAPhgEDfs1FRUY9ZWaWImIjH3UOS5sydKVu3bbowJrh7F6n+049mVqzMiDqetTg273pwZswfjfsJSVlmAo6ChaVgocJStHhpKXl/Obm7RBn1vXJ38TJS6v7kCLj4BQAXKVKMU1fSGfb1NG90Pf0dwZ7PX9Hu/TKybzYxWAKmeF7f9BpLHz777LPyc7vWJkkLY4dnzppuRgc1bNTAFQ1HhAyxskrh4cH98SZ4M7zpzJnTzEngZNq0aWmSsTIjAQZNmJk9VytuohiNqGJuuildN2I9LcCjb7zRPHq+5n49PcfLba5mZU6fzP/dcINpjjazYBUukjwRh9tF5W6FrbsPuMQ9LgDj75vYF0x7Yazek9Nb41BGxefLJ801QGpepozEaRl9uTILr8Xdfrs0LFxYmpYqJS3uu09aaASIR/yP5+vfcccly0RP4/sDBL21t9cBU49mRvdYyZIl5fvvvzVJWhgNhEAUixXNnTcrJRquWzfkUSuzFRYWdr97fujZc2bomyIKdg1Jwsl8+903mbI4A7JpkVXr+QVm1LihcMO0fOAB6fbaa9Ll5ZelWenSEnvrrZe9EeHYW26RVg89JO2eecbsAxhHKwxwEzbRz4obGq/jBnd6Q+Y2Y1q5glba65wRI88AzdJu6LrHAKPpOXX0e0/JUuZ5zDfteQyaTo+RYet5T+c0N8iTR0b7+MjB1atl7+LF0u3VV01A4rmdga8CGuXa0G+/laXdu8vBVavk9x075PedO80jjrGsZ08Z9v330lyhfDmgA5wh+pq/lo1++tv1xv5qHAvH9Hyf9Njf8n7EBpY9fPKpJ81kVK5ouL9Gw9NMYJrYsL4BcVhESC8rsxUZGdYKB28QH2P6gtEG7o6CW7VuLk8++aQ5OcvmpJ0a63ZmahKEXrQGCkjcULvmzpUjmzbJLxs3yuYJE6T3e++l3EAGrurUzS34v91TT8nWKVPk8Pr1MjMxURLy55fEQoVkfps2sn3GDHOsfUuXSu9//9tAPc3706b2+qSV9lpn1O4ZtEyTdPIYYES8bgDjf/QBe1sZpOmbrZy5JCoCAkSyCD4QNCQWLCjz27aVU3/+KX8dOiQDPv/clH2e+2C7/p9+KhuSkuTYvn1y+q+/5MyJE+bx5NGjF/1/bP9+2TR2rAz44gtTJnoGIYClnz730513SkCxYhKqEbQ3xjFwLF89prcgBmPAGs/r7dQoWxBwfvPN/y6KhtE9CxiDk0HBfmdCQmoUsjJLcXFxN4eGBpzEwTE95fYdW2Rkqr7g77//LlOi4Fcs75scUhtNz10qVpT9y5ebm29lv36ydvhw+fPgQQPXlhrF1tcL2+7pp43dNybA3KhoUZnXqpWc+P13c/Mu7NDB3GwJBQrI1JgYWT1woPx95Ij8eeCAuRE9b2r6gr+2Mic70dOYivJW/d6xtCEm48jsBULo3G0s3JDZ3WJZ7XoKXbTSDalSRYZ99520fPBBU5ah/HJDeOCXX15cXml5hwBjjK+v/LJhg5z5+285deyYiX63TJokizt3lpkNG8qiTp1MAIPnT+rr2O4XDWzGBQWZcjF1RIyoFdBsoeXvQA2Chv34owyrXj1j1n0H6mdprRF8jbx5zbG94QT2BWs8r3d6jIDzKQ3S3As8ICCdM2eWWcCoXnSkWeAhOjoyzsosNWgQHWJC7PAg2bN3lyxYMDd5esrupoP6mWe87wsuYWX+DV8/Tx4Z4+Njam07Z8+Wto89Jj9rxL53yRL5Y9cu6V+5srQvX95EyTvnzJFWesO6a5GoLR7ZvNnUAGE3hHGT44bFcfavXGlqjITw5Z0Z44Vp+moby6N63svZ3SjzkmrVkl+3bDHNx9Pr1zddcZeDMFr9UA4e0PLszMmTZr+F7dpJ9zfekNaPPCKtHn7YdLuZRzW69dAa+Nv27WZ7NFF3euEFE/TgeIhU0XwcVKKEDKlWTXYvWCDH9u6VP7Uczoix777Fi2V4jRoSdt994qfn6200jP5hMMfzmju1OxrGvNIIRJEpjeksd+7aLkmjh7uapMOD/rQySyEhARtxUAxQBoRHjx5p5tBEmnatWjWkdOnSXkXBaBrAQs2eX5S3RpQ7Si8cQInIF8kFSE7YMnmyeW50nToGpiv69pUVffqk9Pvixts4dqyJoDeNG2ciZzeE3cduUrKkgTkh7MwfWGmvO01nVxdRB1lp7+PsZpRXCAoQiaIMite/p8bGyok//jDNxohiW2l5djkII4JtVqaMaSXcNW+eDNUoGrBFd9zIn34ywF3eq5dp0kZ52v6ZZ8zrg7/+2gQv60eNMklb7iZpANIHyaz6vuNCQ01r4fnTp+X8mTMZ9l9aBk+Kjpb6Wl773HKLRKUzwdbOYI43zdK3a7CGTGkMzUVAOmTIQFm8ZKGCeJtgOmdl5j+xsfWqWN4qJibyOV+/WucQXm/YuFZWrlxmVpLA7FhY4unll18yaduWzUk6dQUrc5uh3cYN2vH5502t8I/du2V8cLCpJaJv+K/Dh2Wsv7+5eRvefbcxanIA7bS4OFO7mxgeLgvbtzegJYS9M6NhOqcYXSc5YZYs9Pciyp2RkCBzW7SQPh98II2LFTPllxvCS7p2vSKEYSRqtS5bVjo895xpwh5du7bsWbjQlJPY7/Tx46799f89ixbJWD8/Ex0jgm5TrpxJYnUfy0BYy9IYfX5CZKQc1/f0hGp6ffyXX2SqRvXxWgEIyJtXmus52iWXpcdgDtjjef2dGoEnhuQGBvppQNrVBKlYRRA5U527dHDNohXsP9byVnXrhSXgYM2aNZIDB/fKpMnjZcCAviYKjqwbIQ/oTeBNFJzHysJxeMl9u6jFHd2zR37bsUOOKJDRl3H8yBEZozcSmm/c28fojdTjrbfkwKpVsm3aNOn70UeyuFMnUwtDpIzaH258bEsIp99fWpkzXImms9Jl1KFW2vv3WhuRH2CH7jIEGEi8Gvbtt6b5GJBa0bu3yXPJCIRRVqJsi7/rLhlRvboJXM6ePGlyYo7u3Wu67/D492+/med/27ZNxtSpYyJvUyamikqzGsLBGgx1f/ttk/Xt+R2l12APGOR5Dzg1JqZ6443XTUDqnlN63frVsmjxfPdUlmeqxnm5sENYeNBRHGzcuCTZvn2LWSkJ6ypijuhPP/1EChcunObE0uOsHgKAm7WFVhSQdDC7aVOZER8vv27dapqYh//wg7mR3dsiKp7TrJm54Lj50OdxQm+682fPmpt3UapomBBOvzGNZWZmStN0ZhszZFW10t672cEoq3q9954M/eYbafv446a8StKIFQEFwIhmYQA3QxBONkZ59Pn3v2Xf8uWmO25KvXrS5aWXpM2jj0qnF1+USRERZkQI+o+RSW13nKsB4Z56jhj5khkTiGBxIM/7wKkxEVDZsmWlYaN4s3jRgIH9ZNbsGbJ//x6JiAwxII6Pjwm2Mqp69SIq+vjWPOfrV8usFoH27pTJOdq2MsOSvMlIxXitrF4b2D1QHX0WSMzC+DYkaqH22OPNN02/cZMSJYwB2HEBAbI+Kcn0G2+fPt1kAp49dcrU/ABw9L/guIRwxoxxepiFyPNeoOlrbTRDZ3VQkFGjHEPz775ly0xEipEeyHFJ0mg0BcJabnkLYUTbiG4Be8ypgPf4+YknpPvrr5v8GfwPGAPUnhnRbmc1hIP0fTtVrGhaBDzfOyMGg7wZO1ysWDH57rtvTGDat19vs5bC3n27TLAKCAcG+06xMqro2Mh6pim6uaspesLEcabdG2Oj/AN8vU7IwuIMnl9IZhuQRbo+Bp5jWJHpD9abAs3LTRWkqOGh6Xnb1KmmKQeQRRN24+LFTR8JsgQRNS/r1cvcgO7kA0I4466qvt1Kez/Q9LX001b2Xa8c5Q5giNyWcwqlnXPnmgTSzIawea/kZm9AFi2IiHoB/gOrV8v4oCAznvhykx25IRytZet4jZwzC8JT9HPFP/20+Oq5x2GCpOSuwcwwWOR5Pzg1luytUKGC6QdGghZyptasXaVB6wID4ZDQgDNWRhUSErAHBxk5cqjs0Eh4RKqm6A8++EAK6EWybE7KidEOj2Qdzy8js21mi9EbFckEGNN2cM0ac0Mi8w83UhuNjpERiGFK7iFK7n0RQU/UmwgJCjMaNEiJgmEkQGBQO17r/f77nKwjncbYYTT9ed4XNH0tjOkps2M/sNt2EEaOyqiaNVMgvG7kSPMc5jG4KDtan1ugwUQKhB0GDSj/JkdFmezmf86dM/tiyBP6jT23TW0zUceNN0r4ffdJkr+/6V9Gt543RkskMq2Rce2rgI+8RAUgowaLMto3jED04YcfkvoNYk2T9MBB/WXOnJlmdaXgEH+TJR0XF1XdSq+CgoJuCwzyNYs1rN+wxixgPHjIQOnVC2OD28gTekN40xRd0Ur7RWSFTXO0wtNk8j3zjIlm0ewcnZzijgy7pvfcYwa4e2bbYV+AFxFzgtb+Ute80NcMEOM1M49qJt8UucH/tRgR09fe5azsDWDY3RyNSj9yVTCsEkMq0S+LSBWgm9+6tXluZPXqckiDDUy8MTU62jyHvtzD+j/6eXu+/fZF2cyXMt4T5eWSLl1MQiumq0Tm9JUiUGQdB2l5WFNh3eXDD2WaBjAL2reXhR07ZsjYd3pionT75BOpreVwoJ5XVoymAZM87w2nRpP091W/M63EGDOMtYaRJd2xUzv3NJYNrfQqLi7GFwRH5/KBA3tlxoypptMZWdHhEaFyn9ZyMtoUjbFZday0X0JWGjeUZxYffe2NBR4KWWnvEZrOaiNT/2XLNXGD532ZHY3Wtp8ff1w6PvecGdeLIZUN8uY1fbUdnn3W5LXgOQQOCDg6lC8vDYsUMc9hCCa2wcyAaB10GjSgzMTcCmjCBpDN9L4223k6Qo9fW9/Xv2hRafLii9L2zTel7VtvZcy6b9OXXpKA4sWlpgZK4Q7PPb32sTI+bjiPfqevvvqqdOnaSXr36SnDhw+RLVs2yrjxo10QDgv81UqvwsODG2Hnzp3bG6InjR5pOp1B+q//+5XcrRfVsjkZJ37QcjVZeH4JdO40JkVA1nRWTG1J03bOZ7mGzGVFRJVl/pdrGNFFq7qlfs4NJzx3o8d8+HbPObR7FsErRcCeBix9dZ+aWnmocdttXhnHwLGyCsAwmPSQlfZecWIsLlOuXDlp2apZyjSWy5YvkY2b1iWvrORzrk6dOnda6VFoWNBBMzRJSY5lmoYNH2IID9J7O0FHTpwOjs5aozBEP/HdVtr7haYzy4h0nrdyxmxY14MBNiS7obXBG+MYVyNwA5s87xknRqtwmTJlJCg4wLQWDxjYV6bPmGpakZOHKv0T2yC6tpUehYQGmv7g1WtWpPQHu1dMAvFBfsvmZK7kW6wsnJyDzvHGjw0/BEwb6Hnv0HRGjRWRkP2spWCae46m3UblDIzyvH+cGK3D//3vVxf1C2NUUbv2rU00HBNTN9pyqqioiPfr+NQ4j/kv9+3fLXPmzpSBA/tJjx5dJSw8xKv+YIT7V6NGQ+dsIzL+Vv2MlfGsRTp3+wZ1Kcs1GQMr/rQTe9MkjX7hV16pZGbP6pPcL4z5NYYNG+Rukl5kOVVio7gozBXdpGmiknyfjB8/xizYAMJ/9923JhPMsjkJJ37TSvvBafpyBpBrqj+0XE2J91uuZC4OcaJhwBYVNayK87j6NcuVeZ/VEwHR16ffstLeY06M0UKPYaW+dq3NKKIhQwfKmjUrZcHCeQbCEZEhpy2nCg72T8ROGPOEmT+wYHGfvr3M+OD33ntX8ufPn+YEnPo7K+2HpumMGv1FmIWrluVaFQX3FxbtRiGMPmb6+nEVy3Vtv1f/ZLmyWdF8mKOSq+hsb5QhntxyYrQOP/jggxIbF50yXnjhovlmumfw1M+/9jk/P79bLCcKCvbfjp1GjxkpW7ZuMpNS9+7tWjWpfPnyktG1g5EUgYjG80PTNE3TdHYwKvQ3WWn5dSUDwiVLlpQ6PrVMchZml5w+Y4pJzgoNCzTJWdHRdTVWcCANm88AwkuWLJRVq1eYdRKRlNWiZVOTlIVJqy2bk7iS77Cu/vhgmqZpmnZqMAqs8uSXEyM56z//+dJ03WJI75ixSXLw4D5p3qKxoIu3YcOEepYT+Qf4nAOEt23bbJZkGqRhNcLretF1vVq6MK/lakLy/NA0TdM0nR0MRoFVnvxyYixt+NZbb5muW0zxjKme9+7dpfzsYpqkQ8MDY6wrKSIi5F1kRgcE+sh+DaNnzppuxjwhvPbxqS2lSpXKMIQxQJ4QpmmaprOrwSiwypNfToyuWnTZutcXHjZ8sGzVYHb4iCEGwv7+dRZaV1LDhg3CsHH9BtEmM3rixHEpmdFVqvxPihYtmuaNnZoQpmmaprOzvYHwjTfeaDKk27RpaVZUGjJ0kKxbt1qD2WkGwuERwX9bV1JCQmwM2q4xwBgDjUclDZe+/VyZ0R999KEULFgwzRs79NG7LEKYpmmazr4Go8AqMMuGY5c1WokfeeQRiU+ob7pwBw3ub6avXLN2pWsO6fCgc9aVFBzqH4ONQfHdu3eY6Sp79e4hnbt0lFdeeUXy5s2b5o0dei0hTNM0TWdnp4LwOhuOXdaAMCazCg0LNq3H/Qf0lfnz58jOndtShilZV5KvX+3p2Bht2UjMwgLFPXt1NwsWP/300xkenqSeTgjTNE3T2dmpIDzdhmOXtXuYUs1aNaRrN0xf2UdmzJxm8qswAyWGKQWFBb1qXU4hoYG/AcKTp0yQ9RvWmuFJCKvb/tzKDE/yYg3h4YQwTdM0nZ2dCsLDbTh2RSNvqso3/zNduOjKnTRpvMmvqhcdYaLhBg2iA6zLKSLCNUYYQ5NWrlpu2rQxZ3TjJolStmzZDGdGq3sQwjRN03R2dioI97Dh2BVdqFAh+azyp645pPv2NJNeAcLNmjVyjRVu3ODyY4XRcQwIr123SpYuW2ym3sLwpJjYevLQQw95A+F2hDBN0zSdnZ0Kwh1sOHZFY1rnd999x+RRYflfTPuMWbM6dGzrioQTYi8/VhiLD2NDzHe5YMFcM0a4W/cuEhIS5NXqSeqWhDBN0zSdnZ0Kwm1sOHZFYzWlihUrGggjqRnJzbv37JSevbq6MqTDgmKtSykwMLCYbnQeITOWMJw9Z4aZ/xJZXj6+3k3UYRHCNE3TdDZ3Kgi3tOHYFX377bfLs889a5KZMcoIay9gScOBg/oZCPv41OxiXUqRkWGfI3srOMTfhM/Tpk8x2V3oYK7+UzUpUaJEmjdMhwlhOlu7Xip7vnY5Z3Q/mqazn72F8M033yyPP/64dOrc3qy5gAk7Nm/ZIEmjR7hmzQrwXWtdStHRUT6AcN2oMDNRx6TJExTCvQ2Ev/m2ilezZVmEMJ3NDGhGw//6l8T83/9JbLLxN4zn8fqV9vO02S95X4KZpnOWvYWwe9YsjCgChAcPGWhGGk2cNM5AOCQk4Ih1KSUmxoVjo/iEWJPNNW78mJTZsr788guzQoRl86YOTQjT2cYAJIBb/4YbJEF/NI209trklluMG+vfDdXx+jxeN2C1LkS7MQrYOH0Orze86SazL4x98H+i2r2vgbpuf73D2FRMcsHnpK9/ewthrDKI4bzNmjdOnjVrgJkxa9bs6e6pK09Yl1LDxgn10B+MnQHhpNEjpU/fXibV+pNPPjap15bNmzo0IUxfc7shCkACnC1vv106FiggPYoVk76lS0v/++6TvmXKmP/xfCt9HdsZGCPyTd638a23SvvChaWbbtezRAnppcZjd/2/i1ZWO+TPL63vuMNAHUAGjO2i6pzu1JUSfC94zA2VDvr6tbcQRt4UhvMmNox3QXhQf1mxcpksXrLAQDgiMuSsdSklNHTNG/1zO9e80UitxjgnQPj9998zqdeWzZs6NCFMX1MDDLH6A0Hk2+K226SrQnTEk0/K7P/8R1aFh8vWtm1ld79+srVDB1ldt67M/e9/ZeQzz0jXIkXM9u7oFlDuXLSozK1dW1bWqydrY2JkXWysecRxltSoITMrV5bRL7wgfe69V37Ol8/sA0AhWvQ8L89zzCkAQ6UCnwmRf3OtrLTKk0eaa8UjQf9HpSOnfA6aTu3MgDCG88bVj5HuPbqaYb5Lly2SNWtWuCPh89alFBNXNxYbIasL2dFYCxHLMQHCb731plkr0bJ5U4e+KhCuhxr5nXdKglYY8Ij/Pbehc6cRoQHAiFAHaMQ7r0oVOTh5spzYt09O//abnP3zTzl3/Lh5PP3773Ji/375Zc4cWfDTT9L/wQelle5nomcF8qBy5eTXlSvNfmd0W7fx/6lffpETBw7I0XXrZEvHjjLhnXekY8GCF4HYzpfsW3bb5vXLgc7dRGy3n11Unnr71PuY/5P3cVcS3BUaNL+3u+suGVahgoz7979l+GuvSRv93w1i9ovTOc2ZAeEHHnhAoqIizBwbAwb2k0WLFsjGTetcawqHBV4awhF1QwyEsQDxnj07ZfjwIQbCrsUbKpnxT5bNmzp0lkM4WgvYZqVLS1K1ajInIcE8Nr3nHqmn0YvntnTuMmCAKBYRLQC8Nj5e/tq6Vc6fOiXyzz/G/5w9a/7/58yZlOfOnz4tx3ftkg2tWkl/rd220Ypde/Wop5+Wv3budG0HYf9z54zdz+HvM0ePyiEF+dg33pC2efOaqLGBngeialQI8Ngg+RGvufuXzXbJkTeMv1O/DvjhudjkZvLUoEtpIk7ez91vjb5uPOJ93c3rKRUAbK/QTP0+7j5ycz44T3cfd7JxnDYaAQ97/HHZN3GiHN+zRw4tWiSDHn3UPO9uxgesCWI6pzgzIOxexMEF4b4yf8FcsxYD+BoU7HdpCAcE+RkI9+nbQ3bt2m4WcXCvoPTSSy/KHRoJWDZv6tBZCmEAuLUWkkt+/ll+X7tWjmsBeWTVKplWt64kaM3cc3s6dxnQABS6FipkmpkBYANMwFLhe+rgQfl9yRI5NGGC/L5woYmOAWAD1/Pn5fju3bKgZk3pWayYdMuXT8aVL2/g7Abu+ZMn5fiaNfLX+vVyYu9eOafRtOh+eP3MsWOytWdP6V2mjLTSSkArgFzPoxP6jvXxZ/yvgO6q//cqVUp6a0Wya9GiJsJsoTBrceut0la36azb9tRKJV7vUaKEtC9QQJrpawCnAap1IeEMgMRraArvVqSI9Nbj9tH3R781joO+cMDZ9OMmVwqaKnDxPjiP3iVLSr9775V+Wphg3y56jNb6GkDurkDgvProeS767js5qZE/Puvf+p1Mf/VVGaj7oxm/lX4uExUTxHQOcWZAuIz+1gIC/VNWUpo7b5bs2r3dvZLSpSFcu3aNhtgIE3Ts2LnVDDLGYGM0T1eo8LwZhGzZvKlDZxmEUwDcrp38qYXrmSNH5Oyvv5qCdUtSkjTWgtNzHzr32B0FAzzDypWT/XpPnDtxIgXAx1avlmU+PjJWwTqsbFkZo1Huku+/l98XLHCBGJDVx8PTp0uSbtNHITbp2WdTIAxIn9i2TZZ89JFMe/55WfDxx7JfoXtO4euOiH9fsUKGP/GEdMmfXwbp47w6dWRJSIjMVYAlPfKITHr5ZVlcq5ZsatlStuh9vCI8XKbp8Ybcf78M0Pt3jL7fgh9+kA1Nmsi2zp1lbUKCzPz6a+n74IPSUivH7uQvdx8tYIoEs0nvvCPLAgJkU4sWsq1TJ1mn+82vVk2GPfWUdNLPAVAjqxuw76GwHf3SS7JYz21Do0ayvUsX2amfA+e0NDDQvNa9eHHTLI+EtR4K2amvvSYHhw2Tc3//bT7r2d9+k126/Tqt/C7GPu+9Jy21IoDvHxG357Wh6ezmzIAwJrby8/NJhnAfmT1npuzbt9tAuI5PjfNBQUG3WXby8a01HBsNGTpQtm2/eBnD8lr43Ko/WMvmTR06SyB8KQDDiEhW9ughDQsXTrMfnXuMwh+QQrbz7K++kr/37Elpbj6pFTUAeIACq52CC/29eByoEefiKlXkhEbAqbddrNHwMP2BTVHYpobwXxs3yhQF5SC910ZqtLno3XflxPbtKZEymmrHV6okA/S1Of/7nxzbvFlO6T36J/qNIyPltzlz5NShQyZqNn3SCrO/dJvN8fGyQs8DEfrJ/ftN8/bZv/6SM3/8Yd5/kwK538MPS/PkxDFEt23z5JFhCvp1iYlyTM/rNH4TOG7yfuivPjB1qszU8+iukSz6yLvqeS3X7f9Yu9b0abvfx/SR676n9Bi/LVsmi4OCpJ9+V70UwDO+/FJ+mTnTvJ7SBK/fxVnd94ye/9/6+1vXsaN01O8S54a+Zc9rQ9PZzZkBYSxnWLtOTQNhTHg10yxnuAdRsFnOMDjY70nLTn5+tecAwiNGDpUtWzeamT7cEH7yySfllltuSfOG6XCmQ/hyAEYUvHf2bOmjNfFYrTx47kvnHqMpGtEehh2tjogwgHNHt0dmzZKRGhUicjT9rBqxmWQj/T/pscfk0KhRcj45agaYNjVtKqM1+pyuEEbTa2oIT33uORl6992SpD/ApXrfpUBYDWCO12h3sL62+McfDegMtDQSP3P4sGnOhv9JbgJ3A+2M3ssn9TiAoXnd3YeN19H8u2+fLPD1NU3baE5urRHqIP1NIMMblQZ3P7WBqZ6/OYYe95w+/rZypUz+8EPpVrCgaXJeo9HyaYU0zskNbADW3Ud+Xh+PbdggsxW+I8qWlfXNmpmKgbtZ3wjH1qgY+5/Uz7Veo2lCmM5JzgwIY3bJGjWqmzk2AOHpM6aYNYUDg3zdawq/Y9nJP6DOakAY02tt2rwhGcLdzPRbmAHkZi3ILJs3dehMhfDlAIy/f1+/XsZr4dTmkUekiX4hTYoXT+PGWpuPz5dPopm4dd3aJClp4d9YAdWvdGnZ2qaNK3JTARTbNZLse++9BmDoG0XUjCbd5vr/AN1+S+PGBl4QQLanb1+ZUK6czHjhhYsgjObo5R9/LLMrVJAl+niwTx9XvzC4pPA6pBXC4brfIL0Xl1WvngJhCNA7qVHjkfHj5Y958+Ts77+7+pPNi66EsdO6/a9Tpsjv06fLGf0b7wkBeLsGD5a+999vkqG6oc8b0f6OHWYbAPK0RuGH+/eXvQrZo3qM8/q5cdyz+nl2Dhwog7VS0UP3m6AVhyNLlpi+8d1du8q2+vVl388/y98Ka1M5UOG729q+vYzWSvmCqlVlr35OVBTcFQN85kNDh8qObt1kfdu2Mvm776RVgQJsjqZzjL2FMFxc+fLjjz8kQ7i3TJ022UA4JDTAQDg8PKSyZaeAIN8dgPDYcaNk46b1MnjIADPYuEPHnw2Eb9IIwbJ5Q4fONAhj2FELLTiRhOUJYDeEEXnsnztXdk6aJDsnTkzjHRMmyIYhQ2RySIg00yiAIL4+bYbS6P0CyA5UUO1R6Lj7LxHprU9MNMlOSNpyj2010Nb/e+sPaY3eHwYyKmROH9b7abICaNaLL6ZA2Lym0fLx5cvlLwXWyd275RxABwgqQP9SIKIZt5cer7/6Igjr/gDseo3Qp2kkPee11+SAgh7AdwvnubV5c5mm7znrpZdkp0ag7ooBotRf9D4fopFpp7x5ZfADD8jOXr1S9gcUD2tFY9W778oy3X+zRrEnAFU9L0D62JYtMkYrDj0UlP303Ca//rpM1QrGjGeekTnly8sK/X9/XJycQ8VAXAloB/W3k6QViuH6u5nzxhvy19q1KVnhaL6f8/bbMlTPo7tG/a31uAn6XXpmcNN0dnVmQLhYsWJStep3yWsK95LJUyaauTfCwoMMhOvWDf/BslNwsP8+QHj8hNGyYeM6GTx4gBls3K59GzMNF+bEtGze0KEzDcINtLAZ7+9vol1PAKeAWAu204cOXdanDhyQX1evlomBgeaYnu9D53y7IdwMENaIb//IkSlJWYDbWgVMD4UPmqsB39QQ7qU/pJW+vqZP1QBIo8FfZ82SKU8/nQbC7ogVTmku1r+Pb9oky9GPet990i5PHulVtKgsSQVhbPOHwnuCgrCvRqPob16j9/bpZPAD5Me1ojlNYdi3cGEZpOe06PPPzb1r9lf4/aH38IjHH5fud90lo/TxV4WyaUJWITns1x49ZFdkpOwIDZX9DRrIiaVLUyJb9A/P/uQTc9yh+t4TFb7z3nlHVmoEuyk4WHZpNPyb7u9OMkNUf0Sj9ZFaKe9XsKBM0u2PrViR8rmPa4VjrD7XQT8rhjeheZ8ApnOSMwPCWGfh+++/TYEw1mHALJQRkSEmOSs6um5Ny07BoQG/YIPJU8bLuvVrkiHcxUxEDQjfoD8oy+YNHTrTIIxEqxXdupnEK0/4ptcmeUuPxeSt69NuCAMImJJyZ/furihVXE2ryBpGfyigayJhBYY7cu6rEfL6evXMJBwGQBoFHtYocBIi4VTN0ZDpd9Wo8zwi0OSm4rMK+R2NG0vSo49KR63kuTOKl6TqE8YxDyQlyZCHH5aOCq6eeh/OVSiiP9ccV6H328KFMkKhh9cxPGqSAvt4cn8z3veoRqIj9Zx65c8v4xWASOhKac5GHy2SsjAZCe55/Sz/6Hu6zxvnsbxGDZmi+6308zMJYPhcpw4fNi0A2P4cou7k4wHCv86fL8P1fHpplDvuqafkaCoII+ofoc/hs5p+YAKYzmHODAgX0d95lW/+Z/KpMOvkhInjTCRcLzrCQDgmrp6vZafQsKBj2GDqtEmybt1qM/E0INymbctsBWHMhjVTa+h/btsmZy8RCTsxomg0x83S6ADH9HwfOufbHdmiubmXQnVDYqKJgCE0S6N5GgBEVjSgYRZm0Pu8tf4/7IEHZFenTil9u2b7AQNkPPqEFYQpEEb/qsLsoG77i74O4OE5NF8fmTzZRLmdFJ5ImvKEMJqNd/XpI/3Rp3vHHdJFwTYDmdX797ugp8c4pMcYrOeI1wFiRJp/6X2LxCw3hEcphHvrvhO0cpB6/LJJwkrOVkZ07WkcZ61G3ptjYuRvBbs7cQuPgPApPY9TWlE1kMX5IBJOhnBP/c2M9YSwHgNTgeL7ZD8wnROdaRCu8t8UCI+fMMZAOCa2roFwfHxcsGUnN4SnTZ8sa9euSoFwi5bNshWEkZTVXn/om4YPlxN79tiCGNnRRzdulN/WrLmkDy9daqLgdnosHNPzfejrw+7pKrtolImxuClNwQqwP/Uemfb22yZDGOBABIxH9JFOr1RJji1blgIgwHtdfLyMVGBiPHDqxKy/FWaL3npL5r/6qvwydqwro1pfQ1M2+p0xSxeaaHsXLSpLUzVHIzlsh0bnmGMa0WPnu+6SaR4QRh/swIceMq9jti6MYzYQTk68ckfCgCJeO6b3tjtjGQA+pJWDzRERsiY4WFYGBV3kFRivXLmyHF20KKUJG+f+25QpsjEsTFZ+/LFs+eEHOXPokOu1K0FYI+HReg7ttMKALHMku7E5ms5JzgwIY8XBr77+KgXCWJEQEI6Ni3IO4TUGwv0vgjBSry2bN3ToTIMwjGFHXZBoMmJEGhCjP/jXVatkvI+PdK1YUTo+91wadyhfXtqULSuNtMYSo4WF5/Hp68fuyTraKATHKSSPpoIUmqR3de0qkzSCxCxPvfTHgzHCmIxjR4sWrqbo5GgXs7BN++ADGaggnaz3UOpxwoA59hmhx1j49demH9cNyT83bTKLRPTV/QZiPK4HhLdrRdAN4U6XgPAADwj/6QHhEU88Id0wh/Ojj8rBiRNd03GKC8J7mzWTOXq+47TyMKpMGRml74VhVuMef1wm6n4LMZzKPXZadVorsBuqVpVZCtq5+vqO8HDzuzLnkwzhYfpaD32/MQr/P9wVFd0fY7BnJvdft9fov7meL1oYCGI6pzgzIFxY7/8MQTg8IvhvbIAxTdkdwlEYSnIZEJ/ct8/MltW5QgWJ08gGka6nubhD7nDqfmH0/65r2NA1VjgZoGh2PTR6tKwLDZUlVarIusBAOTh4sJw+fDhlKJAZzqPPDXr4YRMBTkg1baXJMt6wQZI0Kuyhrw1TwG1u2TIF4GjaRV8rQJ+kAFxVo4bJiDbHtYPwO+9cEsIYv4xIMzWEMcHGcAVqJ61kYDnG9Y0bX/h8p0/Lnxrlrvn2W5ml0TuSyhDFz9MId3VUlCz76SdZ/NFHLghDus8ZzDSnFYWllSrJOv0+jk6fngL1FAhreYD+6ZH6eGTmzJSZxdCHvKNRI5n95psy4a23ZJhWejhjFp2TnOkQ7pMWwg0bNoiw7BQeEXICG2Dx4WwPYfhyINZHNI0t1MIwsWDBtPvSucruWbOwAMMorZgdmjHDANAd5aIJFv2mZtYqvX/OYxhT8muY2OLXJUtkgkaoHRWygN0Y9MumgvDR9evNQgaAJJqUMTHHkTlzUuafRrP0lqZNZYZGy2tr1boIwtsUwr00QkUzOCA89e23L4LwAYUwFo8ws3ndcYeBvSeEh2hk2lZf66DAG6PvjdWfcN7ms+kxMGzq6IIF8vvs2XJs1SozNzai1q2tW8tcfb+UaBYcVtCe0t/OX/qZ0R+MZDP3JCFuCA/RiBvfA4Z97Uw1pArnhIQ0VIKxwMW2oUOli342LADhzj73vDY0nZ2cFRAeO260gXCD+BhnEJ4zZ6asXrMi+0MYvgyI0S+8bexYzh1Np0TDGIrUAQlMGm3uHjJETug9AlhdNOtTKgFgvyt05n3zjXQrWtRMD9lWI9LhTz6ZsooSwPOHQniAgqml3otY2ADTQS6qWdNM3WgSqHQbLBqxQiPMNRj2lArCm7t0ke4aoWMe53Z585oI8u9kCJ/T9987frz0fuABaa6vI7lr6BNPmIRCN4R/X7NG+ut7432xTZe775bZ330nRzQCxixfBq7YVgGKyBj7YF8zo1Xz5iajen1CggG/O/J3b49kNCRsHVu40FRUAOHD8+ZJ/0ceMZODoJ99zvffmyTJi75D/cxndd/deu7d7ruPEKZzjDMNwl/9JwXCY8aOSoZwbMYg3Kx5E4Xwo9kTwnAqECNZCxmaADAKKkbCtNtuECNTGisUDdboEYso7NWKGqJJABMZw+6I0ESwAJWPj4zQiA+rHTW65RYDyz4PPywH5s6VPzUaPqYw3j1linTXbcxSgTfdZBZE6K/bbFTAHt28Wf5CJKqP2/r0kcW1a8uvK1bIn/rc7xs2yLLEROmgFUXs20Kj2aEvvCCHFi82r/+h9/D6Hj2kk0Iar2O8c2+NivdpJO9+712TJhnQuZcpbJoM4jGvviob27c3cz5jFSiMCUal47hGqUha3IrZvz76SHpqhQFR/JomTeSPdetMBeBv3faY/o72KUQXfvutLKxSRX5dvlyOKmy3DhsmXZNnGcPSkIjil0RGmtdxbLwHWgkOaeVlicK9nX4293Alz2tC09nNmQXhL778PPMg3LRZ4+wNYVjPDclaHcuXlwVau98yapR5bKdRAxOvaLeRpOVeaQig7FykiPTVKHOYRrZTNALFDFl/KhhThuRo9PfLhAky5ZVXpHP+/KZf2aw6pEDuqTAcoCDvX66cAXBTPZ5ZPxfDnBQ6OH43hecATFepkMN2vTCTVPHi0q9sWbNvH33sqP83utW1JCHOq7VGw70V4Hi9r0a4nTGOWWHnXne4uYK6x4MPSv/k9+7m8d54BJBb58ljVkYapNskvfSSTP74Y5nyyScy9vXXZQj6rxWkbfUzIbrHMoXd77lHhmpUPOH992XCBx/IsOeek376Pt20QIFxzjgfNC83TT4fs2Si/t1FQYvPOO7tt2WyvsdIfT9s3yH5s+E7x3fveT1oOrs5MyBcqFChXAjhZAO4iQUKmCZoRMAEMO1pExHrvQxYIWoFWNHf2jFfPhmsQFsRECB/a4RpmmbRrHr0qOweOFBGIKM+eaEH7AfQIRo0YL7JtTavWddXjUf3YhB4HdEpHjGHNSYGMc8l/w2QAVJorsUj4NYoeT/zOo6d/Dogm/q4TfR193ubiTGS399dETDRs743ljtsq58PxnrGeA6vYRvs697WAFnhDeNvvAeeh93nbs4XnzX5fLA/zgHHxLHbaCUCFRDsi3M3AMa52VwLms5uvqYQbtmq2ak2bVrIkiULZI1CeOKksTIqaZj07t0j+/YJ03QGDCAgMgMsU4MEE2IM1ggXGcYnDx0y/bkAMZYd3NChg/TUCBVN0u6oE4DBI4DkBo3bBsbJrwNa7m3d+6XsC3DanNOlju0+rt3rF32+VNvhfAFvGH9f9N7YLtV74vWLtkl+dDvN+aQ+5+R93fun/mye14Cms6MzC8I//PC9jBgxRMaOS5JZs6bJzp1bpVfvbtKiZRNp1aZFpGWnceNGnVm2bJFs2LBG1q9fLatXL5cVK5fI/PmzzAIOhDB9PToFJAoNRG6Idoc8/rhs6d5djm3bJsf37pW/9uwx/bSTqleXZnfdldK8mhq6nsd1H9vYA9CO97N5zfP1S22TejtAM7Xt9jPbpdrW8z3s9rnc+1xqW5rOzs4sCIeHhxp+gqPgKbi6YsUSWbBgtvTu21N/HjYihOncbEAD0RxAjGbVXvffL8NfeEFGVqwow19+WQY895y0L1WKqwLR9HVsQpimr6ENiP/lGlNs+khvv930p5o+zttuMwCOTe5/9dyXpumc7+wH4RWEMJ27DBBfqo/Urv+Vpunrx4QwTWcTe/ZzXq5PlKbp68OEME3TNE1fI19TCCcm1j9Zv360LFg41wxRSho9QgYN7icdO7XjECWapmn6undmQbjKN/+T/gP6yPDhg2XK1ImyZ89O+bldK7OIQ7NmjeyHKNlP1tFZmjZrlGMm66BpmqbpjDqzIHxhso4ezifrIIRpmqbp3GxCmKZpmqavkbMPhFevkIGD+ku37grhpoQwTdM0ff070yD8xefSqXMH6a0QHj2GEKZpmqbpK5oQpmmapulrZEKYpmmapq+RCWGapmmavka+riGcVx+rqv1omqZpOhsajAKrwCwbjjlytoVwySJFpLy6Ak3TNE1nQ4NRYBWYZcMxR862EB4/ZIhMpGmapulsbLAKzLLhmCNnWwifOnFCaJqmaTq7G8yy4ZgjZ1sIC0VRFEXlAIFZNhxzZEKYoiiKorwQmGXDMUcmhCmKoijKC4FZNhxzZEKYoiiKorwQmGXDMUcmhCmKoijKC4FZNhxzZEKYoiiKorwQmGXDMUf2AsLBHhDupxDupBBuSAhTFEVRuUZglg3HHPkChNsrhLsrhEcSwhRFURTlVGCWDcccmRCmKIqiKC8EZtlwzJEJYYqiKIryQmCWDcccOVMgvEohPGBgP+narZM0IYQpiqKoXCQwy4ZjjuyGcMdO7aVXb4XwaEKYoiiKohwLzLLhmCMTwhRFURTlhcAsG445MiFMURRFUV4IzLLhmCMTwhRFURTlhcAsG445MiFMURRFUV4IzLLhmCMTwhRFURTlhcAsG445MiFMURRFUV4IzLLhmCMTwhRFURTlhcAsG445MiFMURRFUV4IzLLhmCMTwhRFURTlhcAsG445MiFMURRFUV4IzLLhmCMTwhRFURTlhcAsG445MiFMURRFUV4IzLLhmCMTwhRFURTlhcAsG445ciZBeLlCuK9CuKNCOJEQpiiKonKNwCwbjjmyC8KVFcLtFMLdCGGKoiiKSo/ALBuOOTIhTFEURVFeCMyy4ZgjE8IURVEU5YXALBuOOXKmQbj/gL7SpWtHadwkUR4lhCmKoqhcIjDLhmOODAh/rhDu0LGd9OzVTZIIYYqiKIpyLjDLhmOOTAhTFEVRlBcCs2w45siEMEVRFEV5ITDLhmOOTAhTFEVRlBcCs2w45siEMEVRFEV5ITDLhmOOTAhTFEVRlBcCs2w45sjpgvD333/74zNPPVb/KXVYeNBZQpiiKIrK7QKzbDjmyOmCcI0a1WTz5o2ybdtmqRsVZjYghCmKoqjcLDDLhmOOnC4IBwb6ypo1q4wJYYqiKIq6ihD+4Ydv5b///co4LCyIEKYoiqJyvcAsG445crogXLXqN/LxJx8ah4YFEsIURVFUrheYZcMxR04XhGvXqi7xCfWNwyOCCWGKoigq1wvMsuGYI6cLwoEBvpKUNMI4IjKUEKYoiqJyvcAsG445crogHB4eLJu3bDCuGxVOCFMURVG5XmCWDcccOX0QjgiWrds2GaeFcB+FcAeFcAIhTFEUReUagVk2HHPkCxD+WSHcVSE8ghCmKIqiKKcCs2w45sjpg3C4QnjrJmNCmKIoiqKuMoS3KIBhQpiiKIqisgGEV65SCPfvI527dJBGjRXCjxLCFEVRVO4QmGXDMUc2EP5cIdzhZ+nRs6uMSroihDcaE8IURVEURQhTFEVR1DUTmGXDMUcmhCmKoijKC4FZNhxz5PRDeMtGY0KYoiiKoghhiqIoirpmArNsOObI6YbwZgUwTAhTFEVRFCFMURRFUddMYJYNxxyZEKYoiqIoLwRm2XDMkdMP4c0bjQlhiqIoiiKEKYqiKOqaCcyy4ZgjE8IURVEU5YXALBuOOXIGILzBmBCmKIqiKEKYoiiKoq6ZwCwbjjlyuiG8SQEME8IURVEUdbUhvGmDcVoI91YIt1cIxxPCFEVRVK4RmGXDMUd2QfgzhXBbhXAXhfBwQpiiKIqinArMsuGYI6cbwhs2rDMmhCmKoijqKkLY37+ODBjQzzgiMoQQpiiKonK9wCwbjjlyuiD8008/SJ06tYzDwoMugnA/hXCnzu2lYSNCmKIoiso9ArNsOObIbgi3Vwh379FFRo66GMIJqSH87TdfS/nyTxuHhAYQwhRFUVSuF5hlwzFHTheEa9SoJvHx9Y3DI4IJYYqiKCrXC8yy4ZgjpwvCtWv9JFu2bDL2TMwihCmKoqjcKDDLhmOOnC4IV6nyVb3PP/tk8n++rDw1NCzoPCFMURRF5XaBWTYcc+R0QTi1wiOCTxDCFEVRVG4XmGXDMUcmhCmKoijKC4FZNhxzZEKYoiiKorwQmGXDMUcmhCmKoijKC4FZNhxzZEKYoiiKorwQmGXDMUcmhCmKoijKC4FZNhxzZEKYoiiKorwQmGXDMUcmhCmKoijKC4FZNhxzZEKYoiiKorwQmGXDMUfOMITDwoPPEMIURVFUbheYZcMxR74ihBNi61l2YiRMURRFUZkF4TbJEB7mLBK+GMLLkiHcjhCmKIqicpXALBuOOfLFEO5MCFMURVFUegRm2XDMkQlhiqIoivJCYJYNxxyZEKYoiqIoLwRm2XDMkQlhiqIoivJCYJYNxxyZEKYoiqIoLwRm2XDMkQHhygrhdu3bSLfu6YDwxeOEl0nffr2lY6d2ktiQEKYoiqJyj8AsG445choIj/SA8KXGCRPCFEVRFJW1EE5MjIuy7OTZHE0IUxRFUblRYJYNxxz5ShC+ZHM0IUxRFEVRhDBFURRFXTOBWTYcc2RCmKIoiqK8EJhlwzFHJoQpiqIoyguBWTYcc2RCmKIoiqK8EJhlwzFHJoQpiqIoyguBWTYcc2RCmKIoiqK8EJhlwzFHJoQpiqIoyguBWTYcc2RCmKIoiqK8EJhlwzFHJoQpiqIoyguBWTYcc2RCmKIoiqK8EJhlwzFHzkQI90qGcANCmKIoiso1ArNsOObIFyDcmhCmKIqiqPQKzLLhmCOnhfBQQpiiKIqinArMsuGYIxPCFEVRFOWFwCwbjjkyIUxRFEVRXgjMsuGYIxsIV/5Mfm6nEO52BQjXrFn9qx+rfX/ez6+2hIUHmQ3cEO7Tt5d06NhOEhIJYYqiKCr3CMyy4Zgjp4ZwV4XwiMtBuOJLz8ctXDhP/vzzqETVCyeEKYqiqFwvMMuGY46cLgi/pBDu27e3jB49SiIiQwlhiqIoKtcLzLLhmCOnG8I//fSjvP/+uxIaFkgIUxRFUbleYJYNxxw5AxCuJu+9946EhBLCFEVRFAVm2XDMkdMFYfQJh4UFS/Xq1ZiYRVEURVFyNSFc8YW45s2bSNOmjSQ8IpgQpiiKonK9wCwbjjlyuiD8yisvxfXp21NGjhomEZEhhDBFURSV6wVm2XDMkdMF4dcUwmPGjJIlSxdK3bphhDBFURSV6wVm2XDMkdMH4dcqxk2dNkm2btskdaMIYYqiKIoCs2w45siEMEVRFEV5ITDLhmOOnG4ITyOEKYqiKCpFYJYNxxw5XRB+441XCGGKoiiKSiUwy4ZjjkwIUxRFUZQXArNsOObI6YLwW28BwpMvA+GfFcL1CWGKoigq1wjMsuGYI7sg/KlCuJVCuJM3EO5JCFMURVG5TmCWDcccOWMQ3koIUxRFURQEZtlwzJEJYYqiKIryQmCWDcccOUMQ3kIIUxRFUZQRmGXDMUcGhD9TCLf92QsIr1i5THr36SntO/ws8QmEMEVRFJV7BGbZcMyRU0O4S9dOMnwEIUxRFEVRjgVm2XDMkQlhiqIoivJCYJYNxxw5gxDeSAhTFEVRlBDCFEVRFHXNBGbZcMyRCWGKoiiK8kJglg3HHJkQpiiKoigvBGbZcMyRrwTh8PCQk3Vq//RHtWrfDSSEKYqiKMpDYJYNxxz5ShCePXuGnDz5t/j41BJCmKIoiqI8BGbZcMyRrwTh8ePHyO7dO8WnTk1CmKIoiqI8BWbZcMyRrwThsPBgqVOnllSt+k0qCG8hhCmKoigKArNsOObIV4JwjZrV5ZNPPpLvvv0fIUxRFEVRngKzbDjmyFeCcFRUuAQHB0i1H74lhCmKoijKU2CWDccc+UoQbt6iibRr31Z++ukHQpiiKIqiPAVm2XDMka8E4b79esvMWdOlTu2fCGGKoiiK8hSYZcMxR74ShEePGSlbt20SX9/UQ5TSQHipQriHQritQjiOEKYoiqJyjcAsG4458gUIt1QId1QID7GFsJ9vbUKYoiiKojwFZtlwzJEdQ9gvFYQ3E8IURVEUZQRm2XDMkZ1C2N8N4amEMEVRFEWlCMyy4ZgjGwh/9qm0aXsFCPtfCcK9e5g06vh4QpiiKIrKPQKzbDjmyKkh3LlLRxk2/FIQrkMI50j984/8c/68y+fO0V4Y3yWVjYR72+Y60ZdxclnAezlzBWbZcMyRnUI4wN+HEM4R0h/Y+RMn5Nwff8jZQ4fk9J49cmrbNjm1ZYuc3LhRTqxbJyfWrqXT6ZObN8s/p097ftvUNRSuB66L57Wibay/e/z+UQ6gPEC5gPIB5QTKC5QbVMYFZtlwzJEdQziAEM6+QkRw5oz5QZ3aulX+GDlSDiYmys6qVWXbp5/K1o8+kq0ffkh74V3VqskZLbSo7CNcD1wXz2tFX8FaHqBcQPmAcgLlBcoNlB8oRxglp19glg3HHJkQzuFCE9PZ33+Xv5culUPNm8v2r7+WLe+8I5tfeUU2vfCCbHzuOToTvO2TT+TM/v2eXz91DYXrgeviea1oZ0b5gHIC5QXKDZQfKEdQnqBcoZwLzLLhmCNnDMKbCeFrLq2tohkJTUyHWreWbZ9/LptffVU2VqiQ5sdGe29COPuJEM5Ea7mB8gPlCMoTlCummZpRsSOBWTYcc2SnEA4M8E2G8FRC+Jrr/Hk5p7XVY5Mmya7q1WXzG28QvllsQjj7iRDOAgPGWp6gXEH5gnKG/cVXFphlwzFHdgzhQEI4e0h/EGcPH5Zfe/eWbZUry6YXX0z7Q0rt55+XjS+8IJteflk2Vapkmp9Q46XT5x1ffSVnDh70vBrUNRSuB66L57WibYzuKf39oxxAeWDKBc+yIpVRrqB8QTmD8oYgvrzALBuOObIjCG8lhLOH9IdwRn8Qv3TqZBIsLhn9ojab3NeDSGHnDz/InsBA2R8bKwcbNZKDjRvT6fQvHTvKuaNHPa8IdQ2F64Hr4nmtaBvr7x6/f5QDKA9QLrhzRy5XjqCcQXmDcocgvrTALBuOOTIhnFP0zz9y9rff5EjPnrL1gw/sfzhau0Wtd/vnn8uB+Hj5IylJTm7ZYrJIzx45YvZHBiSdAR875hpfSWUb4XrguqS5VrSt8ftHOYDyAOUCygeUEygvUG7YRscAsZY3KHewP/uI7QVm2XDMkZ1COCjIjxC+ljp//LgcHTdOtn32mS2ATfPRxx+bGu/fy5bJ2V9/5fg/iqLslTyfAMoJlBcoN1B+2HZvaXmDcgflD8ohKq3ALBuOOTIhnAP0z9mzcmL1ajOuL82PRGuvmypWlJ3ffSdHJ0yQs7/8wrF+FEU5U/IcAyg3UH6gHEF54hkVo9xB+YNyCOURdbHALBuOObITCG9JC+ENhPDVEpqhjxyRgw0byubXXktTS8UPZnedOnJ80SJXLZXwpSgqvcKQRy0/UI6gPDEg9ihrUP6gHEJ5xHLmYoFZNhxz5AxAeBIhfBV1/tQp+XPmTNNUZFs7/eEHOb50qWlaOnXypPyiNdpDhw4ZHzhwwNbu1z3tuR188ODBNNvBeN5z2/QeO6u3v9K5Hz58WM45nJQA22H7jJ5Lere/0rl72nO7yx07q7fHOeI+PKMR1j/XsLDGNUv9e0jtnPI9em4HZ9W547s6cfSoHF+yxJQrdq1uKIdQHqFcoi4IzLLhmCMTwtlZyVHw/pgYM7zgoh9EhQqy/bPP5NiUKXL+77/l9OnTskhrsTVr1pSvv/5a/vOf/8hHH30kH3zwwUXGc3gN26S23fYffvihfPrpp2m2x/94Hq9n9NiZtf1XX30lX375ZZpzwf+f6feD1z2P/cknn5htqlWrZgofJ8J22P5y55KRc//iiy9sz71y5cq25/6xFoJOjp3ec0nv9ji3zz///JLnjvtw06ZNjis5WSFcs+rVq9ueO87R7txxPey+d6ffS2Zuj/vUc3ucG+5ru3P/f/bOA0yKYmvD8/y/13TVa/hRVDIqcEGCICAgQTGAkgTJcSUHQXJ0iZJzFiSDioFoFgTJLDlnUUARc7jXK149//l6GZw93Ttbtb3d07PWeZ7vgd2tOVXVXfW9XT3TNZgHbtqOcwYP+eW77yxfgb/Iz5/Ah+BHZjWcMsAsB44pKQMhPJshPMFAOAMD7738a9cua59XuQo+WqkSfTlhgvXBCkyGf/NKeOnSpZQzZ0669tpr6ZprrqGrrrrKUfgbykQqtfJXX321rTx+xu9lWd3cGVEeP6dWPq2233PPPXT69Gl52B0D5VA+Wlv8bLuULKvbFt3y0dqC3+fJk4fWr19vrYZjFThn+fLl02p7+JzI8rJcasclI8unZww4lZflUmsLvAMe8m++qIevwF/gM7bVMPsRfMm8N/xngFkOHFPSnxAewxCeyhB+xUA4KPHfH3+kr2bNSt4RK3IilC5Npxo1sr4ZJbzH67944ixZsoRuu+02eSyNUlGuXLnok08+SXnQUwmUQ3mZw8hZd955J61du9a6QxOrMOdMT/AOeAi8BL4Cf4HPWJt7RC4A2I/gS/AnE8kR8hPC7zOEjxgI+xK45YOH661dbiInQcWK9OWkSSk2j8DEWbBgAd16663yWBqlIgNh72QgHH+Cd8BD4CUI+At8Rn4gFH4EX7JuSZuwIhQECM+9BOFBBsIZE3/8Qb9++qm1obq8FX28alX6acMGivx+259++ommT59unVCH42nkIANh72QgHH+Cd8BD4CUI+At8Bn6T4k4cbkmzL8GfzPvCyRHKAAiPn6AD4SOHqHcfBwhPNhDOqMDtoF8OHkzenjJyApQubT3L9+uZMykmwI8//khTp041ENaQgbB3MhCOP8E74CHwEiuwEGCfgd/IW9LwJfiT+crD5AhlFIRnTKWlrzlB+HAEhN83EPYj8AA9Hj2SV6F4fu9sr17JH8iKCANhfRkIeycD4fiTDcIc8Bn4jXxuGL4Ef7I2BjKB4+chhN/4E8IPPWQg7FdYt4I2baLjVaqkGPzY4/WLESOsvWAjw0BYXwbC3slAOP7kBGH4DPzG2ls6EsLsS/CnyLfE/soRMhDOfGFBeP16Ov744ykhjEeTeKJg4/rIMO8J68tA2DsZCMef5HvCCPgM/EY+qgRfgj8ZCCdHyDcIVzQQ9iv+wE5Z69bZIYzHA2bOtD0e8PPPP9OcOXMoS5Ys8lgapSIDYe9kIBx/gnfAQ+Al4bAek2S/kY9JwpfgT/ApEz5CuGLFcgbCPkV4u8pjThB+8UUbhPFYweLFi5UeUfqf//kfuvnmmylHjhyWSUF4UB/Geccdd6RQtmzZLpeJFH4vy+L1yCPLppY7o8uHX3PFFVfY+uwkvFYVwp999hmVKlUqzbZAqm3AHMHGC7fffrutn9mzZ7f1ESb5v//7v7Y8boSxcNNNN1ljIa3jjjb9/e9/V5rbWbNmtTZ+OHXqFJ09e5bOnDljHcPwv2Hh58i/RZaNLIPfQ9hu8TfFTSJ0IIzzldo5Teu4eFUec8ypPM6DLJtabpxXzHWcZ9lnKXgHPCT8iBLCgjD7jYQwfMlsX/lnhAyEM1+kB8Kqm3XAdIcMGUIHDhywjAo6duwYreMr2w8//PCy1qxZY21jd+LEicvlIPyM3+PvkeXxeuSJLJta7owqD5PH9oj420d8vN59913LkGSfnQSTQg6VwI5kGzdujNoW6OTJk/TOO+9Yxijrk/rb3/5GJUuWpGXLlqU4llhB7t6928oVznvo0CEaP3483XLLLbY8bvSPf/yDevfuTfv27UvzuCclJVlbHuLCQeaRwo5MRYsWpQceeIAqVKhAZcuWpRIlSlg/49/77ruPihcvbvUff8O/+FvFihUdy5QrV47Kly9vbbd47tw5eXocA8cN51i2zUkYM+grxhLGVOQ5Teu4RJbNqPIYD5s3b6bjx4+nKIu5t2PHDmuMyNxObd+/fz/169ePbrzxRlufpSI36wiHgbBahPyCcPnyZRKXL3+DtmzZZCDscXgJYaxSli9fTr/88svl12OjfWwxiNuHkcKqQ27Cj5/xe1k2tQ37U8vtRXmAS9V4dSAs25RaW37//XfL+LACkfVJAVRVqlSxVnuyr3LPZZ07HTrCKmnkyJH0/fff2/oo+4ovsGjWrJm1xaHMI4X5j9UlhIuN8P8hrObDkn+/8sorUy0D5c2bV/mcoZzOWADAnM5pWsdFRkaVT23uYWzIsqnl/uabb6hnz57WxZbss5SBcPoj5CeEX3ppFr3yyhLq1aubgbCH4SWEcftz9erV9J9MOIF0jVfV0FVDF8JYWeIWa1rh1Y5okRBOKwDh5s2bW7ekZR6/pHPOYj0WghCAcLdu3eiGG26w9VnKQDj9EfILwuXKlU4cNmwwJSYOoB49uxoIexjpgfCiRYuUTBor4TfeeCPFSjizRKyN1ysI48My8+fPVzq/OjIQ1s8bT/Htt99Snz59lFbCGFvwEANh/Qj5B+GSiR07tqOnn65N3Xt0MRD2MHQhjMcKXuTfq3w6Gu8JDx06VMl44y1ibbwGwt5K55zFeiwEIXTuoMA74CEpHlEyEFaKkG8QLlMysWHDelSyZAnq1r2zgbCHkR4IT5s2Tek5Ydya6t69u3WrKrNFrI3XSwjPmzdPyUx1ZCCsnzeeAm85rVy50noLSvZZCt4BDzEQ1o+QXxAuwxDu0qUTNW7ckFfCzxkIexi6ENbZMQsQxvtEBsIZb7xeQnju3LkGwhrnLNZjIQgBCOPzH6oQtu2YZSCsFCEvIbyCIXwsAsJvvvk6bdq0gXr36W4g7GEYCKcvYm28BsLeSuecxXosBCEMhP2JkF8Qrl69yoAXZ06jdevWGgh7HAbC6YtYG6+BsLfSOWexHgtBCANhfyLkF4QnTZp0Q6NG9fpVfbxyYo8ez120Q3i89UIDYfehC2G8jzNjxgwlCOOTkniAH5+czGwRa+P1EsLmPWG9cxbrsRCEwCYzr7/+uvVEhOyzFLwDHmLeE9aPkGsI12AIj+bjP4Uh/HLqEI6Mnr26/ttA2LvQhbDuI0qYmJigaQU2Brhw4QJ9+umndPr0aevf8P/DP4f/L/8uy0aWd/q9/F1Y2K7Qi60KvTBeQBg7F5UpU8bKH0333HMPJSQkWHBLK7zarAM7KfXt29faPU0ed3l+9u7dS+3ataP8+fPb+iKFrRWxqYeKD2AzDuwwJnM4CTtnYRtLlfBqLGAsYkzK45Pa+IWwIUtqZZ1e5zSHwv+HMGbkhi5OgQttXHCbR5S8jZCBcOaL9EDYi806vvrqK+rUqZO1BWG+fPmsc1uwYEHLiKEiRYpY/wIo+HuhQoWoQIECtrKRf8fP+Bc/h/OgHMqHf4d/8RqoUqVKlumphFfGqxPYwQigQO5ogrGeP39eyUy9gjB2pMJFGY5z+LyFj3tY4XOJ7SVnz55tXWTIvkht27aNHuKxih2wZJ1SADC2+ozcpjM14bjG+oIMYxFjEsdFjnV5DMPju1ixYpfHdeS8QHn8P/I14TJyXqAs5g3mXMuWLa2L47TCbNbhT4QCAeG5s2kSQ3jgIAPhjIigQPiLL76gmjVr0jXXXGOdU2wEHxZ+honj37Ai/xb5f/l3WUb+LvI1uXPnVjZIr4w31qFzp0NXkecm8rjL8wZY45nTSJNOLXCLHbfacctd1ieFW/e4hY+7CBkZXo0FlMOYjDxmcgzLYxo5T+SYl69xKhP5O+zdje1OVd7GMBD2J0IuIVyTITxu/Gia7gbCcwyEMzSCAmGs1OrWrWtBWObxS7oG6YXxxjpwfr3YrENHqFt+y05qkdkhrJrXC+GYPs6+oPJFFgbC/kTIQwgvNxCOTQQJwrVr1zYQjnHo7HzklVD3woULDYQ18nohA+HgRchAOPNFeiCsertS54NZOmbqlbwySJ28sQ6v3hPWEerGJ7Qjv/Q9tdAZNwbCegp/+5bK7WjzwSx/ImQgnPlCF8JePaKEiY6rbhUz9UpeGaRO3liHV48o6Qh141llLyCMT16rfEBNJ7waCzp5vRDeE8bnNPB5jbTCPKLkT4QMhDNf6ELYq806cMvLQDj24dVmHToyK+Hk0MnrhXSeLzebdfgTIQPhzBcGwn/KK4PUyRvrCAqEzXvCenm9ED6f8dRTTymthA2E/YmQxxA+aiDsfxgI/ymvDFInb6wjKBA2K2G9vF4IEK5Xr571ocm0wkDYnwgZCGe+MBD+U14ZpE7eWEdQIOzVc8L79u0zEFYU3hOuUaOGWQkHKEIGwpkvdCFsPpiVHDoGqZMXuzSp7ILllQ4fPkzTp0+3di5Du6MJULvpppusjR1kn90IY2vSpElWW2T7pHbs2EENGjSwdoCS7ZMqWbIkrV27lk6dOmXLIxWEHbN08nohQPjJJ59Uek/YfDDLnwgZCGe+0IWweUQpOXQMUicvzB/7FkuA+CVsYdi2bVvavXv3ZSClJqwqe/furfRYio6w6xOeJc2ZM6etfVIlSpSgZcuW0fHjx23tk9q+fTs99thjlDdvXlseqSDsHa2T1wuZR5SCFyED4cwX6YGwF5t1hLetxNW3zOOXvDJIr/J6IXxzEb7BSOXLHvCNSPhmJHxDkszjVqrz+s4777RWt9hHO63Alxtgb2VAXuaR8uqceZXXCwHCuDulAmGzWYc/ETIQznwRFAjjwx/169f/y++YpZPXCwUFwqrSgTC+Fejee+9Vun3u1TnzKq8X0lkJGwj7EyED4cwXQYEwVsJ4HMKshNXzeqHMDGGshPFet1kJqwkQrlq1qoFwgCJkIJz5IigQNu8JJ4dOXi+U2SFcvHhxA2FF4a4UvlRF5RElA2F/ImQgnPkiPRD24oNZ5j3h5NDJ64UyO4TNSlhdOjtmmQ9m+ROhYEB4FkN4HEN4gIFwBoQuhL18RAnvP5mVsHpeL5SZIYz3hPFl9eY9YTVhLppHlIIVoQyB8CiG8GQD4aCELoTNZh3JoWOQXuX1QpkdwgULFjQQVhRuRz/99NNKt6PNZh3+RMgvCD/bvnWlZxKafd+xQ9v/9OjxnFXAQNibMBD+U14ZpFd5vZCBcLK8Omde5fVCBsLBi5BfEC5XrnRiUtJW+u9/L1Lffj0NhD0MA+E/5ZVBepXXCxkIJ8urc+ZVXi+Ez2dUq1bNbFsZoAh5CeHlDOGjlyBcpkyJxAUL5tGKFcuoV+9uBsIehoHwn/LKIL3KqyrMkWuvvZayZ89u5Y6mAgUKUPfu3enrr7+WTbOFDoQBPmxxia0uZZ1uVKpUKdq0aRNdvHhRNs8WBsJ60vk+YQNhfyLkH4RLJnbq1J7q1q1D3Xt0MRD2MHQhbD6YlRw6BulVXlVdeeWV9BCfz23btln5o+n06dP01VdfKX3xvQ6EMRawxSW2upR1uhE+8YwPBf3xxx+yebYwH8zSk84jSuaDWf5EyE8IN2vWhCpUeJC6de9sIOxh6ELYy0eUzGYdenlVpfOoiU7oQBhlUBaviVUAwkWKFDGPKClKZ7MO84iSPxHyC8LlGMI9enSlli0TyOmDWRMnMYQHGghnRKQHwl5s1oGrbXwbDm6byjx+ySuD9CqvqgyEk8NsW6kns3d08CLkFsI1a9DYcaNo2vS0IFyudOKIkcNo6LDB1KNn18sQ3rkriV6akwzhRAPhDImgQBgr4Vq1apmVsEZeVRkIJ4f5Agc9GQgHL0IZCeGlUSBcvnyZxNmzZ9LixQuoZy8DYS8jKBDGRMcnMQ2E1fOqykA4Ocy2lXrCuDFf4BCsCPkF4YoM4ZUrl9H2pC3Uu08PA2EPIz0QXrx4sdJ7woDwypUr6ZdffkmRwylwOxrPJJpvUVLPqyoD4eQw7wnrKfyIksq4AYR79OihBGF4BzzEQFg/Qr5BuGK5xA8+fJeOnzhCfQyEPQ1dCP/88880f/58JQhnyZKF5s2bZ70mrTAQTg6dvKoyEE4O8+loPQHC1atXV3pECed1+PDh1mNoMo8UvAMeEukLBsJqETIQznyhC2E8VjB9+nTlR5T69Omj/IgSPolpHlFSz6sqA+HkMM8J60nnESXc7XrzzTeVH1GCh5hHlPQj5CeEPzQQ9iV0IWw260gOHYP0Kq+qDISTw0BYT4Bw7dq1lSBsNuvwJ0J+Qfihh8obCPsUBsJ/yiuD9CqvqgyEk8NAWE8YN6rfomQg7E+EDIQzXwQFwtiruFmzZnTPPfdYxhMLlStXjs6cOSOb5hg6BolyGW28GPcwSZWtKHFMExISlPaDxs5TuE2ITxKjLdF04MAB631APHsr65TCB6KwS1Kk8aYW2K0Lu3Zh9y5Zpxthe0sci3iBMMYixqQ8ln4pX7581Lp1a7pw4YJsmi0MhP2JkOcQPpQM4cqVAeH3DIR9CF0I674n3KtXL6X3hGG8uO2V0carI5jeb7/9JpvmGCgPo5J9dhLKobxKqObFJ3wBv82bN9v6IYVjimOrshVlePtBPMojTVkKq0rVrSixCsUq+Pfff5dV2gL7VmP/auxjLet0o2zZsllbeMpj6SSUR7tVAuVQXuZwkk5ejEWMSXks/RLGDS7cVMYN3hNetmyZeU/Y4wgZCGe+0IUwPtE4d+5c65PPDsczhZwmW2YJmJQXxquaFxAuWrSotWLNyMBjIwsXLlT69Dsusnr27Kl0p0MnYPz4Jid8o5Os0y95cc5088ZT/PDDDzR+/Hi65ZZbbH2WgnfAQ8yno/Uj5DuEjxsIex26ENZ5ThhXxStWrFB6TjjewivjVc2LW6p43AYrzIwMnN8FCxYonV8D4eRQPWe6eeMpMAYwFlT3jjbPCacvQrGH8HaG8IsM4bEM4f4GwhkQ6YGwFztmxVt4ZbyqeQFh3A72AsKqX9BhIJwcqudMN288hdkxy58IuYZwdYbwSIbwJDUIH2MIp9wxy0A4o8NAOH3hlfGq5jUQ9lZenDPdvPEUBsL+RMhAOPOFgXD6wivjVc3rJYRVd0QzEE4O1XOmmzeewkDYnwgZCGe+SA+EVVdK4e8TNu8Jqxuval4vIWzeE/bmnOnmjafAExB9+/ZVfk/YfJ9w+iJkIJz5QhfC+KTzzJkzlR5RuvHGGykxMZG+++67FDkyQ3hlvKp5vfpgFj6xiv2+DYQz/pzp5o2nwKNtr7zyitIdMngHPMQ8oqQfIQ8hvIwhfIQh3MVA2N9ID4SnTZumBGGdzTriLbwyXtW8Xj2iFH4EzUA448+Zbt54CrzltGrVKuXNOuAhBsL6EfIfwocNhD0OXQjr7JjllUkHIbwyXtW8gDA21PACwnhPGCsarLajCXc6sBlLRp9fXQjDA2TbUpN8bWry4pzp5o2n0N2sw+yYlb4IBQXCEyYaCGdUeA1h1R2V4k0bNmywdmCSfXaSjvGinIqh66yEsRUlTFJlK8ojR45YK2Fsl4jb3dFUsmRJ6+0GlfOrs2OWDoT/9re/Ue7cua33x2X7pLANI76eT+ZwkhfnDMKYwdiRxyfehS1MBw4cqPRVhgbC6Y9QBkB4zNiRNHXaJHo1vRCe/dIlCCcaCGdEeAlhrDywcX+OHDksk8pMgpleccUVtj47CeVhVCqBcigvc0gBwoULF1Z6T/jixYvW9palSpWy9UMqf/781K5dO9q7d6+VO5oOHTpEI0aMyPC9o3UgjBU73os8ceKErX1SOAax3jsaYwZjRx6feBfmOOa6yrE1EE5/hLyG8BGGcBcDYV9DF8J4HwdmqgJho2TBpDLa0HVWwr/++iutXbuW7rzzTlseKYAPAFT5sgevvkVJB8LoE/qGPqYVADFWxCqg8OKcGSUL3gEPMe8J60fIFwh3NBD2M3QhrPOIklGyvDB0gARAAVjSCgPh5MCxwoocFzAyj5QX58woWeYRpfRHyA8IdzYQ9jXSA2HVzTqMkuWFoQPCqs8JGwgnB+4a4MNsBsKxldmsI/0R8gHCnVNA+JiBsNdhIOy9vDB0A+Fk6UK4WLFiBsIxloFw+iPkC4Q7GAj7GQbC3ssLQzcQTpYOhHGs8CEy855wbGUgnP4I+QHhZw2EfQ0DYe/lhaEbCCdLB8JYCePDbGYlHFsZCKc/Qj5A+FkDYX8jPRA2H8zSkxeGbj6YlSxdCJv3hGMv88Gs9EfIQDjzhS6EzSNK+vLC0AESvL9pHlFSh7B5RCkYMo8opT9CvkC4vYGwn5EeCE+fPt3ang67FRmlrbvuuotOnz6d4jimFqqGrrNtJQD1EZ/jnDlz2tomhV3OWrRooQThH374gcaMGWOtbGQeKZRBWbwmrUDdaAPaIvNIoU/omyqEscHJVVddZcsjhXOmCmGcW5SXOYychf2lzRc4pC/ALOkFqlKGcCcDYV9DF8K4hYQ9YqtXr04VKlQwUlC9evXoiy++SHEcUwsdCOOZV5Xb0b/99hvt3LmTateubWub1MMPP0wdO3ak3bt3W22JJuyYhZ2PqlatassjhTIoi9fIPFKoG21AW2QeKfQJfUMf0wqcgwYNGthySJUvX55q1apFn3/+uUzhGMiLcyzzGDkL3gEPMbej9QPMkl6gKlUId+rULi0Iz2QIj2EI9zMQzoDQhTD2IcYm/zCos2fPGikIJv3f//43xXFMLQChjIYwzhm+5QbtkG2TOn78uHWrEB9gQjuiCR8Mw3fIAqwyjxTKoCxeI/NIoW60AW2ReaTQJ/QNfUwrcA7Onz9vy+Ek5FUBOwJ5VY6tUbLgHfCQyHNmIKwWYJb0AlX9CeERDOGJDOEl0SH8AUP4qIGw56ELYRPehg6EVW9H64RXX2WIMiir+qXv+CYntMXEXyMMhNUi5CGEX39jKe3bt4c6dmxrIOxnGAgHK3QgrPrBLJ0A+ObNmxdzCC9YsCDF7UoTmTsMhNUi5CGE8Q2Fb7+9mtq1a2Ug7GcYCAcrVCGs84iSTgB8ixcvjjmE0QYD4b9OGAirRchDCI8dN4pmzJhGrVslGAj7GQbCwQodCKtu1qETAN/ChQtjDmH5HKmJzB0GwmoR8hDCPXt2p44d21OLFk0NhP0MA+FgRawhjNvReD821hA2K+G/VhgIq0XIQwi3adOSatSoRk2bNjQQ9jMMhIMVsYZwUFbC5j3hv1YYCKtFyEMI16tXh+67ryg1algvAsJHnSE8fsIYet5AOEPCQDhYEQQIB+E9YazGDYT/OmEgrBYhlxCuwRAePYYhPHUivfJqSgh37/4ctW3bmpo3a3wJwh84QHgnQ3i2gXBGxh+//ko/b9lCnzRrRidq1LisUw0a0DdLltDv5jERX0MHwl59MAub68cawuY94b9WwGfgN/CdSB+CL8Gf4FMmMg7CUxwg/NZbK+mzz05Th/ZtDIR9jT/+oN9/+YUunj9PF8+d+1PYYAKr4N9/l6/Qit/59TBTbFEXdKGdaK9KoJx8fWrSyasKYd1HlFTPw4ULF+ill16inDlzWns3RxO2LgVYz5w5Y8sjhTJdunShG264wdYXKZ2VsGq/ILzfrXoeUO5HHv8yR2aQznhUDWy8gc1NcIxlfVKO9fPP8Bv4TgofYl+CP8GnTHgL4cmTx/O8m0PNmjb6xUA4kwR2EsIOOVjVvPjii4EXVoAwXpXAHsiAFXZ2knmkdPLqQFhnx6xvv/3WaodsmxT6M2zYMGrTpg0lJCREVatWrah///40bdo0Wx6p8ePH02OPPUbXXHONrS9SgDCeVVbZrAOm/vrrr9OsWbNsdUYKexUD7CpfIIFAORwL7JMuc8W7dMajamCunzp1yvo8gaxPCm93YH9wG4hNpBkhDyHcf0CfVT27d3125MiRBQyEM0nA+AcMGEC5c+emLFmyBF733XefEtQQKIftFTGwZR4pnby6EFZZCV+8eJE2bdpkfaG9bJtU9uzZLbgeOXLEWhVHE0x3+PDhlDdvXlseqVtuuYWuvfZapfkKCMPMVVbC2IYS+zbj25RknZHCecLxOnz4sJL543yhvMr5jTfpjEfVwNah7733nvU5BVmfVL58+cyOaOmMkIcQHjLk+V6hcBgIZ474+uuvqVOnTnT99dfL4x5IAX6AoEqowtKrvDrbVgbhqwx1pLMSxj7ETzzxhPXNSDKPVI4cOWj//v1KEFY9D/EonfGoGoDw6tWrrW9IkvVJAQb4Mo+MXo3/FSJkIGxCJwyEvcsLCGMlbiCsB+G9e/cqfZmG6nmIR+mMR9XQhTDewsBbCSb0IuQ/hA8ZCMdxAMKdO3c2EPYgr86no+MRwqqbdehCeM+ePQbCGuNRNf7973/T0qVL6bbbbrPVJwUY4P12A2H9CPkL4XcNhOM8wu8J33jjjfK4B1I65qRj0l7k1XlOON4gDCN/+eWXPYHwvn37zO1ojfGoGpjr+KpK8wiatxEyEDahEzDpIUOG0E033SSPeyClY046Ju1F3swMYS9XwuY9Yb3xqBp4Drxbt25Kj6DhIguf0FY5vyZSRshA2IRO4Oq4V69eSlfHQZCOOemYtBd5MzuEVbetNBDWl854VA0DYX8iZCBsQifCuySpTMwgSMecdEzai7wGwslhIKwvnfGoGgbC/kTITwi/zxA+4gjhGQzh0QzhvgbCAY/vvvuOBg0aZN4T9iBvZoewuR3tnXTGo2robkuqen5NpIxQhkB4OEN4AkN4sYFwZg/sKjV27Fhr0gPEEN4fxgP72LwB2x7ikQYMDvw+XCZS+D3+jnIoj9dBeETH4XzadMUVV1ivAyhkbvwOYMKVOXLiuVuYNG6jf/XVVxaI8Alv/CyFciiP18m8su2qO1shVM0fEM6fP7/1QSPZtnDb8S/MEf9ftWqVNV9w7MN9djrmd9xxB7Vt29Z6bVqhA2G0F6uk8HHBOQlvhCHbg80/5syZYx0zbAqCPsg+hoXNNx555JEMhzDqLly4sO34oI3h8YJ/sbkJjhnGmazPrTDGw3NFtiPcFswL1I9/VdugA2FsRYnzLI97WJgfGF8nT55U/hAm+jR37lylR9BMpIyQ7xA+YiAcz4FHQU6cOGGBeODAgZawJeLs2bNp0qRJtHz5cnrnnXesZwbxAa5wmUjh9/g7yqE8XjdmzBhrIjucT5tgUNjWcNSoUbbc+N26deusW2PI+8orr9DgwYOpd+/e1q5RTZs2pQ4dOlCfPn2oX79+KYRyKD9u3Djr/zI3NHToUJoyZQpNnjzZuiugEqoQxrjHMejYsWOKdqHtgGijRo2srSexOsH78iiHtsL8sCrG4yQvvPCCY5uxSlHZSEEHwgAw2pOYmEgjRoygFStWWFtJptYe9KVly5b0zDPPWO2Xxz+sZ5991oKrykWZDoRxviZMmGA7Ptgh7NVXX7XGC8bN9u3b6a233rLGmazPrQB5HKPUxhiOI+rGTlUrV65UboMqhDF/T58+bZ1jedwhzAvMD8wTqGzZsnT11Vfb6pMCDLAdqHlEST9CvkL4fQPhzBCYyFgRw9QgGDeugGHyv/zyi/WQPyZj+O9Owt9RDuXxukOHDllfMOBwPm2C4Rw/fjxFG8LC77ClI26LIe+xY8esZ29xS+26666ztlnEM874WQrlUN4pb1joK/JCKsaPUIUwBPA4tS/cdvwL+AHW1atXt44Djj1uT+O5TrRPtjl8vFXaqwNhlAHAsLkIXodziXqc2oMLN8AX7cbtcdm/SKF/qitAnc060H+nc4s2oq04pxg3WCliFah6znSEMY7tQ53aEW4L5gWOH46ZahtUIYy+7dixw/JZedzDwvjDWMN5wt0IFT8GDMyOWemLkG8QfshA2ETqoQMqVcNBeJVXJ3TaoCqYI943xfunGRm6EEZZvCatwO1NvC8NY5d53Ehnsw6d8OKcQTpjTKcNqnkBYaz0cctd5nAjA+H0R8gvCD9kIGwiSnhhOAiv8uqEThtUZSCcLJ2VsE54cc4gnTGm0wbVvAbCwYuQgbCJIIQXhoPwKq9O6LRBVQbCydLZMUsnvDhnkM4Y02mDal4vIWzeE05fhPyCcMWK5VKF8CyG8Ljxo2nA8wbCf9XwwnAQXuXVCZ02qMpAOFk6H8zSCS/OGaQzxnTaoJrXKwjjvX7VL+gwkTJCbiFcozqNGp0M4ZdfSQeEdxgImyBvDAfhVV6d0GmDqgyEk2UgrJfXKwib54TTH6EMgvDkKWlCuEziW2+toj17dhkIm7CFF4aD8CqvTui0QVUGwskyENbL6xWEzY5Z6Y+QXxAuX75M4ksvzaJXXllCPXt1MxA2kSK8MByEV3l1QqcNqjIQTpaBsF5eA+HgRcgvCJcrVzpxxIhh/MtB1KNnVwNhEynCC8NBeJVXJ3TaoCoD4WQZCOvlNRAOXoT8hHDXrl2oWbMm1L3HcwbCAYo//vjDmjznz5+3TD2jBOPFpgPIn1boGA4MZNu2bbb6nLRz50564IEHrNxpCeVQXuZwo3PnzlmmV7p0aVt9bnTPPfdQQkKC0n7QOhEECGPDEpg6NraQ/ZYqVaoUrV+/ns6ePWs79lIY36qPMp05c4bKlStnq89J2bJlU95cBOVVYInQaYPq2MVxwvHCcZM5pHCBg807sD2p7IeU+T7h9EfINwiXKZnYsGE9KlmyBHXt1tlAOECB3YJWr15N9evXp6pVq2aYsK5fqz0AAIAASURBVO0ddgdSMT4dCF9zzTVUqVIlW31OatKkibVDEPKnJZRDeZnDjR577DF68sknrYsGWZ8bYetBHaioRhAgDAAvXLjQ2r1M9lsqKSmJ6tSpQ1WqVLEd+0jh7w0aNKAvvvhCNs0xsGIEBGV9TtqwYYMFYtkPJ2GM4zUqodMG1bFbq1YtaytR3D2QOaTw/DW2EFX5FiXAYMaMGeYRpXREyC8Il2EIt2vbml9Qjbp172IgHKDAxMEEwj61uM2ZUcKm/TBJmElagUmvCmGMjyuvvNJWn5OwYgSwVALlUF7mcKu77rrL6l88RBAgjHG4Zs0a6y5KWhH+UgZcmMnjLnX33XcrjwWd0Bm7OhDWCdWxi5Vt3bp1rQu4tAIX59ijHV/MIfshZTbrSH+E/ITw3Lmz6bXXXjUfzApYYOJgAuGEOhzPdAu3jXErNqMhrCMd0wtCG2IdQYAwvoEJXwChCmF8/aPKLVOvzoPOuIl1G/BlDNWqVbNuTacV2MMad8jwbU4yj5SBcPoj5BeEK1eumLh8+Rt8xXbKPKIUsDAQTo4gtCHWYSCsHzrjJtZtwB2Dp59+WmklbCDsT4T8gvC0cePyVKhQbmSlSg9O696jy28GwsEJA+HkCEIbYh0GwvqhM25i3QYD4eBFyC8IR0aPnl3/bSAcnAi/J2wgHPs2xDriEcL4CkoDYbU24H1hfFBQ5Xa07nvC5oNZ6YtQ7CG87RKERzGE+xgIxyDwWAEeL8BjBg7HM90yEE6WThtiHfEGYXyXcZEiRazHmmQeKa/Og864iXUbAOHHH39cCcLffvst9evXz/owl8wjZR5RSn+EXEO4GkP4BYbweIbwIgPheAxMHDxoj0dDHI5numUgnCydNsQ64hHCxYsXNxBWbEMYwnh+Pa345ptvqFu3bkqPKJnNOtIfIQNhEwbCyRGENsQ64hHCRYsWNRBWbIOBcPAiZCBswkA4OYLQhlhHvEEY7wnfe++95j1hxTYYCAcvQgbCJn755RdasWIFlShRwprI0YSt7G666SYl08OnKletWkWnTp2yzBIbCsAswsLP+D20ZcsW5a0dg7BNoI7QL/QP/Yzse2T/I3/ndHzCZcL/D5eLLBP+XeTPEFaLX331ldLuWvh0Kz5gg/dZZT+kAL/hw4fT4cOHrTqc2o7f41/svtS+fXvKnz+/LY8UtlTcvHkzXbx4UTbPFoAJ9tDOkyePLY9U5HmIPD6Rx062X54n2Udo06ZNnuyYpRPIidyyPilsclOhQoXLO7hF9g3C78L/37NnD7Vs2ZKuu+46Wx4pA+H0R8hA2AT2dsaXccMwwwaTmvbt20c9evRQ+rAGJjx28cE5xS3DAgUKWLtowSxy585t7WCET7Zix6MyZcpYBinrc1IQtgnUEfqF/qGvgAX6jl208uXLZ/UdxwW/B6Ccjg+AGC6Df/EaHFdZBq+PLIP8+DsurnDOvv76a9llW+CLELCyDRtyNGEs9O3bl8qWLWudX9SFNqH96Ef4vONfGD+2ojx69KgtjxTGIS4MVfYcxzkDiGUOJ+E8YI9leXxw/MLHM3zscSwjy+CCA49CRZ4f/C3cT4x1OfacpDMedQI5VSAMb8XdCNylkuNHjjGMUbN3tPcRMhA2oRMw8i5duijdooIwgSG8Z4d/I88t/h/+u445qRoOpJPXqwi3N9LM0PfI/od/djo+kccusrwsk1rO66+/3roVnNFf9oDblT179rTujITrT63teMxl/vz5MTXpyPMQeXwij6dsv9MxledQ9j2avBqPOnNC9iGtMaYi84hS+iMUBAi/OGsGjR03ivoPMBAOegDCnTp1sozd4dinWzrmpGM4Onm9Cp32eiGsfLyEsMpdEayU5s2bZ91xiVXE+jxAXo3HWPfNbNaR/gi5hHB1hvDIUQbCf5kwENYPnfZ6oaBAONa3K2N9HiCvxmOs+2YgnP4IZRCEJ002EP5LhIGwfui01wsFBcJmJezdeIx13wyE0x8hA2ETOmEgrB867fVCBsLJEevzAHk1HmPdNwPh9EfIQDjzxR+//Ua/ffcdXWTT/fXzzzNU5w8epB4JCZTzuuvo/zAIMkhFs2enE9u22epzEsqhvMzhJJ28XkmnvV4o+7XXUvu6denz/fttbXOjLw8dogHt21NuviCTdUrlY7NYMnkyfX/ypC2PX4r1eYC8Go+x7tvdN99MLw4fTt8eP25rG3Tx/Hn67dtv6Xc8+/3HH9Ky/tIBZjlwTEkGwgGM3//zH/rX3r10duRIOt6iBR2uVYsO1aiRYdpbpQotzZuXxlxxBQ3n451Rmsig2PHII7b6nIRyKC9zOEknr1fSaa8XGs3nanGOHLSHz51smxvtrVqVXr/7bhrzt7/Z6pQad9VV9H7x4rT/ySdtefxSrM8D5NV4jHXfcH7fu+8+x/N7uGZNOta4MX2WmEg/btpE/8XdEAPiywFmOXBMSQbCAQusgAHg461a0f5KlWjfAw/Q3pIlM1Q72UjfvuMOmvO//0uz+HhnlObzJN5etKitPiehHMrLHE7SyeuVdNrrhV7ic7UsSxbawSYp2+ZGGAurbr9daSzMZVCv5Yu33SVK2PL4pVifB8ir8Rjrvlnn9667Uj+/pUvT/vLl6WjDhvT9mjXWYsFEcoBZDhxTkoFwwAK3oLECBoBtkyCDtIuN951s2WgOr67kRHQjHXPSMRydvF5Jp71eyEA4WbE+D5BX4zHWfUsTwpe0r1w5OtW5s/VWmYnkALMcOKYkA+GABQb28WeeSdcKGHBN4omMyRxNWwsXpvdy5KBF115rTfqM0svXX2/VL9vlJJRDeZnDSUuuu442FSxo64dboQ177r/f1jYn6bRXR/PY+GbzXJGGKOUlhN/Jnl1pLCzmMh/mzm2NH3ks/dJG9pb5V15pOz5OwnFFWdkPt9IZjzpjDOWRX/bDSS/9z/8o98262FYYY6oQ3luqlHV7+pdjx+iP33+XFvaXDDDLgWNKMhAOWKQXwpg4H/EEWvz3v9smodQSLrPu7rtpW5EiNtNwIx3DQTmVCwYIhgfjk/1wK52LBp32qgrHHytLgFgaopRXEN7D2sk5ZductKVQIVpx66208JprbMfSNzF4VC5aIJQFtGU/3EpnPOqMMeTGa2Q/pADg1268kTYrXAhsufdeWpU1q/qdDgPhdAWY5cAxJRkIByzSezsaE2cNGzomkpxcUjD9jxjCaU62gEjVnHSFnMgt6/NLAPuGAgVonsLKzisI6wh1ow1oi2xfEOXV+dUZjzptUM07+xKEdxQrZsshhbtjqp//UH27wdyOtgeY5cAxJRkIByzS+8GsXTxxPsiVi+YqvM+LCfkWT0ysgGSeIErVnHSlY5BeyEDYW3l1fnXGo04bVPNiJfz6TTcpQdi6Q8YX3Cp3W+Ad8BB4icxjyXwwK9UAsxw4piQXEH5OQHg6Q3gkQ7i3gbDLcHxEqVo12vvQQ7SnYkVH7XrwQXo3Xz6acfXVNJlNMpqms+kvy5GDdvAVrcwTRG3jC5FZf/+7rR9uhZzILevzS7srVKD1bKQvXnONrW1S0/icLeULp6SyZW15/BLqRhvQFtm+IMqr86szHnXaoJp3GgP11dtuUxoLuxmaHxUuTDMVxhi8Ax4CL5F59vKCAI8unXjuOfphwwbziJIIMMuBY0r6E8LDGMLjDISDEnKzjp+OHKH9I0bQzn79HLW1Z09ayLDunC0bteGTGk0d2UinMNA3d+9uyxNErXv2WeqeO7etH26FnMgt6/NLSX360Cq+yHouZ05b26Q6ZM1KY9l0N3XrZsvjl1A32oC2yPYFUV6dX53xqNMG1bzt+fgPv/9+2ti1qy2HVFLv3rSsSRN6ji+6ZR4peAc8BF4i80C7BgyggxMm0H/wdZoGwCkCzHLgmJIMhOMk/sNA3j9lCu0cNsxRWwYOpLn161PbXLmoGV8lR1Or7NlpwuOP0yaeVDJPEPURG0mnu++29cOtkBO5ZX1+afvgwbSiXTvqkDevrW1SLdkgR/BqZGP//rY8fgl1ow1oi2xfEOXV+dUZjzptUM2bwBfRiaVK0ceAo0OeSGGMvd6qFbXPk8eWRwreAQ+Bl8g8YcGD4EUmUgaY5cAxJRkIx0mkBeGtPHHm6UC4ShUDYQ2D9EIGwt7Kq/OrMx512qCa95k776TBZcvSBlUIt2ypDGF4CLxE5gnLQNg5wCwHjinJQDhOQgXC8xs0UIJw6xw5aHqNGrT5+edteYIoVXPSlY5BeiEDYW/l1fnVGY86bVDNCwgPLVdOCcLbBg2iJU2bUrvcuW15pOAd8BADYf0Asxw4piQD4TiJtCCsM9lQ5tWEBOs1Mk8QpWpOutIxSC9kIOytvDq/OuNRpw2qeS/fju7b15ZDahNfaE9+4gnrwlvmkYIvwEOi+YKBsHOAWQ4cU5KBcJyEEoSbNVOCMG5N4X0iQEDmCaJUzUlXOgbphQyEvZVX51dnPOq0QTWvFoQHDLA+/4G3oGQeKQvC7CEGwvoBZjlwTEkZBuGZL06nMWNHUr/+BsJehAqEX3vmGepx773WRI4mlFnKK+E1PXtaEz+jtL5PH0oaMsTWNiehHMrLHE5a1bGjEqigFrffbpWVfXZSn2LFrDbItvklryC8Y+hQ2pKYSOscjqUUyqAsXiPzSMHQJ1apQs8VKGA7llId77rLum3aPGtWW1/cSOf89ipShN7q1MnWZ7dCTuSW9TlJpw2q4xzHdYjie8IGwv4EmOXAMSVZEK5ejUaMdIbwIAPhYERaEIaJ4r2cdQpge79bN5pRsyZ15fMkTcONdKCGcigvczgJxgTzlabhJJSFmck+O0nnosELeQXh8OcDuhcqZDuWUiiT1vuAYWGMoX4VuL/97LPUv0QJa9Um++JGOudXB5Y60gGrThtUx7lZCQcvwCwHjikpEsITJzGEXzYQDmSkBWEdYWKOV5yYOoKRwHhkfU5COZSXOdxKpw2xllcQxsr2xdq1qU3OnLY8UiiDsniNzONGeHxmYOnSGQ5hnfMbhDHmRRt0ITypalWluW7eE05/gFkOHFOSgXCcREZDeNyjjypNTB3F2pwgnTbEWgbC+tI5v0EYY160wXpEqUwZpdvReOZ3Tt26SmMBn45e2Lhx1LsiBsLOAWY5cExJBsJxEhkJ4Y0M4bEGwjGXgbC+dM5vEMaYF20AhIc9+CBtUBgLGGP4rIjKBzbNc8LpDzDLgWNKMhCOkzAQVpNOG2ItA2F96ZzfIIwxL9qgsxI2O2b5E2CWA8eUZCAcJ2EgrCadNsRaBsL60jm/QRhjXrQBxxTH1mxbGZwAsxw4piQD4TiJ/3z/vYGwgnTaEGsZCOtL5/wGYYx50QbrESXFHbM8gTB7kYmUAWY5cExJBsJxEr8CwlOn0s4XXnAt7KKDT0e3ZAg35cmXUeoYNieHOqVQDuVlDrfSaUOstX3IEFrRvj21ZwjLfkg9E4Yw9vt2yBUpmCjA2poBK/NIoYwFYRivQ670ChBOZAi3YAjLOt1I5/wGYYx50YYEQDj8nrBDnZHaxhBeeuk9YZlHqg3eE8bjavh0tEMuCB4ELzKRMsAsB44pyUA4TgID/8C0abRr+HDXguFOq1mTWubIQU148mWUOrDZ4DllWZ+TUA7lZQ630mlDrJXEK4sVHTpQO4aw7IdUQhjCfAEl80jBRF+sU4daMWBlHimUQVm8RuZxIwDieYZwc4awrNONdM5vEMaYF23AMcUFzga+IJP1SWGuT3/qKaW53oZBvRiPKPHFocwTFjzIQNgeYJYDx5RkIBwngYF/cPp02j1ihGttYcOdUqMGPcMr4ca33pphssypb19bfU5COZSXOdxKpw2x1g5eWazo2JHa5slj64dUC179DGcIb0pMtOWR2sqrn5kMVhivzCOFMiiL18g8boSLBUC4GQND1ulGOuc3CGPMizY0u/12GlCqlAVhWZ8U5vqEJ56gBIW53ppXwktatKDtQ4fa8oQFDzIQtgeY5cAxJRkIx0lYEJ45k3aPGuVaW9hwx/PEbMETsxFPvoxSW17Rre7cmdZhV6U09NZzz1GPokWpPRtURgo5kVvW51Yf4zYwjMjheErt4BUDysscUmt5lfRqy5bUrXBhWz+kOhUoQKMefZTe69HDlkfqg549aWK1apbxynMk9Qwg/PTTtJVXP7IfUrtGjqTNbOrrHeqUerdbNxpaoQJ1zJ/f1hcpjJumDBbZNiehPPLLtjnpY74Q6Hnffbb6nIQ2NMma1Vafk3TagHIoL3M4qQkfA7RDtk0Kx/QFXJDxKlfWJ2XN9apVleZ6K4bwywkJlMQXhzJPWPAgA2F7gFkOHFNSBkJ4moGwh4GBf+jFF2nP6NGutZWvdCfzShgTsyFPvoxSYzaxNmwi7dgo0lJ3huXbbNTr2SgzUsiJ3LI+t+rBZr6BV6HyWErtZq1huOJiQOaQ6pAvHw1mUAGssh9Sa3lFtaBpU+pSqJAtj1Tbu+6iBIZro9tus50jKZSbWbcubRs2zNYXqS0Maly84YJA1inVlS8sXmvThj5iCMm+SL3dtSt1KViQGiu0F7nX8wWObJuTdjE0cM5kfU5azRduGLuyPifptAHlUF7mkMK5wnjABaRsmxQuLjbh7QPun6xPKnzOVOZ6q9y56eVnnqEkvoiUecKCBxkI2wPMcuCYkv6E8FAD4SDHrz/8QIdmzaI9Y8e61ja+0p1epw61YANuwJMvFmoLI2MzkW1zK+REblmfW6m2d/eYMfQhQ7gNg1DmkGrMK59+pUvTRjZUmUcqiVfhS9ggW7JRyjxuhDFgQZjHhKxTajMb+gsPPURN77zTlkeqdZ48tLJzZ9oJUDjkitTHvKJ7jqHdiC/iZB4p1fOgK51xo9MGnbzt7rlHOa+qtvAF9ziGcHOGsKxPCmPLgjCPNZknLHgQvMhEygCzHDimJAPhOAkLwrNn095x41wLhjuRV8LNsmWj+lmyxESA1Me8SpFtcyvkRG5Zn1upthdG9SGvWlsrtKHRJQhvGjzYlkdqx8iRtIgNMiFXLlseN2p+CcLbefUj65SCoQ97+GFqcscdtjxSrQDhLl1oF6+eZB6pDQzhzrzCBwhkHinV86ArnXGj0wav8qoKc31SzZpKcx1jCxd6GGsyT1jwIANhe4BZDhxTkoFwnAQG/uGXXqK948e71lY23NFVq1ITXtHU48kXC7XGaoLNV7bNrZATuWV9bqXa3j2sD/v1o1ZsqDKHVENA+IEHaBPDTeaR2sEryoUJCdSCjVLmcaNmDOEZ9erRdhivQ72R2jJsGA1lCDdmCMs8Us8Aws89R7v4okTmkfp40CDqyJ5RnyEs80ipngdd6YwbnTZ4lVdVO/ki6NW2bS3AyvqkmufMSXObNqUkHmsyT1jwIANhe4BZDhxTkoFwnIQF4blzad/Eia61dcQIGsUQbsQQfponXyzUig0H5ivb5lbIidyyPrdSbe/eCRPow/79qSVDWOaQasAQ7lumDG1muMk8UjvHjKGFvEppzmYq87hRU0C4QQPLeGWdUlv44m1o5crUkCEs80glAMJdu9JuXj3JPFIbBg+mDuwZdRnCMo+U6nnQlc640WmDV3lVtYuP/xudOlGL3Llt9Uk1YwjPYQjvYHDLPGHBgwyE7QFmOXBMSQbCcRIY+EfmzaP9kya51jZe9YQhXIcHQCwESG0YMsTWNrdCTuSW9bmVanv3sdYMGEDP5M1ryyFVP2vWZAhjEwSHXJHaySvKhS1bWkYp87hRk+zZLQjDeGWdUrh4G8IQbsAQlnmkYPoru3WjPXxRIvNIbRw6lNqzZwAEMo+U6nnQlc640WmDV3lVtZtXr288+yw15/Mh65PCBdmcZs2sCz6ZJyx4kIGwPcAsB44p6f/+z0A4LsKC8Pz51rZxbrWNVz0jGcINGcK1eQDEQs/AcNh8ZdvcCjmRW9bnVqrt3Td5Mq15/nlKYAjLHFL1GMJ9AGGGm8wjtYvNdGGrVtSUISzzuFHjMIQZ8rJOqa188RaGsMwjBdNf2b077eHVk8wjtXHYMGrHnlGHISzzSKmeB13pjBudNniVV1W7+SLozc6drfMh65NqEoYwr55lnrDgQQbC9gCzHDimpIyD8MxpNHoMQ7ifgbAX8euPP9LRhQvpwNSprrWdr3RHPvEENWAIP8UDIBZKgOGw+cq2uRVyIresz61U2wujWjNwILVgCMscUnUZwr0ZwlsYbjKP1C42U0C4CUNY5nGjRoBww4a0g41X1im1jVfLQx55hOozhGUeqea4Hc0Q3ssXJTKP1MYXXqC27Bm1GcIyj5TqedCVzrjRaYNXeVW1h1evb3bpQs0YwrI+qcaAcPPmtJMv+GSesOBB8CITKQPMcuCYksIQHj7CJYRnXIJwXwNhT8KC8KJFdGD6dNfazquekdWqUX2GcC0eALFQwt130wZsg+fQPjdCTuSW9bmVanv3T5uWDGE2VJlD6ukwhEeNsuWR2s1muqh1a2rMEJZ53KghINyoEe1kyMs6pbbxxdtghnA9hrDMI9WMIbyqRw/ayxclMo/UphEjLAg/xRCWeaRUz4OudMaNThu8yqsqQHhpp07UJFcuW31SjRjCcxMSaNfEibY8YcGDDITtAWY5cExJkRCeMHEcLTEQDmZc5IF/bPFiOjhjhmvtYMMdV7u2BeGat9wSEwFSG7ENnkP73Ag5kVvW51aq7YVRrR00iJrzSljmkKpz223Uq2xZ2spwk3mk9vCKckn79haEZR43asAQng4Is/HKOqVw8Tbo0Uep7u232/JINeWV16pevWgfX5TIPFKbR46kdoUKWRCWeaRUz4OudMaNThu8yqsqzPUJdeoozfXGPLYWt2tnjTWZJyx4ELzIRMoAsxw4piQD4TgJDPzjS5ZYO9Y46eDMmbSHVx2beVW1iU0tmtYOHmxBuE3BgtSCr75joS4lStCWSzvwZKSQszPnlvU5qRmDshYbfw02oLTUnA0Sx07WJ4XzsG7oUOpcvLitPqmW+fPT4Mceo+3jx9vySO2dOpWWdu5MHYoUseWRQlvrM1xr8uSW/ZBCuemNG9MuXjHJOqXQTkD4aYawzCPVBBDu3Zv280WJzCO1mc9Z+8KFlc5FU15hv923r21MOwlj4QCDQ9bnJJTHcZP1OUl1LEBoA8a6PEdO6lSsGL07YICtH07ajrcPFPoGCI+uWZPqMoRlP6QaMYSXdOhgjTWZJyx4kIGwPcAsB44pyUA4TsKC8MsvWzvWOGkvrzhg0u3YzJqxSURTOzZylN3AV92bAO0YaAuv/g4wsGQ/3Ao5kVvW56S3+/WjJmzq1dmA0hKOG14j63PSfjZH1TYAbCrH4SAboHWRxaYuc0itHTLEusiC8cp+SNULQ5hXP7JOqe1s6IBwHYawzCPVmCG8uk8f61jIPFLoU9t776UaDGGZR6oml8E5k2PaSc/yhRDOg6zPSThueI2sz0k6Y0FnPALAHRnEsh9SCfny0cBHHkm+eHOoM1I7Jk60IPy0wlhoCAh37Gh5icwTFjzIQNgeYJYDx5RkIBwncfGnn+jEq6/S4dmzHbWPVxxLOnWiBjyRqvGEiqaGbJBvdu9O+9kgZJ6/kjax+TdlU5PHx0koh/IyRxC1m1cy05s0oboMWNkPKZRBWbxG5pFKYkMfyCv3pxjCMo9UI6yEecV6gC8eZB6pLWPHUutChag6m5HM40Y65ywIY0G1DTVvu426PfAAbcPmGQ55IrWTL65G1apFdRjCMo8UvAMeAi+RecKCB8GLTKQMMMuBY0oyEI6TsCC8dCkdnjPHUfsYqEuefZbq80R64uabo6pBrlz0Zo8etB8G6ZDrr6JNvEJpwqYnj4+TUA7lZY4gajevZKY3bUpPZ8tm64cUyqAsXiPzSCVNmmRBuFbWrLY8UrjQW9WvHx3g1ZPMI7Vl3DhqzSvhamxGMo8b6ZyzIIwF1TbUuPVW6l62LG2bMMGWQ2rnlCk06qmnqPYdd9jySME74CHwEpknLHiQgbA9wCwHjinJQDhOAgP/5Guv0ZG5cx21j4G6mK9i6+bIQVV5QkVTPZ5sS7t2pf1skDLPX0mb2fwbs+nJ4+MklEN5mSOI2jNjBk1v1ozqZMtm64cUyqAsXiPzSO1gQ09kCNdkCMs8Ug0A4f796SCvnmQeqa0Mk9aFC9OTbEYyjxvpnLMgjAXVNtTglXCfSpUoiVe5MocULq7G1a1rQVjmkYJ3wEPgJTJPWPAgA2F7gFkOHFOSgXCchAXhN96go/PnOwoTZ06bNlQne3aqwhMqmp66804aV68e7WbjlXn+Stoyfjw1YtOTx8dJKIfyMkcQtZdXMtMYrLWzZbP1QwplUBavkXmkdk6dSomPP041GMIyj1R9vCc8YAAd4tWTzCMFCD9TsCBVveUWWx430jlnQRgLqm2oxivhHg8+aEFY5pA6wBdBr3brRnX5wlvmkYJ3wEPgJTJPWPAgA2F7gFkOHFOSgXCcBAb+qTffpKMLFjhqH0+2l3gC1eaJ9PhNN0VVzdtvp5G1aydD2CHXX0Vb2PwbsunJ4+MklEN5mSOI2ssmOq15c+tiS/ZDCmVQFq+ReaR28qrqeYZwdV6JyTxS9XLlotXPP0+HePUk80htnTiRWrBnAAQyjxvpnLMgjAXVNgDCPStUoCRsnuGQJ1IH+SJoWe/eFoRlHil4BzwEXiLzhAUPMhC2B5jlwDElGQjHSVgQXraMji1a5Kj9L71EL7VtS0/xRHqMJ1Q01QCE69Sh3bz6kXn+StrC5g/Tk8fHSZbxcnmZI4jayyYKsNZiwMp+SKGMBWF+jcwjtZMv2gDhagxhmUeqLiCcmEiHefUk80ht5RVdc/aMxxnCMo8b6ZyzIIwF1TY8idvRlSvTzunTbTmkDs2bR8v69KGnGcIyjxS8Ax4CL5F5woIHGQjbA8xy4JiSDITjJC7+/DOdWr7celjeSfv5inf2JQg/yhMqmqozhEcAwrz6kXn+StoyaRI1YNOTx8dJKIfyMkcQtY9NdFqLFlSTASv7IYUyKIvXyDxSO/mi7fkqVSwIyDxSdXE7euBAOsyrJ5lHauuUKdSsYEF6jCEs87iRzjkLwlhQbcMTWAlXqkQ7AGGHPJE6xBdBb/btS0/zRZHMIwXvgIfAS2SesOBB8CITKQPMcuCYkjIQwlMZwiMYwr0MhD0IDPxPVq60HpZ30v65c2l2u3ZUiyfSIzyhoqnaJQjv4dWPzPNXEsy/PpuePD5OQjmUlzmCqH1sotMSEqhmtmy2fkihDMriNTKP1C6+aBvAEH6CISzzSD0NCA8aRIcXLrTlkdo2dSo1Zc94lCEs87iRzjkLwlhQbUOVLFnouQcfpB0zZthySOEiaFm/flSHISzzSME74CHwEpknLHiQgbA9wCwHjikpGcJPMoSHMITHMoQXGggHMSwIr1pFx195xVEH+Ip3TocOlqlWvvHGqAKER9evT3t49YPXHnv5ZSWplJXtioVkm1Jr+xY2vXp589qOj5NQDuVlzsi8TnVIOZWR7XerfWyiAGsNXuXKfkihjAVhGK9DrkjtmjWLBlStSk9kzWozcClA+C1AGLcxHY5DpLZOm2athD2BMANe9sNJKKczFlTz6gg5VSBcFY8o8Up4J3awcsgTqUN8EbS0Vy96KkcOWz+k4B3wEHiJzBMWPMhA2B5glgPHlGQgHCeBgX969WrrYXknHWKzW9ytG9Xkq9mHeUJFU3Wsflq2pI/GjrXAsmnSJFo/fnyq+njCBKvMFjYJ/IufZRloI//tKF8ty7b5qSNc/8aJE1O0y2o79xO/3xDR9hWJifQUrxDk8XFSbbzHyVC5fExYmydPtoSckcdHHpcU7bhUBq/Ba7djU3wGkeyHG+1nE536zDNUjQEr+yGFMiiL18g8Unt5tYyLt4QiRagJQxNqzHO9UYEC1DB/futf/Izfty1Zkt7gFVj4mMtzEql3hg2jrhUqUNNChWx5rXyXcqb43aVysjza0fhSmQ4PPEA7Zs609cNJ2/hCoC7DVR4fJ6EcysscboW2os1O/YtU88KFaWD16rSbL6JlDilcXI1p2JCe5Atv2Q8peAc8BF4i84QFDzIQtgeY5cAxJRkIx0lg4H/61lvWc3pOOrx4MS3p0YNq8BVvJZ5Q0fQwrziq84SrnScP1cGXz+O7b/n/qalORDlLDmWglsWL0w6+Opdt81OoH+1I0f5U2l4LAOZjIY+PkypzOZR3zCvqkMfFVv7Sa+rny0f9n3iC9jDcZD/c6MCCBTSVL7KeZMDKfkihDMriNTKP1HE24b1s6kkMi+0zZkQVLvB6P/oo1b/nnsvHRx6PsBKKFqW3GcQyh1vtxDaL3GbZDydt4/JP8ypUHh8noRzKyxxuhbaizbIfUjj+GDMqfds3bx4Nr1uXqjKEZT+k4B3wEHiJzBMWPMhA2B5glgPHlGQgHCfx27/+RZ++8w6dfP11Rx3m1dSSnj2pOk+kijyhYqE6MCc2CNk2P4X60Q7ZtiDqkSxZ6Nny5WkXr2hkP9zoAK9kprZqRU8wYGWdUiiDsniNzONG6BP6hj7KOqVqM6A/njSJTsDoHXL5IZ1xE4Rxrqp98+fTCwzhKgxh2Q8peAc8BF4i84QFD4IXmUgZYJYDx5RkIBwngYH/2bvvWs/pOenIK6/Qkl69qBqvcCv84x8xEcx0O69EZdv8FOpHO2TbgqjKPPksCPOqRvbDjQ7ySgZgrXrHHbY6pVAGZfEamceN0Cf0DX2UdUo9xavhjydPphNvvGHL45d0xk0Qxrmq9i1cSC/Uq0ePZ81q64cUvAMeAi+RecKCBxkI2wPMcuCYkgyE4yQsCL/3nvWcnpOOvPoqvdy7Nz3JE6k8T6hY6CmY06xZtrb5KdSPdsi2BVEP8+TrBAjPnWvrhxsdXLKEprZuTVUYsLJOKZRBWbxG5nEj9Al9Qx9lnVK1GMIbGMInYfQOufyQzrgJwjhX1b5FiywIP8YQlv2QgnfAQ+AlMk9Y8CADYXuAWQ4cU1KGQnjUaANhrwID/8z779Mny5c76ujSpbSYr2Kf4In0IE+oWKgWm1PS7Nm2tvkp1I92yLYFUQ/x5OvIoNo9f76tH2506OWXLbA+zoCVdUqhDMriNTKPG6FP6Bv6KOuUqgkIT51qmbzM45d0xk0QxrmqDvDF1egmTeix22+39UMK3gEPgZfIPGHBgwyE7QFmOXBMSYBwNYbwC8PdQHgHQ3hGMoT79DUQ9iIw8M9++CGdXrnSUUd44rzUpQtVufNOKnfDDTGRZU4vvWRrm59C/WiHbFsQVemWW6hjhQq0Z8ECWz/c6BCvZKa0aUOPMWBlnVIog7J4jczjRugT+oY+yjqlauTOTR9PmWJtBCHz+CWdcROEca6qY6+/TksHDLAAK/shBe+Ah8BLZJ6w4EEGwvYAsxw4pqRICI+fMJYWLzEQDmRYEF6zhk6vWuWoIzzZZnfuTI/zRCrLEyoWqglzmjvX1jY/hfrRDtm2IKpiGMILF9r64UaH2USntG1rAVbWKWVBmMviNTKPG6FP6Bv6KOuUqs4QXo+VMIzeIZcf0hk3QRjnqjq+bBktGzKEnsiRw9YPKXgHPAReIvOEBQ8yELYHmOXAMSUZCMdJ/Pbvf9PZtWutRwScdPSNN2gWX8U+xhOpDE+oWKgGm9OOefNsbfNTqB/tkG0LoiowoDoAwosX2/rhRofZRAHWRxmwsk4plLEgjE++OuRKr9An9A19lHVKVcMHs6ZPtzaCkHn8ks64CcI4V9WJ5ctp+dChVJUhLPshBe+Ah8BLZJ6w4EHwIhMpA8xy4JiSDITjJDDwz61bR5++/bajjr75Js167jl6hCfSAzyhYqHqMKf5821t81OoH+2QbQuiHmRAtQeElyyx9cONDrOJTmnXjiozYGWdUiiDsniNzONG6BP6hj7KOqWexHvCM2bQJzB6h1x+SGfcBGGcq+rEypW0fNgwqpIzp60fUvAOeAi8ROYJCx5kIGwPMMuBY0oyEI6TsCC8fr31iICTjvEV70vdutFj2bNTmRtvjIlq3H037Vy40NY2P4X60Q7ZtoxQKTaqUtdfn6ZKczn5WidVyJKFOlSqRPteecXWDyfhGU2AKi0d4lXtZAbro9my2eqUQpmpHTrQUXzy1aHO9Ap9Qt/QR1mnVPW77qJNs2bRae6fzOMk2d+M0HZe2eJiQJ5LJ6EcysscqUm230+dXLWKljGE4QuyH1K4IJvVtavlJTJPWPAgA2F7gFkOHFOSgXCcBAb+5x9/TGfee89RmGzLhw+ndhUrUrP774+JOj/yiGW+sm1+CvV3fPhhaurQPjdqULQolb35ZirJZhVNMLMHeVI15PIyh1RC6dI0uGFDOsjQlP2QAoAPLF1Ka6ZMofcmTIiq1aNH04Q2bahV2bK2OqXali9Pi/v3p+O8YpJ1uhH6hL6hj7JOqWcrV6akBQssk5d5pE6tXk0fTZtm67NbvTpwID2WI4ftfDoJ5VBe5nAS2oo2y374JayEF/TpQ4/wxZbsh1RlXgnP7dmTjq9YYcsTFjzIQNgeYJYDx5RkIBzU+OMP+v2XX+ji+fN08dw5+uXUKTrDk+M0G/GnYcN8//3L+ox1gif7Pv77HgZRLLQfbYORRrTLb53m+r04BmumTqXHc+em+9msogmr5Zr589NaNl+ZQ2ov6yBuA4tz6aSTvKJ6fehQevree+nxXLmiqka+fDS8WTPaMneurU6pfa++Ssd4POH5T1mnG6FP6Bv6KOuUwrjBKljmcNKel1+mRsWL2/rsVo9gpfiPf9jOp5NQDuVlDiehrWiz7IdfOrxsmTUWKtx2m60fUpUZ1IsHDLB85HIOPo/wG/jOJzxW4EHwIvgS/Ak+ZcJAOFPGH7/+Sj9v2UKf8AQ6UaMGHatWjXbii7yrVqXDfBX+GU8UPC5g5I92LVlCVfPmpRJsVtF0P0P4qYIFaTcbr8zhRoDwIjbIh9koZZ1S5dlwhzZtSoeXL7fliXepnoegCG1Fm2U//BIgPKRRI2tMyLZJVcaOWYmJ1lgLvx4+A7+B7yQ9/LDlQfAi+BL8CT5lwkA4U8bv//kP/fjRR3Ts8cfp8P3300HW9vvuo+1lytCh3r3pM0yUNWuMfNIuhmoVNtTi110XVSUYwrUAYV41yBxudPLtt2lh//700J132uqUevDWWy0IH+FVi8wT71I9D0ER2oo2y374pcM8BgY3bmyNCdk2KVzgLWHgnnznncuvh8/Ab+A7W4sVszwIXgRfgj/Bp0wYCGfKSAvCZ/BJRf67kT/axVCFod7HZhVNxXE7miG8Z+lSWw43OvXuu7SYVykPsVHKOqXKAcK8UjmyapUtT7xL9TwERRaEuc2yH37pyMqVFoQxJmTbpDC2lgwaZI218OvhM2EIbzMQTjXALAeOKclAOKCRGoSTeDIc7tOHzmCirFtn5JN2MVQfZ0MtxmYVTfcxhGsAwq+9ZsvhRqfef98yyEpslLJOqbJsuEOaN6cjq1fb8sS7VM9DUIS2os2yH37pKI+BYTwWAGHZNimMrcWAMI+18OvhM/Ab+I6BcOoBZjlwTEkZCOEpDOHhDOGeBsIZEE4QTroE4SN9+9LZS59UNPJHuxmqj7GhFmWziqZi11+fDOHXX7flcKNPPviAFg0cSBXYKGWdUmUuQfjoW2/Z8sS7VM9DUIS2os2yH37pJPvEbF7Jlr/jDlvbpCrg09H9+1sQDr8ePgO/CUMYHmQgbA8wy4FjSvoTwoMZwmMYwgsMhIMQjhAuXpx2lC1rTYpzPFG+2LDByCcBqo/myUNF/v73qCoKCBcqRHvffNOWw40A4fmJiVSejVLWKfXAJQgfe/ttW554l+p5CIrQVrRZ9sMvfbpmDb05ejRVzJ7d1japB/GcMAMbEA6/Hj4Dv4HvWHfi2IMMhO0BZjlwTEkGwgGNaBA+2q8fnWNT/mLjRiOftOeNN6gyG+q9bFbRVIQhXKtIEdq3bJkthxt9wmYKCD/IEJZ1SpUGhFu0oGPvvmvLE+9SPQ9BEdqKNst++KXP2ENWjBtHFRjCsm1S5RjCLwLCH354+fXwGfiNgXD0ALMcOKYkA+GARlQI9+9Pn7Mpn9+82cgn7WGoVs6blwqxWUVT4UsQ3r9ihS2HG51eu5bmDxxI5RjCsk6pUgzhwQkJdPy992x54l2q5yEoQlvRZtkPv/TZ+vW0Yvx4Ks8Qlm2TKgsI9+ljXfCFXw+fgd8YCEcPMMuBY0oyEA5oOEF4B0+AneXK0bEBA+hzNuXzW7ak0LlNm6xJ96mRkj77+GP6QhzD1LSXoVqVx3WJW26JqvuzZKHaOE/YhMOhTqkzim04vW4dLRo6lB7mlZWsUwqGO7x1azrBqxiZRwp1n92wQWncoAzGmMzhJORF32QOt0paupQeyp2bCl57bYYKECp+8822Y+kklEN5mcNJaCvaLPvhl07wqva1UaPowWzZbG2TKnP77fRi3770SYS3wGfgN/AdvB8MDzIQtgeY5cAxJRkIBzTSgvAX/Lcvt227rM/5qnX38uX0xtix9MqIEUYKWj5hgmVUkccxNR1noA1r1Yp61asXXfXrW6vQhUOG2OqTepXN8d0ZM6yLAVmf1NmNG2nNnDk0sEULe51CA5o0oddGj1bqG/JuWLSIXhszxtY+qTfHjbMuRjDWZB4p9Al9Qx9lHjeaySu1Mrxi+ydDIyNVgo2wU7VqtmPpJJRDeZnDSWjrDG6z7IdfwoXbwObNqeStt9raJvUAQ3g2r3pxwRc+j/AZA+G0A8xy4JiSDIQDGlEh/PzzdJ4N9sL27Zd1hs0URorVWll8p7BRmqpZrBgdeOutFMcxNZ1nQzqxZg0dYxhH09H336eP5s2jaoUL2+qTqpArF3WqXp2OvveerT6pL1lneRWq0obj2OnoEthlHqmTvNIZ1bEjVb77blv7pKoWLEiv80UexprMI4U+oW/oo8zjRg8w1Apedx0VYGhkpNDOjYsX246lk1AO5WUOJ6GtpRlush9+qQzrfgawyjFD2UXDhtFnGzZcPo/wGfiNgXD0ALMcOKYkA+GAhhOEd/IE2MWT4XhiIp1nk72wY8dlnWGDXsJXvg/wRMrPE8oobVXMk4f2rV6d4ji61Xk2rq2vvUYVcue21SdV+MYbqcXDD9NhQNghlx86wRAe1LIlFc+SxdY+KYytRS+8QJ8Bwg65IoU+oW/oo8wTROmMBZRDeZkj3oXzCw+Bl4T7Cp+B38B3djCE4UEGwvYAsxw4pqQMgXASQ3g6Q3jkqOHUu4+BcEZEVAgPHEhf8tXqVzt3XtaZzZtpyciRVJonUr5rrjFSUNh4I4+jW32ZlGRBuDyvlGR9Uvf+4x/UnEF1hFfPMo9fOsljDBC+j41Atk+qNK9CF/BKCSYt80ihT+gb+ijzBFE6YyEMYZkj3gXvgIfAS8J9hc/AbwyEoweY5cAxJVkQrvYkDXthMI0bP4YWLTYQDkREg/CJQYPoSxjhrl2XdWbLFloyahSV4ol0D08oo7RVAcb79tspjqNbfcnGte2NN+hBhrCsT6pQGMIffGDL45dOrl9PAxnCxdgIZPukSjGEF2GlxGNN5pFCn9A39FHmCaJ0xgLKobzMEe+Cd8BDIs8vfAZ+YyAcPcAsB44pyUA4oOEE4V08AXZfgvAFvlr9es+eyzq7bRstGT2aSvJEupsnlFHaepCNdP8776Q4jm51gY1r25tvUrncuW31Sf2TAdUMEF6zxpbHL536+GMa2KoVFWUjkO2TwthazCZ9dutWWx4p9Al9Qx9lniBKZyygHMrLHPEunF94CLwk3Ff4DPwGvrOTIQwPMhC2B5jlwDElGQgHNKJB+OTgwXQBRrh372Wd3b6dFrFBluDVSl6eUEZpqxyM9913UxxHt7rAxrV92TIqyxCW9UkVYEA1rVyZjqxda8vjl05t3GhBuDAbgWyfFMbWQl4JY6zJPFLoE/qGPso8QZTOWEA5lJc54l04v/CQyPMLn4HfGAhHDzDLgWNKMhAOaESF8JAh9BVfrX6zf/9lneGfZ/EV631Zs1Keq682UpBlvO+/n+I4utVXbFzbly+nMrly2eqTyn/DDRaojvJ5lnn80iebNtHA1q0tCMv2SRW//XaaP3w4nU1KsuWRQp/QN/RR5gmidMYCyqG8zBHvgnfAQ+Al4b7CZ+A3BsLRA8xy4JiSDIQDGhLCh8IQfvBBOjV0KH3NV6vfHjhwWTDGmQMHUjGeSLl5QhmlrbJspAc++CDFcXSrr9m4tq9YQQ8whGV9UvkYUE0eeYSOrV9vy+OXPtm8mRIZwveyEcj2Sd3HEF4wciSd27HDlkcKfULf0EeZJ4jSGQsoh/IyR7wL3gEPgZeE+wqfgd/Ad6zPpLDgRQbCKQPMcuCYkgyEAxpOEN5dogTtCUMYRnjo0GWd5Z9n8lVsUZ5IuXhCGaWtMjDeDz9McRzd6ms2ru0rV1JphrCsT+oeBlRjXi0e+/hjWx6/dHrrVkps04YKsRHI9kndh9vRo0fT57t22fJIoU/oG/oo8wRROmMB5VBe5oh3wTvgIfCScF/hM/Ab+I61CGAPMhC2B5jlwDElGQgHNKJCeNgw+mbnTvru8OHLOsc/zxw8mIrcdhvlvOqqqMKEu/v666ngLbdY5puZ9M+bb6bc11xj67OTHsidmw6uWZPiOLrVNwcPUtKqVRaEZX1SOAcWhDdssOVxI5jnhX37rDEBQ42mQ2vXUt+EBOu4yfZJFcPt6FGjLAjLOqVObNxIrapVs14jz5Ff8mosHOJ5WblQIVt9bqXTXi8E74CHYNyE+wqfgd8YCEcPMMuBY0oyEA5opArh8uXpkxdeoG9ghEeOXNY5/hkTqDBPpBw8oaIpL5v/E5yrf+vWNKRTp0ylXs2bU0Ee1LLPTioN42UIRR5Ht/qGjSvprbeoFENY1id1F5+HRo88QscZWDKPG13Yv582vfmmNR4m9+8fVaO7d6fabLB384pVtk+qKAN14Zgx9MWePbY6pc7yeFzAZV/o0sV2jvySV2Phs6Qkmtivn60+t9JprxeCd1gQjvAW+Az8Br5jIJx6gFkOHFOSgXBAwwnCe3gC7AWEhw+nb9kIvz927LI+559nDR1KhbNmpew8oaKpAK+AAeCDnP8zXg1lJm1bvZpKMgBln51UKk8eOrhuXYrj6FbfsnElvf22UhtwMWRBeNMmWx43Ord7N00dOJDK3HUX3XvrrVFVMEsWugsAvvpqW/ukiuA9YUB4715bnVI4DhiT8vz4Ka/GAvqGiwxZn1vptNcLwTvgIThvl/vK/4ffwHd2M4ThQQbC9gCzHDimJAPhgEY0CJ/mSfEdG+EPx49f1pe8+lk0fjwVZqPMxhMqmorceSe9Nm0aXThwIEWOzKBD69dTSTZU2WcnoRzKyxxu9B0b14533qESbKayPqncDOGGDOETW7bY8rjROTbOcX370j8ZsrJON8LYWshj7DyPNVlnEBXrsaArnfZ6IZxfeAi8JNwm+Az8xkA4eoBZDhxTUgZBeOslCL/AEO5hIJwBERXCI0bQd/v20Q8nT17WlwcP0pJJk+henkh3XHllVAHCK+fMoa8OH06RIzPo0Mcf0/25c9v67CSUQ3mZw42+Y+Pa8e67VJwhLOuTynXdddQAEN661ZbHjc6xcQLCBXiVK+t0o0JYCY8bR+dx8eZQb9AU67GgK532eiF4BzwEXhJuE3wGfmMgHD3ALAeOKSkZwk8whAcxhEc7QLi/gXAswgnCe3kC7OPJ8OnIkfQ9G+GPp05d1oVDh2jJ5MmWUd7OEyqaCgPCc+fS10eOpMiRGXR4wwYqwUYm++wklEN5mcONvmfj2vHeexaEZX1SOQHhRx+lk9u32/K40edsnOP69aP8DGFZpxthbC2aOJG+5LEm6wyiYj0WdKXTXi+E8wsPgZeE2wSfgd/Ad/YwhOFBBsL2ALMcOKYkA+GARlQIjxpF3/PV6o+nT1/WBQbqkilTqCBPpKw8oaLpXkB43jz6+tixFDkygw5v2kTF2chkn52Ecigvc7jR92xcO99/n+5jCMv6pHIwhOsDwklJtjxu9DkbJyCcjyEs63QjjK3FWCkdPmyrM4iK9VjQlU57vRDOLzwEXhJuE3wGfmMgHD3ALAeOKclAOKARDcKf8aT4ga9Wf/r008u6cPQoLZk6lf7JE+k2nlDRZEF4/nz65vjxFDkygw5v3kzF8+Sx9dlJKIfyMocb/fDJJ7Tzww+pGENY1ieVPQzhHTtsedzoczbOcf370z0MYVmnG2FsLeCVMExa1hlExXos6EqnvV4I5xceAi8Jtwk+A78xEI4eYJYDx5RkIBzQSA3C+wHh0aPpBxjhZ59d1gVe1S7iq9gCWbPSrX/7W1Rhsr324ov0NSAckSMz6PCWLXQfryZkn52Ecigvc7jRD2xcO9esoaI5c9rqk8rGEK732GN0cudOWx43+pyNc+yAAXQ3Q1jW6UYYWxaEeazJOoOoWI8FXem01wvh/MJDIs8vfAZ+A9/ZayCcaoBZDhxTkoFwQCMqhMeMoR/5avXns2cv60ueODP5ijXfbbdRFp5Q0ZTn5ptpYJcudI5XTJE5MoOObN1KxdjIZJ+dhHIoL3O40Y9sXLvWrqUiDGFZn9SdDOG6DOFTu3bZ8rjRF2ycY59/3oKwrNON8rNJz2cIf8UXb7LOICrWY0FXOu31QvAOeAi8JNwm+Az8xkA4eoBZDhxTkoFwQMMJwvsA4QoV6MzYsfQjT5R/nTt3WRfYGGeMHEl380T6P55Q0ZTrppuoT/v2dI5XTJE5MoOObttGRdnIZJ+dhHIoL3O40U9sXLv4vBXJlctWn9QdlyD8yZ49tjxudJ6NExC+iyEs63SjfIDwpEn09YkTtjqDqFiPBV3ptNcLwTvgIfCScJvgM/Ab+I71dpiBsGOAWQ4cU5KBcEAjNQgfuAThn2CEX3xxWRf45+k8ge7iiXQLT6hoyskQ7g0IHz6cIoeTfuKJ+CVPSpQ9y9COhT7HrXeYgkP7pI4mJVERNjLZZyehHMrLHE5C/WiHbJvUmYMHacNbb1GZQoXorltvjap/ZstGLWrXpk/377fV50bn2TjHJiZSXoaw7LMbwaRn8dg7wSt32W83wnH9kS9eZD/c6vjOnVS+aFHbcXcSyqG8zOFWquMG82vXunVUrnBhW9vcCGMA8z3LVVfZzqcUvAMeAi+53H7+P/wGvgP/MRB2DjDLgWNKMhAOaESF8Lhx9NPJk/Tv8+cv66tTp2j6qFGUlyfezVdcEVU5AOEOHegcm0NkDid9yZNw5pgxVvkebdvGRMN697aMTLbNSUd37KDCDFfZZyehHMrLHE5C/WiHbJuT+nbqROMHD6ZJw4ZF1dQRI2jZggX09Sef2OpzI5yzMQMHUm6e3LLPbnTH9dfTU48+Ss+1bGnrsxsN7dWLTuNCxKEvboTjMJdX7vK4OwnlUF7mcCvVcdOzXTsa1L07TRgyxNY2N8I47NS8uTXn5fmUgnfAQ+Al4fbDZ+A3BsLRA8xy4JiSDIQDGqlCuGJFOjt+PP2MiXLhwmV9xUY+ffRoysMT6UaeUNGU/RKEPz96NEUOJ50+cIAaVK9u5c12440xUamCBen47t22tjnpKK9m7mW4yj47CeVQXuZwEupHO2TbpHLcfDNVgllt3kwX+BylpW8+/ZT+9eWXtvrc6Es2TkA4F09u2Wc3uolXS1mvu87WZ7cqyX6xd+NG+hnG79Cf9Ar5MC/kMXcSymV0/ZDquIFQDsdBts2NzvJFwNI5c+ju22+3nU8pzHF4CI5FuP3wGfgNfMdAOPUAsxw4piQD4YCGE4T38wQ4yJPh3IQJ9K/Tp+mXr766rK/555ljx1Junkj/4AkVTdkZFIndutF5vvKPzOEkQLgWr36yXHutLY9fKsSwPLZrl61tTkI5lJc5nORF3puvuorKFSlCJ/bsseXwSzDfMYMGUU6e3LJ9QdQ/c+akXR9/bF2MyL7Eu1THDaQzHlX13Zkz9Nq8eXQXQ1jWJwXvgIfAS8Kvh8/Ab+A78B/IQPj/2TsP8Kiqdf3zv+fcez16ju1c67FiV6T33iGE3ntXqtjAXlAQRcFCsyAg0hVErKiA9B5qeq+kEEJCr3n/37vCxGHPJuxJMiGB732e98lkZs/abc33W9/aa6/tKTLLhmOOXGgQnvapQHi8QriwlCeEP/kERyWDOpGenuuDiYmY+8UXKH3LLbj2b3/L0/fxFqXZs5GZlHReGXaODw5GpxYtDISt5RSVH2NwkozCum125nJc3lqGnX1R7vWSLVYrUwaRu3d7lFFU3i+Bc8Lbb+Mu+XFbt684mhDeuWEDjknQt+5LSbfTekN7Ux+dmr0ib44ciTtuuMFjfVYzdjCGMJa4vs84w3ijEM5bZJYNxxw5F8LvFBaEX1IIF4bygvA++VEckxbuiYyMXB/ctw/zZ8xA6Vtvxb/kB5WX77/9dvy4aBGyUlLOK8POCWFh6Nm+PW665hqPcorKJjgRajbbZzWX4/LWMuzsi3KvEwhXfuwxRO7d61FGUXm/BE5C+E75cVu3rzj6EYHwro0bcezAAY99Kel2Wm9ob+qjUydHR+PFp57C7ddf77E+qxk7GEMYS1zfZ5xhvFEI5y0yy4ZjjuyC8FhC+EOFcLGRHYQD+QMghCdNwjFprZ7MzMx1ZnKy+QHdKz+kf8oPKi/fRwh/+y0OpaaeV4adE8LD0b1dO/yfQNhaTlH5UQlOEXv2eGybnbkcl7eWYWdflHutQLiSZMJRgYEeZRSV90vg/GDMGNwhP27r9hVHP0wIb9qE4xL0rftS0u203tDe1EenTomJwQsjRuA2gbB1fVYzdjCGMJa4vs84w3jDuMP4Y2KQQthDZJYNxxxZIVxMlReEkydPxnFprZ7Mysp1pgB1/syZuFt+SNfIDyovlyaEFy/Gof37zyvDzvEC4fYtWuCGq6/2KKeo/DCDE6Fms31Wczkuby3Dzr4o958C4YqSCUcFBXmUUVROl8D5wdix+I/8uK3bVxz9ICG8ZQuOM/Db7E9JttN6Q3tTH506JS7OQPgWgbB1fVYzdjCGMJa4vs84w3ijEM5bZJYNxxxZIVxMlSeEp0zBcWmtnjp8ONdZaWmYP2sW7rrlFvzjv/4rT99zDsKH09PPK8POiVFR6NK2rYGwtZyi8kP33INIgZp12+zM5bi8tQw7+6Lca/7+9xwIh4R4lFFUTk9KMhC+/d//9ti+4ugHzkH4hAR9676UdDutN7Q39dGpU+PjMerpp3Hzddd5rM9qxg7GEMYS1/cZZxhvFMJ5i8yy4ZgjK4SLqewgHCQ/gBD5MaTIj+JESgpOHzmS6yzJaufOmIE75Yd0lfyg8vJd0uL9Zu5cA2H3MuycFBODHp064YZrrvEop6j8kGQIkcHBHttmZy7H5a1l2NkX5V4tEK5QpgyiQ0M9yigqH5DA+cE77+A2gbB1+4qjCeHd27bhpAR9676UdDutN7Q39dGp90uD7I2XXsItN9zgsT6rGTsYQxhLXN9nnGG8Ydxh/KEVwp4is2w45sgK4WKqPCE8dSpOSGv19LFjuc6U/z+bPBm333QT/ld+UHn55uuvx2svvoj9+/adV4adE6Kj0drPD9f+4x8e5RSVH2RwkszSum125nJc3lqGnX1R7tUcmFWuHGLCwz3KKCofkMD5vkD4VoGwdfuKo+8nhLdvx0kGfpv9Kcl2Wm9ob+qjUx/OyMDi+fNNw9u6PqsZOxhDGEtc32ecYbxRCOctMsuGY46sEC6mskKYDuLfBg2QOm0aTkpr9czx47nOlP+nTZqE2+SE/o8c+7z87+uuw8hnnkGaQNi9DDsnSCbs36wZ/nXVVR7lFJUfuOceRElmad02O3M5Lm8tw86+KPcqdkeXLWsgbC3Daga5Y1lZSOXgl7i4QnOEZFPjx47Fow88gDskuyksM0i7GmPW/bb6qr/9DTdL9vUfTvJiU5a7K0mjZZ3U9aTYWI99KekO2LwZVcqX99hnO1evVAmxEREe9aQgPpqZiZ+WLsVdt93mcY6sZuxgDGEscX2fcYbxhnGH8cfEIIWwh8gsG445ciFCeLJA+B2B8EiFcCHIDsJsgYYSwp9+ipPp6Tgjy7iceeAApkkr9lY5of8txz4v50I4Ofm8MuycIIGxhUD4nwJhazlF5fsJS0LNZvus5nJc3lqGnX1RLiFcpUIFxEZGepRh9YmjR7E7IADDBw9Gz65dC819e/bEG6+8gtkzZmD+118Xmj+bMgUN6tRxVBduvvFGvC7bMGfmTI9yrJ7x+ecYPHAgenXr5rEvJd1P9Otn9s+6z3ZetmQJsiRztdaTgvjooUP46fvvcadA2HqOrGbsYAxhLHF9n3GG8YZxh/GHVgh7isyy4Zgj50C4hUB4tED4fYHwbIVwcdAFIdywoflRnJIf69lTp3LNHy9/QLfICf27HPu8fOM5CO9PSTmvDDsnSmueEL5GAq+1nKLyfQK/aMkQrNtmZy7H5a1l2NkX5f6vQLhyxYqIi472KMNqQvjPlSvx4H334dprrik0/0eyqhdHjjTn7rBkQoXl2Kgo9O7Rw6zDut9W33n77fj1p5+QIZmUtRyrQ4OCUFkaLtf9858e+1LS/ehDDyEkMNBjn+1MYJ45edKjnhTExw4fxk/LluEOgbD1HFnN2MEYwlji+j7jjIGwxB2F8IVFZtlwzJEVwsVUeUE47bPPcPrgQWSfPp3rQ/L/p5Kp8If0Nzn2efkGgTCDdHpa2nll2DkpIQEt/PxwtUDYWk5R+b5770W0ZJbWbbMzl+Py1jLs7Ity//tvf0P5smUNhK1lWH3i2DGsXLECd/7nPx7lFMTenF9vnJqcjH59+uBagaV1nVZzn7hv3EdrOVbHyrF6/LHHzLGzllPS7U0d84WPHTmCZUuX4j8CYeu2Wc3YwRjCWOL6PuMM441COG+RWTYcc2SFcDGVHYTpMEL4889xWlrO2WfP5vqwtKK/nD4dN990E/5LjmFe/r8bb8TECROQyR+bWxl23peUhHZt2hgIW8spKpdmxipZmHXb7MzluLy1DDv7oty//9d/oYwAJTYmxqMMq08cP45VkgnfIcCyllMQX3/ttXhh1CikSxZqXWdBnJqSgn59++JfkuFZ12k194n7xn20lmM1jxWPGY+dtZySbm/qmC/MuPCFxIubJdBbt81qxg7GEH7H9X3GGcYbxh33OKQQPl9klg3HHFkhXEyVF4T3f/EFzmRlAdnZuT4qLd55c+filptvxv+TY5iXb731ViyV1vFxyVLcy7BzimQ/Xbt0wdX/+IdHOUXleySQxUi2ZN02O3M5Lm8tw86+KPe/BCSPCVDiYmM9yrD6pJzjVatW4T8CLGs5BfF15yB8ID3dY50FcWpqKvoKhK8RCFvXaTX3ifvGfbSWYzWP1eNlyphjZy2npNubOuYLZxw4IDH5JVx33XUe22Y1YwdjCGOJ6/uMM4w3CuG8RWbZcMyRFcLFVBeFsLRW3XX06FHMnz8ft9xyi/VYevi2227DTz/9hBMOfkDJAuH27dvjKsmEreUUlU0gi4mxbpqtuByXt5ZhZ1+UmwvhuDhrER46efJkLoSt5RTEDLgvvPACDkgALky5Q9i6TqtzISz7eDHFx8ejfPny+Nvf/uZRTkm3N3XMF2IdeP7553GtNMys22Y1YwdjCGOJS4wzCuGLq5RC+PJTcYHwvn374O/vj//93//1KKeo7E0gcwpLX5WrEM6xtxCuVKmSQtgHUggXjUophC8/FRcIuzLhf/zjHx7lFJW9CWROYemrchXCOfYWwpoJ+0YK4aJRKYXw5af8QHju3Lm4+eabrcfSw7wm/N133+H48ePnlWGnlJQUdOnSRSHssFyFcI69gTCP1eOPP26OnbWckm5v6pgvlJGRkXtN2LptVjN2MIYohL1XKYXw5SdvIXzkyBF8+eWXuOmmm6zH0sM33nijnKvxyOLgrouImXDr1q31mrDDcgmSMmXKKIS9hDAbLgrhwhfjwowZMxzFBS7DGMLvuKQQdqZSCuHLT95C+PDhw5g2bZo5oTbH8zyza2oUR886CNK8Juzn56fXhB2WS5A88sgj2Lp1K5KSkvJ0bGwsvv32W9MzYS2nIC4OEOY+cd+4j9b9tjogIAC1a9fGHXfcgdtvv/2SmF2xTrvDuRyXt5Zh58qVK2Pbtm0e+2xn9jqdOXPGethtderUKbO8tQyro6Oj8dVXXznqIWPsYAxhLHFJIexMpYoDhKdOm4z3BMIvKoQLRd5C+JD8P3XqVMcQ5nUiJ0GaP+Tmsg0KYWflst7/85//RJ06ddCkSZM83ahRIzMgqbCPbXGAMPeJ+8Z9tO631R06dMC8efPw22+/4ffff78k5vqdNoa43Jw5czzKsDMbIh07dvTYZzv37NnT9DxdTAR1aGgounfv7lGG1Tz+FSpUcFTHGDsYQxhLctelEHakUgWEcEuFcPGTQvgv+wKWviyXdf+///u/8T//8z8XNZcr4G/Fw8UBwt4cg9KlS2P79u04duyY6b6+FA4PD8fdd9/tsR925nJc3lqGnbncAw884LHPduZy7Dm4mE6fPm2yax43axl2/vvf/+6ojimE869ShQDhMWNHYyIhPFchXCykEP7LvoKlr8q91C4OEPbGd911F3bt2uW4K9YX8ub8+qreOC2XEObljjvvvNOjjIJYIZx/lVIIX37yFsK8jvPZZ585gjCD9KuvvmpGTl5MvCbcokULhbAX5V5ql0QI7969WyHssFxfQpgxRK8Je69SCuHLT95C2NtblBYvXmy6/y4mvUUpR96Ue6ldEiG8d+9enD171rrKIpM359dX9cZpub6CsN6ilH+VUghffsoPhH01WUe7du30FiUvyr3UVgh7L2/Or6/qjdNyfQVhnawj/yqlEL78VFwgzO7oVq1aKYS9KPdSWyHsvbw5v76qN07LVQgXP5VSCF9+Ki4QZnd0p06dtDvai3IvtRXC3sub8+ureuO0XIVw8VOp4gHhSQLhsQLh5xXChSCF8F92GpwoXwQ9yptyL7UVwt7Lm/Prq3rjtFyFcPFTKYXw5af8QNgXA7PYHd2yZUsdHe1FuZfaCmHv5c359VW9cVquryCsA7Pyr1KFBuHxCuHiIm8h7KtblBh4e/fujfvvv98Ey0vhmjVrIiEhwbpptvJF0KO8Kdep+RthDwPnWbbuc0HMaTM5aX9gYKCZlzkvJyYmmjnEnQAwPT0dzz33HB566CGPdRbE1atXR0hIiKNt8EaEFe9zt+6znTds2GCmzbSeIzv7qt44LZe3cvG+6mrVqnkcy4K4XLlyBsI6d7T3KqUQvvzkLYR9NVkH56jl/LN79uwx93K6zP/dzUzGusyFlr/Ysu7f4bIM0Jx9yIl8EfQob8p1as5mVLduXfOgA6fHx/2zCy27efNmjBs3DrVq1TKPCMzLXD/nFna/N/RCItT42EGu02791v+tdn1mdXBwsKMnenkrApj3uFv32c6MWTwf1nNkZ1/VG6flZmdnm2yVx816LK3H3HVeXM7r/LDRxpjg3hhSCDtTKYXw5afiAmGKP0qaLXCXXe9Z7b7MxZa3LmO1+7JO5YugR3lTrlOzi5+QYDZqPTYXOj7un11oWfZw8ClZrAt82EBe5jIffPCBoydqUQTAhdZv/d9q6/652xfiOePUjtZ9trM3T3DyVb3xplzXebDaeswvdNyty7iWY7nuUgg7UymF8OWn4gThkiRfBT1vynVqQtjf399cdy9MZWZmGgjzkZXWdVrteqwlv3O5yRfnjPZVvfGm3KKSQtiZSimELz8phPMnXwU9b8p1aoWwb+WLc0b7qt54U25RSSHsTKUUwpefvIWwrwZmlTT5Kuh5U65TK4R9K1+cM9pX9cabcotKCmFnKqUQvvzkLYR9dYtSSZOvgp435Tq1Qti38sU5o31Vb7wpt6ikEHamUgrhy0/5gbAvJusoafJV0POmXKdWCPtWvjhntK/qjTflFpUUws5USiF8+UkhnD/5Kuh5U65TK4R9K1+cM9pX9cabcotKCmFnKnVJIDzKAuGpk/Due2PxwosK4cKQQjh/8lXQ86Zcp1YI+1a+OGe0r+qNN+UWlRTCzlSqoBBu+ReE51gh/JYDCG/dthlTFMKFKoVw/uSroOdNuU6tEPatfHHOaF/VG2/KLSophJ2pVCFA+O0xozFhokK42Cg/EHY6MIvLzJgxA2FhYeZHfzl53bp1Ppl+kNNm1q5d23ynsPzggw+iW7du2L59u8d+FMScEYnTVnIUvHWfreYyXJbfsZZT0r1p0yYzJab1uBfULJNlW9dnZ2+2wZty2XDjDGYXEyfg4K2InJrTWobVXIa3OrpPnqIQdqZSCuHLT95C2JtblDhDEDPmu+++2yMQlHQTwH//+9899tnOXJ7Bx4kY8Ahia+AqiCMiIrB06VJUrlzZYz8KYs4DfMMNNziaBYrLcFl+x1pOSbc3UPPGvgKr03I5j3uHDh2QnJxsraYe4kxoEydORNmyZT3KsbpChQqYM2eOzh2dD5VSCF9+8hbC3kzWoc4xAw+D36US58PmvNF8gIN129QFt6/OL8tk2db12dmbbXBa7lVXXYW2bds6gjBvQ+TtiLwt0VqO1YwdjCGMJS4phJ2plEL48lM2Ibx6NSKsEG7QAGmS8SqEC25vAqQvpBD2rX11fp3C0tttcFoun7zVpUsX86zvi4njPjj+g+NArOVYfSEIM94w7rjHIcYlxifGKZVC+LJUtgTow2vXIsLP73wI16+PlIkTccYykEYh7L29CZC+kELYt/bV+XUKS2+3wWm5zITbtGnjKBMuMIQlzjDeMO6cB2GJS4xPjFMqhfBlqexTp3Bk82YPCIfWqYOk11/HacuUkwph7+1NgPSFFMK+ta/Or1NYersNTsslhFu3bl0kEGacYbxh3LFCmPGJcUpVbCD8iUB4jEK4kJR9+jSO7d6NCH//8yFcsybihgzBKUtXlDcDs9Q59iZA+kIKYd/aV+fXKSy93Qan5bI7umPHjo66o729JswY4v5sacYZxhvGnfMgLHGJ8YlxSlVYEH7zHIS/yg+EN7lB+DmFcCEo++xZnIiMRGSbNgipWvWvH4C85nvH9uxB9pkzuct7c4uSOsfeBEhfSCHsW/vq/DqFpbfb4LRc13Oondxfzoe08GEtTm5XY+xgDGEsoRhfGGcuFIMYnxinVIUJ4fcUwsVJbIXGDhiA0Bo1zmuFhjdujAPz5uGs260E3kzWoc6xNwHSF1II+9a+Or9OYentNjgtlxD28/NzBGHeI8zHlvLxpdZyrGbsYAxxQZjxhXGG8ea83jiJR4xL1t64K1mlFMKXpzgoIvn99xFWr55Hl3T8U0/hZEKCNFezzbIKYe/tTYD0hRTCvrWvzq9TWHq7DU7L9WZgVr4hLHGF8YVxxtoVzXjEuGQdHHolq5RC+PIU78HLWrECES1aeHQH8T69jG+/xZlz2TB/OPOk1ard0c7tTYD0hQjhlStXKoR9ZF+dX6ew9HYbnJbrq0yYsYMxhLGEcYXxxcxTYIk9jEeMS3qP8F8qpRC+TCWt0VOJiYgbNMijS9p0CQ0ciGNBQWZwBH8433zzDSpWrGh+yOqLm9NQchasS6VTp05h/fr1qFatmse2qQtuX51fb6Yw9WYbnJbL6U579uzpaGDWwYMHMXbsWJQpU8ajHKsZOxhDjh46ZOIK44td3GE8Ylxy9cKpFMKXtcx1mQULEN606fkt0nPdQrx94GRcHM4KiHlrQXx8vGlRqy9uBj0n8+/6StnZ2Wb0qp4z39hX59ebKUy92Qan5cbGxpqu6DNuAzMvJG/mjmY9PJSZiRNSPuOK9TKY6YGTOMR45D4eRaUQvrwlP6KT8qOIHzbM49qM+VE0aWJupj8pPyD30dIqlUrljRg/GEcYTxhXrI1+MxZF4hDjEeOS6i+RWTYcc2SFcAnQ2ePHkbV8ueetAm4g3jd6NI6HhOCsZFbaTaRSqRxL4gXjBuMH44gdgF23JTEOMR6pzheZZcMxR1YIlwTJj+R0ejpSP/nkgj8Qzu3Km+ozf/kFp5KTc34o2lpVqVQXksQHxgnGC8YNxg8zR7RNfGHcYfxhHNJGvqfILBuOObJCuITITN4RE4PEl1/OmcfV5ofC7iLOZJP40kvmR3VSlj994ICZhJ3XcM4eParOr9mo0eBTvMQMTs6Lx7lSX9gSBxgPGBcYHxgnGC8YN8zlLpu4wnjDuMP4o5Nz2IvMsuGYI+cbwiNtIDzu3TEY9YJC2FcyU1kGByP+2WftQeyCce3aCG/WDNHduiHptdeQNm0aDsyfj4wlS3BQnS+bbrijOZMYqIqHeD54XqznSm1v/v4ZBxgPGBcYHxgnGC8uFEsYZxhvGHd0isoLi8yy4ZgjE8L+bhD+ek5+ITxFIVwU4oTpvH0g8cUXc2aysfvxuFytGsLq1DFdTFyWXUrq/DmmZ0/TbacqPuL54Hmxnit1HpY4wHjAuMD44BEz3ADMZRlnzG2Q+qCGPEVm2XDMkV0QfuvtN/HBBIVwiRB/ECeiopAyYQIiWrXyuJdPXfjmoJRTSUnWU6G6hOL5MIMVbc6XOv9mPGFcYXxhnFEAX1xklg3HHFkhXELF2wlOp6Uh8/vvzU31bLWGVq/u8YNSF44VwsVPCuHCNeMH4wjjCeMK44ve9uhMZJYNxxxZIVySxYEpR4/iRHg49n/xBWJ69zY301/wGo8631YIFz8phAvBrjEkEjcYPxhHGE/M+AcdiOhYZJYNxxxZIXwZiK3VM1lZ5tFinO+V13GiOnUyc7xy4IXrWpA6/47u0UOvCRcz8XzwvFjPlfoiZjyQuMD4wDjBeMG4wfjBOKLZr/cis2w45sgK4ctJvO9PWrC8l4+z2hzdtg1Zv/2Gg/IDy+Do6Hnz1Pk0u+d0qr7iJZ4PnhfruVLnYYkDjAeMC4wPjBOMFybz1duP8i0yy4ZjjqwQvlyVnW0GVPBJJ677A9UFsHbPFT+duxzjca7UeZvHTOKCGXCldbpQRGbZcMyRCxnCbyuEVSqVSnVFicyy4Zgj50DYz0A3B8Kz8gvhj89B+FmFsEqlUqmuGJFZNhxzZIWwSqVSqVQFEJllwzFHVgirVCqVSlUAkVk2HHNkhbBKpVKpVAUQmWXDMUdWCKtUKpVKVQCRWTYcc2SFsEqlUqlUBRCZZcMxR1YIq1QqlUpVAJFZNhxzZIWwSqVSqVQFEJllwzFHVgirVCqVSlUAkVk2HHNkhbBKpVKpVAUQmWXDMUdWCKtUKpVKVQCRWTYcc+RCg/BkgfA7496GvK8QVqlUKtUVIzLLhmOOTAi38PfD6LfewPsfvIfZXyuEVSqVSqVyLDLLhmOOrBBWqVQqlaoAIrNsOObICmGVSqVSqQogMsuGY46sEFapVCqVqgAis2w45sgKYZVKpVKpCiAyy4ZjjqwQVqlUKpWqACKzbDjmyIUM4bcUwiqVSqW6okRm2XDMkf+C8OsC4XcLAuGPzkH4GYWwSqVSqa4YkVk2HHNkTwjPVAirVCqVSuVUZJYNxxxZIaxSqVQqVQFEZtlwzJEVwiqVSqVSFUBklg3HHFkhrFKpVCpVAURm2XDMkRXCKpVKpVIVQGSWDcccWSGsUqlUKlUBRGbZcMyRFcIqlUqlUhVAZJYNxxxZIaxSqVQqVQFEZtlwzJEVwiqVSqVSFUBklg3HHFkhrFKpVCpVAURm2XDMkQsFwlu2bsKkyR9h7Dtv4fmRCmGVSqVSXTkis2w45sgGwi0EwqNfx/j3BcKzFcIqlUqlUjkWmWXDMUdWCKtUKpVKVQCRWTYcc2SFsEqlUqlUBRCZZcMxR1YIq1QqlUpVAJFZNhxzZIWwSqVSqVQFEJllwzFHVgirVCqVSlUAkVk2HHPkQobwaIWwSqVSqa4okVk2HHPkvyD8mkB4XH4hvFEg/KFCWKVSqVRXnMgsG445sieEZyiEVSqVSqVyKjLLhmOOrBBWqVQqlaoAIrNsOObICmGVSqVSqQogMsuGY46sEFapVCqVqgAis2w45sgKYZVKpVKpCiAyy4ZjjqwQVqlUKpWqACKzbDjmyAphlUqlUqkKIDLLhmOOrBBWqVQqlaoAIrNsOObICmGVSqVSqQogMsuGY46sEFapVCqVqgAis2w45siFBuFPJn2IMWNH47nnFcIqlUqlunJEZtlwzJFdEH5TIPze+HH4SiGsUqlUKpVzkVk2HHNkhbBKpVKpVAUQmWXDMUdWCKtUKpVKVQCRWTYcc2SFsEqlUqlUBRCZZcMxR1YIq1QqlUpVAJFZNhxzZIWwSqVSqVQFEJllwzFH9gGEn1YIq1QqleqKEZllwzFHzoFwc4HwqwLhdwoK4TcVwipVMdXZs2eNVSpV4YrMsuGYIyuEVaorQGfOnEFWVpYxX6tUqsITmWXDMUdWCKtUl4EI1pSUFGMrZJn9Er4ZGRnGfG3NiLOzs3H69GljvlapVM5FZtlwzJEVwipVCRehGxQUhN69exvztTuICdzMzMxcCPO1O4QJ3RMnTiAxMdGYrxXEKpVzkVk2HHNkhbBKVcLF7JfwrVy5sjFf8z2XLgZhZr+Eb1RUlDFf8z2VSuVMZJYNxxxZIaxSlXC5Q7hChQpo3rw59uzZk5sN5wVhZrzHjx9HbGysQlilyqfILBuOObJCWKUq4SJsCV3ClxB2ZcOEKSGbF4StWTBhTChrd7RK5Vxklg3HHFkhrFJdBrJmw40bN8Yff/xhru9eCMIE7ZEjRzQLVqkKKDLLhmOOrBBWqUqQmPWmpaUZuw++cmXDLVq0QMWKFQ2Mu3TpYgZpnTp1ygPCXJ6ATkhIyAVwXFycx6Asvj558qSxZscqlb3ILBuOObJCWKUqISI4w8LCMHz4cOPg4ODzYLx//36MGDEC1apVM9lwlSpVMHDgQJMlW29RIpiTkpJyARwdHY3k5OTcslzwZaYcEhJizNcKYpXKU2SWDcccWSGsUpUQEbiEb9OmTY27du2aC+MDBw4YsBKW3bt3z+2WbtmypYGtdbIOLsvM170b2pUF8zMXfJldBwQEGPN/glmlUp0vMsuGY45caBD++JMP8faYN/HscwphlcoXcodwo0aNjPma0H3ttdcQERGBo0ePYtu2bejZsyf8/f3Rr1+/3NuV3Ket5HVfwpkgJoCPHTtmPuP3WY4Lvtu3bzdWCKtUFxaZZcMxRyaE/QTCb7wpEH7vHcz6SiGcbzGLUKt9ZYIzNDTUgJhZsAvGHITl5+eHwYMHY+fOnQak7FomXAlg1yxY7iZwmfG6zOz40KFDJqu2wnf37t253dGuAV1qtS9cUkVm2XDMkRXCXspaaezsyjjU6sI2gUmwBgYGYtiwYejYsSOaNGmSmxUPHTrUfG793sXMrmgrgHft2mXeI5z5OUFt/Z5aXRi2xlA7F2eRWTYcc2SFsANZK8OFQMsgdTG75udVqwtidgsz0/3zzz/xxBNPoFmzZgbE7Jp23WbkjdkdzS5oV/bLUdXp6ekmq7Yuq1bnx9ZYaGdrTL0QoIubyCwbjjmyQjgPWU+8tXJY4erevXchu273UKsLw4cPHzbAfPbZZ9GjRw8zOnrfvn0ey13MhC2zXlfXM29jYvZrXU6tzq+tsdDOVlhbY641JhcXkVk2HHNkhbCNrCfaCl5Xy84KVwYtlznrEG33nlrtrXk9lgOpeF+v1Zxsg1ksbzPi/1zW+v2LmZkwu50JX2bABw8eNK+t5uhqLmv9vlrtxHbx0P09K6zds+jiDGMyy4ZjjqwQtuhi8HXPZt0rEgMTswmXGQjdzYxFrc6PCb+9e/fipZdewpAhQ2zNz7gMl7V+36kJYV5P3rRpE9asWWNrfsZluKz1+2q1E1tjo3vcdG/guffEuGfJF4LxpRSZZcMxRy4AhJ+xQHjiOQiPKLEQdoev6+9pOfnHpPV/cN8+7I+JQXJ4OPaFhSEpJASJdHAw4oOCEBcYmGMJhLGSlcTQu3cjWsy/rtfRu3ap1V5557p1GPn882YGLA7EsjM/4zJc1vp9pw7fsQPr1641013+/vvvtuZnXIbLWr+vVudpxkGJi3ESL5MiIpCWlISMAwdye1jYsHM17lxwdkHZPUt2h7F7vL6UICazbDjmyH9B+JUrG8JWAJ+RE31MKkeyQHb7jBlY1KsXptSogXH33Yex99yT6zHuvvtutbrQ/cYDD6B/s2bo1KGDB3xd5mdchstav+/U48uXx7Jp0/D7r796wDfX8hmX4bLW76vVF/M7pUvjk6pVMbdrV6ydPBlhmzYhSZIb3gPPyyCcdMZ1KYRgdgHZHcbFEcRklg3HHPl8CI8VCH955UHYA8Bykg8mJGDLF19gmoD3k9tvx2fXX48Z11yDmf/4B2ZedZVaXXSWOjfl1lvxZOPG6OPvb2t+xmUKUj+/kvq96PHH8bMEx1/nzrU1P+MyXNb6fbXaib+UusN4+vFtt2FSlSpYMWGC6VlJkpjL+9t5ucMFZddc58yQ3WHsyoqLC4jJLBuOObJCGOdfB2YGfEBaZr+MGoWP770Xn0uFmS2Bba54nni+Wn0JPO/qqzHjhhsw/d//9vAX8iOedscdmHHzzZgl/8+TOmv9/kX9z39i/n/+gwX33INFZctioWQsCyVz8bCsxyxr/b5a7dCMo4ynjKuMrxPvugsLBw3CnvXrEX3uQSIcYMhR/gQy50R3wZiZMbupXSB2Ddy61NeHySwbjjnyFQ9h9yz4rLSqDkkLbOWYMfhEKsYMCXysLNZKpFYXCxO2hLDU1Zc6d8aIHj0wsm1bA2KPZS9mAfBCqfeLpk7Ft+PHY0GZMlgoUDfrsC6rVheSGV+/FE+8/XZ888wz2LVpk5kVLjIyEjGSDMXHx5u7Aghj16h9V1bsDmL3AVuXAsRklg3HHPmKhvB5ABafPHYMEX/8gU8eeQRfCoA181UXVzPb/Uqy0q/at8dIge+gJ54wk3Y81b07Zt50k8fyF/Wdd2KhAHjRokVYtGABvp00Cb8MHoxFDzygma/ap2acnS7x9v377sNvX3yBgK1bzUh/3q8eHh6eC2NmxsyKXSB2z4jdu6YvBYjJLBuOObJC2A3EmXKSv+ndG1Ovvx5zbCqLWn2pTfgy0/1MoPl8hw4YMXAgnjwH4Cfl9chOnTBLftTW713Ukgkvev99A2AD4oUL8e3s2Vj03nsmK+bnCmO1r8x4O/naazGtRQus+uknbNmyBTt27DD3vxPGzIzZTc2smNeLXY/kdGXErsFal6pbmsyy4ZgjX/EQdrWceCtScmAgJj78sBncYq0kavWlNgH8uWS/z7drh+GS/RK6hC89+MknMbJLF8yoXBnzJROeffPN+OqWWzBbXtteI5b35t52G+YKXOfefjsWyrLfNW2KbyZOxDcuENPz52Php59i4bhxWCC/awWx2leeIR5z1134fsYMrFq5EuvXr8dWyYr5UBLOCsene3FiGmbELhC7MmLXqGlrNlxUIrNsOObIVyyErVnwCTmRob/8go8kw+CAAWsFUasvtZkBE8Du8OXrEb16YbR4ugQwA+AaNfDWgAF4bcgQvCXvu0D8tYCW5msCePoLL+BzgeuXr7+Obxo2NCBe+NhjWCogXvTZZwbA58FYljUZsc22qdUF9eyrrsJ7UlfnvvUWfvz+e3NL3OrVq80EMcyK+dASdk+7QOzqmuZgLffrw5ciGyazbDjmyAphMVtPnJAjYNYsTJbg9LVNBVGrL7XdIUwzG+b/7Jo2oP3XvzCzdGm8JXB+cdQovCCQfV1APEvq9Kz77sOHw4cb8/Vc+c4XAtXPBLafTZuGL0ePxryHH8b8a6/FAsm2zcAs+ZxZsIGxQljtYzPuTrjxRnw+bBgWzpmDpUuX4tdff8Wff/6JjRs3mgeLEMTMiNk1zduZeF8xu6Wt2bBCuIRAOLcrWlpPhzMysHnqVHOvpUJYXRzt3h3tgq/7LUlzJJP9YOhQvCzwJYAJ4rH9+2Pm/fcb+L77zjvGfD37oYcw87XX8LkAmCD+QmA7RzKQ+bffnrM+1y1LLhhrd7Tax2bcnXjDDfi4Vy/MlDo5Xxp+S5YswS+//IJVq1YZEDMj5oNGoqKizNPC2C3tyoZ5D7F7NlyUXdJklg3HHPmKhrArC2br6VB6OjZNnqwQVhdruwZmWe8H5usv770XrwtgDYDFb0kWPEPemy0w/eCll/Duu+8a8/XXvBYsme8MgfJnAmCCePr772POI4+cf1vSORjrwCy1r20y4euvx/tdumDKhx/iyy+/xNy5c3NBzIx48+bN5klfYWFhplvaSTZcFCKzbDjmyIUD4S0b8dHHE+VLb+KZZ0smhLMEwhsnTVIIq0uk2R09undvvDhyZE439PPPY54EswXyA//6tts8ISzvLZTvfC+Z8pdS713d0tNfftlcL7aWr1b72gbC112HsW3b4gNpHE6Sejl9+nTMmzfPdE3/9ttvwpu15pnXHKjlyoZ5bZgTebiPlC5xEPZrjtffeAXvCoRnzroCIOw6Oa6uaHZhZMmJVAirS6KZBU+XjPfVoUNzsmAB8Vt9++JrDtTigKwLQNhkvKVLY/orrxgAE8Sfv/eeZzasVheBGXc/EAi/4e+Pt19/He+//z6mTJmCmTNnYuHChfjxxx+xcuVKM1CL2TAHafH+YU7kwZHSeQ3Q8rXILBuOOfIVC2GeINfjCXnSMtPSsP6TTxTC6hJnaxZMGBPKru7qC0KY35dlCF3CV7Nh9aU04+77116LV5o2xaujRmHMmDGYMGECPv30U8yePdt0Sy9fvtxkwxykxfuHY2JizEhpV5e0+3Vh93mlfS0yy4ZjjnzFQ5hdF7yOcJAQ/vhjhbC6xNkdwjRf8z3X53lCWGxuVxLwmmxYIay+RHZB+IWGDTHq6afxumTD48aNwyeSHPH68IIFC0w2zGvDnMyDs2pxEg9Xl7TddWGFsM0KHbpIIcwujIOpqVinEFaXQJtBWXffbeBL87X7oK2LQdhkww8+aOBL87V2R6uL2oy74//1LzxXrx6eHjoUL774ogDoLZMNs5dmzpw5+P77780zrTlSeteuXbld0q5R0tbrwgphmxU6dJFCmC2njJQUrP3oI4WwukSa0GX2azdDFifosN6ixPfOK+OaczNoua4V26xDrfalXRB+pnZtDHviCTz//PMmG37vvfcwefJkzJo1C4sXLzZd0pxNi7crcZQ07xl2XRcmhDUTLoEQZsvpgEJYnV9ffTUW/fvfWHLXXVjMe2tdt/LI+wuvu868t/S++/D9/ffju3vuwbdSxxYUMui4ziV33IGlpUubdSy89trcz8xtTZbJOqygLla+0PFUXzLnVb8Ky4y778l6nqpZE4P798fTTz+Nl19+GWPHjsXHH39suqQ5e9vPP/+MNWvW5F4Xdr9VyTU46wqG8BsC4adKDIRdg7IMhOUkrv3wQ4Ww2gCSoPz+wQex7OGHc83/CVMGo0U33mhgweUJjHXduyNmwQIES0Puez55SMpYeP31+L1+fYRNnYqU1auxf8sWxH/3HbY/9xy+tWaiBTS3KVjqb/LKlYiTbOHHxx8/D/TWaSut3y9OvtDxtC7nK1vPP/+axoBlGwgmvv/9Qw/lLmfOa1FtK+sf13WuHvrSF6tfhWEXhIdXr46BvXtj+Ll73tklPXHiRHzxxRdmAg/XdeFt27aZiTs4OMsFYc4lbTdC2tcis2w45sg5EG4mEH65oBCeUGIhzBF16Qph9Tl/e/PNBpQH9+zBEWll04flh34wMBCpa9ciQlrka7t2xWLOLiUBcMmddyJy5kycSE9HVlgYVrZoYQDMoJwgAeNkRgbOMDBwZh8pJ2j8+Jzv2qw7v156773Yt3w5Th85gsPR0fi1Ro0Sm0HaHs/rrvNYzle2nv9MCfSB77/vcc4WC5hCpJGQKdkYlzu4eze2jhiBb/LzKEkvzXP7nZzzn8qVMz0Gvj7XRVG/XBAeVq0a+vfsiSFDhmAkBxqOHp17XZj3DP/www9mBi0+3IHTWLpGSPN5w4SwdeaskgXhMQLh6VcohOUkrpXWlkJYzSxot7S+CU2pLAagp+THzQDE16cPH0aWBN6NAwbgG/kBfSNBe9szz5hMN04yXWYJJgtu2BBH4uKQfeYMjiYmIlyCSOB77+GPJk3M59b1FsTsJkxesQJnpT4fTUjA8po1LxwkiyBzMs7neuyO5wWzrnyuIy+fd/5FZyVOpMu2LOP90671yfb8WLYsMnbtMueXYmNr1+uvF3ovh53ZUAmdPBnpkg1uf/5503CwLlOY9qp+5dMuCA+tWhX9evTA4MGDzXXhN954w9wzzFuVOIMWB2fxfmHXCGlO2uGCsPU2JYWwzQod2ucQdh+U5YLwGoHwZIXwFW/3IEzopq5Zg3AJAOxKPiw/eAblM1Jn4r79Ft/dfTcW/OtfWPbQQ/itXj38Iq14ZkIsY2O/fjielmbK2Pfbbwa+DNzsbjXXi6+9Nuc6G68Xy/f513R7Xux6m3yX8GcmZL4nAZIZ0b4//sBZqc/nBUlZltvH7WE2Y7pYBSbs4mUgN40BG5DxO9w3cw3w3D7mfma5PrjohhscrYcg5b7zO9xXq821Ri4n+3/e8ZR9NdvoYB12++KtrRBmQ4yNqD/btMltPPFyxPpevXAsJSU3rnhA+Nw5zh0TcO5cMaM2mf25beVxWXzbbWb/+RnLZnbL/aJ5/F3H2JQp311eq5bpmeE62U38U/nyOefi3DHId906t93e1C8n++jE7hDu2707Bg0ahGeffdYMzho/fjymTp2aO0J6hTQIOIWlC8J8zrDrNiXGc+v0lb4WmWXDMUdWCLNSHT2qEFbn2j0I03vGjDFQYMDf8dJLOHHgAM5K3Uldt84Enm8lgO6S1nrS8uWIW7IEvzdogNXt25uuaMKamdKx5GSzfOSsWSaofiMw+r1RI4RJdpy2YQOyQkORtn69yW5+q1sXCxl0bbaNQY3A2SwBKvHnn5EZFGSu07FblF3lZyxBkv7hscdytk8aAgzchyRopQcEIGr2bPzZuvVfkHNbBwMwu4RZduyiRSYIu4Iut5/byaAc+803BgiExMXWQygQZPESRFP+/NPDPHbs5uT+uR9P0/Up8M3XvuTDHj0hklXx9d533zWw5DLcF5479pAwO+Ry50GYIOM5lroQKvDguWG3No9nsMSZFXx287ltddWfhB9+QNAHH2B9796ImTfPZNkZe/YgVhp7qzt0MMsbANepg2iB0anDh02DkJc4WLd4rNhw4fbnq27R3tQvOSdO99FjPTZ2h3AfNwi/9tprZoQ0Ifz111+bKSzzgrD1XmGFcP6sEPal2XqVFjMDCluty6S1neP7z5kt8PvPtcT595zvZ7Zyt/mRs7XOVveCf+UEZo91lGCfB+HMTNOFTAj9VLGiec33GXwjZswwAYtZS7QETS7L7uf1PXua68ZH4+Nzuiqlvp2WOnZM6hgHaP0gv48/W7Uy3a38DqHOjOqk/GUgZ0D9TQKte/bpMoPaliFDcCgiwmTYzEx47fS4BCB2l2efPXsehJml/NG4MQ7s2IETsszx1FRjBnDuA7tZOXjMOtqV+8X9475yu7cMH24yfFOeBHjCj/vEbWXjhPXpYutZ1aKF6cInPFmm2WfZfwZ2guxQZKTpLWDDxv14rvTzM/DJ77546/N6QmTbCCKWn7xqlflNMHNlFzm3g8f8wM6dOdf83SDM47GqZUtzjk8JGLgc94flcLm0jRvN51wut/7I+9wfXl8+kZZm1s/jwuO8f+tWLK9d2zSAgiROuS5z8HyzTDbyCG02/tYIsPNTt2hv6hd7NZzuo3U9dnZBeEiVKujTrZsjCO+RRgon7FAIXwYQ3n8ZQ5hBiT9eV/fWDxI0/2zVEoFjRiP1j+XICtiKrO2bkLV1PbI2r8ehgC3y/0bzXqb8pQ8GbET6xtWIW7wAe958DRt698Ca9m0lC6ohUHkEyx60glygfV9pAf2thX7tyNd2D8LMeAmHVMkk2Mo3WbAExoPSAl/bpUtO16Ec25iFC3NBu6ZjR+OwadNMcGIgZ5bAa3f8zo+SzcVJBmmClqwj7NNPsXHgQIRPn26WZyAL+fhj08V33rZJY4ddsK5rcwySzHRCp0xBypo1pjzTdWrpLmQ35d5x4xA6aRK2Pf20CbL7fv/dfJ8BdufLL3tcx+R+bWB3qwR37hczXmbH5ti8+WZuA2WvBEeTHTpYD7M9AmDTk0+az3dJcOV283M66ddfTabLctyP5yp//9yuzYutw25f3I/febZ+fs7u5/+U7GP03LnmNcHHRgDLX9ejhzk2hFOEnDdCxx3CPFbMYLkP5pKGwI/nlNvKRgN7SHiJwty25lZ/siWzPSpA4f/cRw5M43tsdLD+ENirpAEXM3++Od/8DjPobQKrDX36GFDHS0bsdd06d3y8qV9LZdud7mNex9tldwj3Fgg/KfXkmWeewauvvmommeE80py+8rvvvjMTdnAOaYWwQrh4mrdY8Ak5pe81cPyjQX3EzvsaGZvX4eCG1chY+YvxoY2rcSRgE44F7sCRLWtwVGB7Ys828Vac3BuAU7u24HTgdpyJCcGZfTE4mxqH08kxOBEXjmNRITgWGYrDoXtxaO9OHNq9DYd2bsEhKeMQYb5tAw6sWWFA/2vVKgbKS++954It8OJk9yDMlj+DDwO86XqUgMj/GQR/lUBkrr1ZIMzWP4Plxr59TWbD5dkNzQDHTIPXOXltmZkMA/smCZIrmjc3XYDHJJgwALJ7lr0U7tvFY0eIMVPidnGUKrNSdo2yS/hAQIDZPiuECVRmbuzW5WCxNZ06meDMoMx9YlfiEmtQlu8RiMxmTJYqmRHXwayXQZoNiyOyfnY5mszTwXrYKCFEeQw4spgNlczQ0NxGDbuq2a3tcTzdIHyxddjti7nmKu/xNiL2QtB8zQFgdrcTuZ//45JFBrzwAo7Ex5sG2I5XXsEy+T73hf8zC9wh4Od5dkGY10N/rVo15xzLeWKvAbtsuQ2/Vq9uBlOxccdzz+5jZv6u/eV+8Bovjz23ka/NvomZAbMMnm9eFjHZLRtC0ihhXWFPBY9LfuqWt/WLyy13rcvBPjr53SuEFcIlHsLsGuaAlZ/KPo6Ap4cj/ZdlOLh2JTJ+/xmH16/E4ZU/Iuu7r5Hy3otIGDUAcUO7Iqp/R8SPeQXBnf0RPewJpH42GdG92yGhqz9Se7TBoWf64Mw3X+Ls1pXIToxEdkYKsg+m4GxWujgN2Yf2I1v+ns2U9w/sQ3Z6ErL3JyI7NR5nk2JwMnQPDguUD21ag5Rli/F7rZqmcVDQLkNf+rzuSGnhsxuSwTDqq69MF6Qr62LgZMZjBw2WwXtdGcSZFYR/8YUJZoQJMxkuR5nRphLgGfD49wyzCqmTGbt359wf67Zd7NZb3a6dycBMMJXtYgDnZ8ymmK0y+3CHMKG2olkz07XMW264nsMStLh+Bmr3bbMeB2a4e8eONcfBZJkCIGbyBBLXw4FqZv2Eoxfr4XZxIBEzODZQuL3bJdi6Mmq748nj5s06PM6nZO/sVnbdcpaxcyc29O6dM0guj/NPcDHDZEZH4PE6P7NhXofmMWG92PrUU+dBmA0wXp/mdvE8JRN6rvMkn5ksVvaNg/Y29u9vYOvaX5bDa8JsbLCxsnnwYJMFmwaGZMaEHBsPzIq5fm4jt5XbXJC6RXtTv8y4By7rcB/tjrPVCmGFcMmE8NU5Ixm/v/ceLK9WBanLluDQlg04sns7ju7YhEOrf0Pi6OcRN3I4Et94GulL5iB8YAcEt2mCyJ5tENmrjbxuhMAmtRDeoRnS3n0TMR39EVHzcURVfRTJ9cvj6IheODPtHWSH7BTIyo9uv7SoDyQjO1MgnJkqYJYf7f4EyZQFvGkCYPk8W/6eTZYWdUIUzsZFIDspGqdjQnFEMuX9v/6AFZKdfy+tcSct5KK23cAsZrHM4ngtlxAymYK0/n+RjIcgtkLjghBmoGvf3gQ6c61YPtu/ebMZgc3rxcYS0NgFysDnvl28Bs/s0QRJqbccuOTKaMx1RfkOt8EFYTZ0CDuW57pmx0YEB1qZez6ZeV0AXLTr+i/3kwGcQZm3WZkMUYLrlqFDTd1jpul4PXfeabaZk3AYiEg2x8lM2LXpykrtIEwAO16HZV9MY+KddwyMuN00BysRDhxYZN1v9/PPrmFeY+X/zHw5SprjAsy1W6kHPB+bBgw4H8Kyj9xmF6D2rVjx13mSz6K//tpsL+HK7nRm1rn7K+eWADeNDtk21wh7A+HJk/OGcAHqFu1N/eK1d/eGxsX20QzQsqzPaoWwQrhEQXiBwHfx9ddi6a03Y1PnjkiePR0Hvl+Io+tX4Ni29chc9SsSRj+HyCE9ENzJD+HDnkTSlAlIHDcKQR2aInJQd2T8uATp86cjZuQTCGxZG0GNqyOqfWNEtvFDWJ3KiKpZFsmtG+DY/Jk4vXMzzsRH4kxyHE4nRONUQiROyf+nBbCnBK4nwwMl692LkyG7jU/J/6cignAqMsT8PRMdgrOyHIF8NiYMRwMExj9+h99rVs/ppi5G1409IPz22+a6FoMLJ45g8GWQY5bE7lgCxAqNC0GY+2m6DGNicrrxBAzMKNj9aG65kd8OYcPsyNpA4f/MQFyNAIKEXeK8R5SDxnjd2WQ/5yDMwGeCKrshT5822SOzuJ9lWXZhmmueFwCXsdQxBlbeiuXqks84NxiJmeRPFSrk3HYkgHS0nunTzX4S3uymZI8Cwc6uTjPylwP95PjYQZjXWR2tw2ZfXLf0bOjbF5ueeMKYtxeZ+49tGoFWCPOccxu4zeb4Coi5bQTaj+XKmYzaHcIc7cyBfOZ6rsSZrPBwc62W+/BzpUrmOiu7alk2ocnzbt3f8yDMwWfuEL7pJnM93FwiYTf1Bx+YhiDhzNHPru5kb+qW1/VL9ofH3uk+OhmcpRBWCBd/CEtQZJD65tp/4Yc7bsfOepWwW0AZ3r0N4vp1QtJLI5D6yXjEDu+HsH6dEffWS4gcNRA7WtTGjlYNENK5JcI6+iHhrdeQtfp3HN64BgmvjERwq0YI69Ye8S8/i+gnOiJucG8kPDsEsd3aYN/Tg3Dk959xbE8Ajkp2fXjLOmSu/QPp8l7adwuxf95XSJs5BSmfvIfk999A8tiXsO/dV5AyYTT2TXgbqVMnIG3Su8ic+zmO/LgIJ9avxEkB8Kk923EqaCcOb16LtO8Xmyye1/KKA4zP644+dswMGCKI2R3Ia6SEBwMPR6MykNsNJLoQhFk+u+14+wfLYRDl7TXs5uV1NmZd7PbldWUzNab7tvE6rfy2mN0wwDHTYRchsyLeTsSs0n3gDMHGck1mI+DiKF5eQ+VAHde1Xuu2WW26RAcNMiBgYDbfkW0O+eST3GuvhLCT9UR+9ZWZaYwZLJfjoCce0/U9ehjAspfB3Bcr4Pc4nhLcnazDdl+uzrmXlVDLtRxbAyKbAUNWCLOhRZCxy5Xr4XHgZ+yq57YS6OdBmAOzpE5wekc2WE6JeVtWwIsv5gzykv3m+UsTiPzI+3ttelLygjCBxnriykIJPHZbsxubDQbXQDWv6ta54+RN/WI9drqPF5xsxc0KYYVw8YUwr7lddy2+vf46/HjPXVj3SGkEdWyHqKcHY1eT6ggRWO5tXgth3dsh+pl+2NOiFnY2romdLRthV5vG2NG8HkKHPYGIAd0QIsCNG/Ekjqz+DZkLZyBmYHfEDeuP6IE9EPPCMOzt4oeo4f2x79PJSF44D0lzZiPxy88Q8/ariHhaMuZeHLhuzAAAgABJREFUbbFbgL6nSR0ENpR1Nq6HqHaSOTesbbLniHqVEd6kNiLa+iO4XjWENqyD8OaNEdOjPSJkuYTnn0K8lBP/8ghkLPgKJ7ZvwIltG3Dw56WI/ugD/FK+3HnzMl8KuwdhU1c4Aw8zLXaDymsGHQ5Ucs0BfaHMbZ0EEjsIuzJHXptjoGOA5XLMsPh9Zhemq9dm+kNuGwcHMRCaQWJHc6678XsnCEqp17nd0RLIOQjMDKiRYM3rgYQY18NsxzWYyRZcLp/ramYZHKXLIMzvurpMuQwbTk7Ww5G0BDEDtPkdEma8LUf2ncvzmi2vv7pfI83tjpY64WQdee6LQ1shzNum2B3L+4TNtp87Brx1isvaQZig5OcEpKk3cp7Znc26Q0Cy/vC2L2aZdvUnLwi7Bs3xtiXXsWAd4PFzZfn5qVuufXdav7h9TvfRuh47K4QVwsUPwoSvgHfxv2/AinKP4c8H7sKah+/GprIPYUulhxDUvCZC2jdGwhvSUh3UE7tbNsQOv7rY0boxgvv3QujQ/ogY0Q97BcR7WjSW5Wsjpk87JD3RBYe/W4D0t15AwnNDEf+6/H13NJIXzEHc59MQ+9bLCBNgB3ZshaAu7bGnaV3sqV8VYe0aI6RTawS1lLKa1kFIo1qI7NAKSU8PRXj92gh8/CGEVimLqGYC/ZpVEVKnFoKqlkdwrUoIql0JIf5+iB3YG9EDeiG4aS3EDuiI1DEvI3HUcKS++yaO/LoMB5YtxoauXcztTnZdZkVh69zBLvNWJWYJUXPmYK0ECRPsBVL8y9s42H2XLoGRo3YZ5Dja98D27TlzD3OiB9fcw7yOL+tgRhIrwZdTYDKwMVDy+mvCsmVY2by5fReerI/d37xOzUycXaTcTq6fg4/4er8EJ3YJml4TWc8myWS53QTHkZgYM9CMg4mY3TAr5TVO67zI7uZngePGmSDPwMrsyFzDdWsoOVkPrydz5jEeD/fj6jKXYVbMbNh6PJnJOlnHxfbFid3PP0c/c3KMRRIoeb7S5XyyHnBQGi9RsEHF7lY2Ds6bO/rcWA3eG81slFDkNvP8cqIRNjbyqj8mc2djTbJ9ls1jz4aBa7IQgp7byB4B1h1zLFasML0J5pp0fuoW7W39criPHuuxsUJYIVx8IMwfsMD3u5v/DysFYn8+ei82Vi2LNWUeFPiWxbZq5bCxzL3YVuVRBFQvg71NqyPx5aeR/MVUJM/6HHHjXsPOFvWwS2AZ9mRvBLaVbLhOOQQLnFM//gCprzyLg1MmIHPxXCTPmYXYie8h4rVRCOzTEYGtmyC0XXMESiYd3LIJokYMxc7aVbFD1hkkcA3xq4+YAZ2Q8vF4pE95DxlzvkRsR8l6q1dCaIMaiGrph8h61QXCVRDWzA9BNashpGlDhLZpJhn4MES2bo69taS8ypUQ3LyuvN8Ku2tWxu66lZA4chiOLv8eR9b/idT5X+H3GjWwtPS9OROCWI+RD219ik6uOSUfrw1LVuSerZvrmBL4+DkBYqYY5LVSyRTMvdnyvpky0D0YsYtUAiEHyDCr4fU0BntmnRzhnldvgGuaQ3Yd8lon//KWH9c2c52uLNXUJYECby0y1/EqVzb7wPe4zVzWbFselwHM+gRs5njIvphpLK3LO1gPj5uZjvHcU4es5jJcno0vj+PJY+FgHRfbFyd2P//mWBJYbBDLOeH/5hjcc24cA7fJdZ6tT1E6d465z+Zcuc5v6dK5U5ea9dnVH9f+ctDlubJ5DnLrELdR1sW6w+vAhCKPhak31+Q8wSs/dcu1/97ULyf76MQKYYVw8YCwVNolN/0b66uXw5Ya5bC23ENY/cg92FThIWx97F5seexubC7/ELbVrIDAZnUQ1ISwrIfoJ3si/esvENG3E3YLlNk9HSDZa0CjGgjp0hZhnVsg9fOpSP1skmSv/ogfMgDhwwZie+Na2FqnMva08cP2GuWxt25lhAgcQwTcCW++iBAB9/aKj0l5DZHw3lhEDeiDcP/6iB0+GKnvvIy0ca8isFZFyYzrIfX9MYjv1AbRHdohopFsU6f2CG/bGhEDn0Bsv54Ia1Ife6tXxo6qFbFHKl34UwOxSfZxZ03JlBsItJvXR8rYV3FEsvTDsz9D1s/fI23ZEiyvXhVL/uMWgC43X50zJ7LJ/L3ZR37vHAg8PrP63LI+P4ZFsZ6iWEdh+9w59ur8OrGr7lyo3PzWLdd3ndYv1/L5Wc85K4QLAOHNAuEPP5qA0W8JhJ9RCNuaLUapoN/++0Z8e8P1xmzxLrqBUz/mDBDhD+n7O2/D+loVsKbCw1j1yF1Y+eh92CwQ3FrhQWwTEO+o9gh21aqC4I5tETWoF+JGDkHy9MlImzkN+yZ9IFmvH/b6CQCH9MGeepWwq0ZZxA3vi4zZnyNr7QpE9u2MyI4tEC5w3V1XMtKa5bGp7P1S9sPYLTAN8W+MyF5tkTDySYS1boigugLY+tUQPaCHwNUPEf5N5K8/Ilo1RsrbLyO6dxcESdad+uE4HHjtGUQL1MMb1EJEnaqIl+VDBbw7q1VBSLOGAusq2FHxcYF6WextIWX36Ybdfg0QUFkgX6s8QhrWQNyLzyLx2Wewb1B/pL86Aic2/SnbvQrhUr9+rlC+WN9frFar8+8rHcKvvf4yxr0rEJ6pEC5UCPNWom9vvBGL/+/f+OURyWZbNsNGgd/mxnWxrpU/1jRrhJ8feRCLJftdeuft2PVEF+zq2x1ra1XGn4/dhy01KyOwfRvsalgLe5rWR2Sf9ghp0xR7BZbBkl1Gv/kKdndoYa4H7xUY7m1UC4FNaiO0VV3sqVsOYZ38kD5jGo7u3IrD2zYickBXJL7zpmTQtbG7ZkUEt2+BgFqVsL1qBeyWjDhQstGQZvUkM62O0IZVEd6iDuIHdEJSv06IaFIHUb17Yd8rLyC2WzskPvOk6Y5O54hoAXdMs9qIaFwbYbJPoVJmdKsGiH9mOAKb1kV4z57Y07AOtlQri7UP342tAuLt1SuZ/Qpt0QjBjethd5Xy2CP7G9q4PuI6+SOhU3McnTMFZ8J242RsBNLXrMSKxg3NdJiX6nqxWq32jRXCCuFChbC5znPHHfjpkYcR4N8MGwRK6yuVww6/JlgnsAnv3xtpc2YhYcyL2ClAXC/Z4DrJRNc1roYVVR7Dn+Xux6aqjyL0if4IauOH8M5tENm9I/ZNGI+kD99BYOt62F6vsulO3t22OfZ0bomNNR/HjrqSdXZoIjAWqDapjP2zPseh337EsR2bzS1GCePfRFTPdghvKyCXbJUg3lWzkgC4BgIlK43u2x7hLZsiiNdpyz+EUIFx6luvIrG7vF+/FoLr1pRMuhWi2rVA+kfjkT6sDxLaNEasADuiXnVEtm2JwKrlEVi9gsC0FpJGDUPciMGSTdeUDL4StpQrg9UP3outAv090hBJeG2UGTGd9NbrCPbj9eLKiJFGSPKrLyOqRQMk9e2IE1vW4mxyHM6mJuJI0C6kLv8Jv1avqiBWqy8jK4QLBcKvy0EbfsVDmAD+6fEyiJzyCfb/8B2inx0iwKyCDeUfxobqAr0GtZE+83OkfjQaOwVUWyo+hh21BEqSgQY0r4e1AuRVlR7E5poVJLttjHABYGT/bkiZ8hHSp09CFK/71i6PnbUrYnuNCtgh3wvs3g7bWktG2Ucy3fGjEcFbjQZ0RsaMKUgc3AsHp72P49s24ND6P5Hw8kgEN6mH0GYNECzgDJFGQHjnDkgRqCb264CI+lURItn6HtnWsC6tcXDhbCT26IAoyVDD6tdBRKPaiO3RFinPPom4lvUR3aAawio/ghAOxvJrjNAOLREzoBt216iMoEY1EVSvFnYI1MP798Wu2tWwvdzDCPKrb4Ab3boxogT64W1ayDY1QLi/NARaN0NMe15bbo94aXgc37hGAJwAZCQj+0AyzqTGm6z41xrVFMRq9WVihfBLBYHwBoHwBwph+pprzEMTYj//FMfWrcJJydzSv5mDXX4Nsb1yBWypUAbB/o2QMX8W4l4Zgm2SMW6vUgEh7fwFwnUR9dKz2NmmCQJa1cduAVwg77f1q4s9tR5HWNsGSJ04BqmffYyIXp2wR7LUnVJujJy45BmfI0Uy67R5sxDU2R8R3doh6+el2P/xO4j0r4t9/Tvg8PQPcSJwB7JWLEfskL6I7tpKMt2qCJf1Rki2HdOzMyIa1ESYwDG8fg3E9O4sAP4KWexuZrbbvL58XgOxslzGZ58gSTLq2LYEZjMEVS6DQGk07J88Eftnf4XIPr0Q1kE+H9Yfwc3qI6ZfV4S1bi4Zd1UEVHgQIfWrIVQaAGG1ZV1N62KvZNg7JYPeI8cjokUjRPnXQ6Q0DhL7dcHx1csNhM281efmrj5zYB/S5fj+WqO6glitvgysECaE31YIFxTCvF1i+9DBOLp2JU4u+BInVv+GtE8nIqxbG+xoUAvbJQONe/lZHFw8H2mzpmK3ZLq75AQkjHkDwZ3bYm87P2wXKK6tWRbbmtXB5splEVDxIex8/F4EN66OhKF9EN2vMxInvIO9bRphZ4NK2O0v2emgXogUKCa88gx2NK6J6KF9cXjVcux7ZiDC6lVFbJumSB/9Ao7z2rDAK7J3FwQLxIPrVDb38YY2rI3I1i1yBlURjnWrIaZdE2Ry1qsBPRHTsAbC61RCVOdWyJg+FQcFzCl92iG+vR9i+/dGcP1aCJHvJT3RywCd9xEnT5qAA4tmI/7JHohsLtl28waIHTpQsu7WSH51FBJHjkBQw3oI79EDe2X9ARXLmAw9XrL+pCd7I1628dCyxTgdvsfMWU34mrmqD6Uj+2gGzhxMRbpk9gpitbrkWyGsEC4whBf88xr8WqE8Mn5ehpPLFuHUHz/h6E+LkfBUH0T0aI2kSR9i35QJSHpugICpK1KnjhfwtjRwTvpY3v9kIqJGjcCWRtXwe/nS+KXcA1hX/lHsrlcFQY1rIOHFEQgV8Eb264Y9kt0G1JXMsWU9BNSqgN31qyK4XiUE1q2CrfUr4OAfP+PY9k2I69sRYQ1rIlzAvO/5YTgq7x3dE4D9SxYhasgARHVqIzCui6DaVRHVuhmiO7ZBdKumCK1fGUlPDUTqoN5I7NgKkfWrC1ybIuPzSdg/pA+S2jZFXLe2Um5tAXBNRPboitgubc1EHWHSiAj3q4+4Hm2RPGKgZOJNECIZL7u4o7t1xMEFc5H+yQcIatsc6x+5D+seexBbyzwgIK6DfW+/hoNzZyHluSE4MGYUTmxei7NxkeaBEOyKzs5IEhCnmCc3ZafE4ExqLNLWrDL3KDq+lUKtVhc7K4QVwgWG8He3346499/BKck0j388Fsd/WYr9778usBuIXc1rIfK5oZLpNkVEl5aIH9gdqbM+w87mAlHJSJM+/Qi7WjbBDslad7f3x6rqD2PRvbdifa3KiB83BtFPdkdQsxrY1aQqEse9KfCtj+01yiBIIBzSyR/h3VphT22BcrXHsLdTExwLDDBdz4nDByBh+CBEt2mG5FeewzHJhE+EBeHY3h04+P03iBvSH+G9uiHm6eFIeXc00qZ8jKQRQ5AwoBcOLfwa6a+PQrxk57E9OiLlrVdw4IVhSOrQHHHN6yKM15LbSPbctgXSpn6MqLZ+CJMGRWTXDgL2mgL1Johp1RAxHFTWWDLepvWQ8v44HFySs96gZg2wrfzj2FqxnJkQJKhBHUS2b4F9Uo+i5TtHfluGM4nROQ+OiAjEmeBdOBsTgux90ZIZJ+ZkxcczcTw5HluGOXtSi1qtLp5WCCuECwRh3uP7y6MPI+vrGTi9diWOCsAOzp+FsA6NEdqjFTZVF9hw5qk6AtIGFc0ApJSP3xGo1hPw1kBQv7bYVOVRbHz8fmyu9jjWV38MyyUT3uHfCEkT3kVwizoIrF0OewXCqZMnIOGNUQjp0gpBkp0GtWyKsNaNESjZa2S/zsha8TNO74vH6fgoHP71e+z/dBLihg7Ewa8+x9E/l+P42t9xYtMaHP5mDpL6tkfml1NwdNFsHJ4xGQeeeQKp/bsj/cVncGLVchz6dh4S+/dEypuvILajNB7aN0e0ZLqRzRsg5knJiN98GRGS/ca3a4aIhjUQUqc6gurXRUSHdgbIYXWqIcK/MaK6dkGIX0OkzfgM4b07Ibh5fcQ/9zRCmzVCiLyOeeE5aZA0xbaqFbBXGiVRkmWzEcER0We2rcfxD97CsU/G4/SmVZIVSzZ8+IAA+CCyT2bh7IksHJRGxfLatbRbWq0uoVYIK4QLBOElt9yEyJFDcfL3X3DqpyU4suxbxD/bH3trlcM2yU43VXwEAQLbLVUfR3CnZmbKxvhRgxDz0nMIfqIP1lZ5DOvL3IcN5e7HtrrVsVmyzG0dWiNcMsb4UU8hrHNzyRKbILqbPxJGDUYGn0q0ZT2yVv4q/w9DVN9uAuaXcXjdnzgdEYyzchLPCISPSYMgpm9XhLRqjKS3X0V0x2ZIGtgDh6WRkDZiIFJH9MOhTz9E1juvIKVHB8Q3qoGERjWxf/AAHF36jbz/KtLHvI7M+bMR17k1oiSb5WQdhGRMZz9EtWyESL9GCK9Z2WS7oTUrIEj2M+mlkQhrVAfBvOVIMuXItm3MKOkwWT6YU18O7CJw74FwNkJqlMeOpo2wvtzD2FT5MYR3bYPDv3xntv9M4E4c//pLZL7wDNL7dsbBl57CyW0bcp5dfERAfCIT2aeycOZ4FlLXrzbz+VrPjbe+0LSV5gk/995rpgss6NSIFzW71jnzkHaxq68QK4QVwgWC8Pd33IaMyWMka1uHkzMnIXPeLEQ90c88TWhv83rYLVngtjqVsKHqYwgb2A9R/ftIVjgNKQu+wqamtfHbQ3dj1f3/wYZH70VQ6xaIeHoQ9i9djKO7AnA8aBeO7d6GYwGbcUIyvpNhgQZQzBJPx0bIewE4tms7ToTsxdkEeT8xBtny2dmkGJxYtwL7Xn8e4b06IWZ4f+ysWsYMxkodORzxkkUn9O6M6BbNENOsPuL8myOuQyszCCvtqUE48NQTxodnfY79Auw4ycojG9ZEbAeBb7M6kg3XNYO1ov0EvgLYkMa1sbv8owipXwP7Ro4wcI5oVNdAP7Fbe4Q1boCgutUQJGXsG/MaYrq2R4Rk1BGS0YcNH2puydrBAWB9OuL4zi04tXUDDn80DhkjByFlyEDE+jVAoqx7/1P9cOLH+QbE2UcJYsmITx/FkfhI/NGkcYFn1bJ7gAMfCM8J6vkIQj6u7ULPoi0ME/CEPZ9Jyzl5fQ58tboYWCGsEC4YhEvfi8yfl+HM7gAc/foz7JNsNfEtAc3wvtheryrCn38Wa6s9jtVlS2NLrYoIqFkeMYN6IGXmVGyoXQ6/PXA7fn/gVmySZaIk44t+ojcOrV+F03Iyzh5IFafgbFqSOBHZ+5OQnZGK7INpZtTw2fRk+Vy8P9nAN3tfrCyzz0D6VPAuZP2yFJHdOyB25FPYLJnmtrIPI7x1E0S1b4WIxvURVK0awurVkSxXoClZeJRANL5lU2TI9h+dOxNH3noJ+3t3QlzTuoiWzDVMtj1U9oG3GIU2qIVwyYCDalXB3pqVsKdSOYQ2rY/UTyYi+eknBMK1EO3fGPFdJct+7lmEdOuMoFZNkT57hrlWHCYNjpB2LbHLvyl2CbB3CqDTZ3yC46t/w+EP30bWhDFIeWogYlo3RIx8L6ZpHSQ0r4WMp/vjTPheZB86ABwTCJ86bLql929dX+Bs2P1RdmBdOX7cPKaNf2k+Qo9PUmJmbJup2r3nhTmZPx9bl75tm3mWq9NHwV1yc7/VV7atdcILK4QVwvmGMDOVX6tURtaaVTi1fjVSX30OsU8NQUSfXgjp3gpbKjyMHQK2zVUrY33lR0xGvLVGWYS1a4KUWZ9ia+OqWF2mtPytjYgRwwRWgxHRsyPixo/GyehQZGem5ZjQNffKCnD5miZ8M869zkyXvwLsNMkQ05MMrM8mxeLknu1Ie/EpBDaojk2PP4iN5R5EkGTf2yvJdlUqi73Vq5mHLSS98KyAsTXiOfCqWV3Jhgfi5Ka1OPHHLzgwfCASJWuNri/grVHBXPsNEyDHPtlfoNsQoZL1cu7nUHkvpmNrpD0n+0HQN6yFhEH9JeufjuCuHc2kJVGD+yDtw/GIkKx7j18T7OnaHVvq1sTGimUQ0rEFDs6bhcxJ43Fo9qdIfLIHovzrS5lNDbQjZB8iapVHSt8OOLV3W05jhNeHmQ2fOmSy4d/q1C5QluoOYUI3de1aRM6alfvcVD4Hl49sW9ejR+7D4fkdPqHGdGE/8kjOU4MEpq4n8Jiy5S+fPsOZ1NhQMF3csjy/x++zHH7OJ9ccDAw0z6cN/vBD81QaPrVn0bmymOnzaUF8qDqfSMQn1vAJO+bJNgUMhF776pw5zxfKb4Bzoy8Sf8PHDsq2qK8ML+JjF1l36X+ee7BGPuqhQlghnG8If3fXXUiYPQunIsJx/OefED9iECKHSBY46EkEdW+PjY8/gE1lH8DWmlUR0LgGAts1RnivDogb2B3pS+ZjR6s62N68IRKnf4rdrZojpJU/AgVmUa88hxPhQQas2VkHcDZLIEufgy//ns3cb7JBQvqs6+9+yYY5zWNitJnu8YyUcWj2dEQ0rI5dZR80M1btqV0dARXLYluFcthbqwaiO7dH+pSPcHDSBCR3ao0kyV5Te3QwED4TEYKTkpUfHP0SEni7kmSrIXUku5dtDWtaD4HVyyOoblXED+mF1AljkfbSc4hvIZmrvBfX1h+Jr74ojY0Z2Nu2JQIkm459bggSBvaSjL8HNlWthBWPPSiNkEewo2EdJI95BQm9OiK2W2ukT56A6HbNESzg5jSbSa+8YK5BRzeogQOjhuF06O6c45Alx+CwWDLhM8cykbL6DwMm63lyancI03y2KsH6S9WqSPjhBwNmvs/nqxKGfFzcrjfeMM9QJTwPRUUhPSDAPGP1z9atc0ZtS1DiAzv+aNwYYZ99hvQtW3AoPBwZe/ciafly8zD4H2Qdv9Wrh2jJsk9J5s2Hqh+OiUHqunWIW7LEfMZt+71BA4ROnWoaB3w2b/LKlQiWuruiadPcdVn3qdDNxoAETAJ3sezXUj5iULbtRzkeP0nj42dafhfqy9xynnm+f5RG4LJbbvn/7L0HVFRXF/b/X+v7f++bHo0ao9HYuwhI70WqgAXEimKNIPbeu4kt1th7B8WCIgoiRelFeu82BBEVFXueb+87Tl6CQzKxJDGcvdazgGHm3iln9u88+5SLE9T+jvGFaahdcPv4M21RQFhA+I0h7NOqpTQj+UVSLB76nEDJzu0oXDwHWRPGI8VlEMK6dESEemdE62kiXKMTonRUccVIB3kEm7LjXoi3M0OKE8Fq68+INNFDrI4m0u0skTFiAB6nXSFXe0sC7UtyfNJkpPsEWna67I55vSxDWoJwmey2smJpXe1LctG8tIcnaj2JCEbJ5NHI6aaHZE0VJBH8kvR1ENdVHUkmBri1ZiVuTR+P4jEjcc25F64RhIvJFT85442XqfF4mZGEZ/GRqPQ/i9tL55EztUe2iS7S9bsiiRxsCoGYd+AqXzoLt8a6ocDKFIUOVrg2xg1JxvSaDLQQqdoBiSY6yOzXA0UzpyDRTB+XOrWHf8um0vuS2csWpfNnoqi3PfJ6Wku7b+X36yVdKjHTwhhFo0bg6rB+KHZzQeWlQLy8WSDrkNy9LZXpX97Mk9YQV6QnStdmrf45KavfQJjcaAIlAbnTzdqyRSpNP7t3T7qAPHfAGKx8QfknlAQel5RIYog+q6iQYBtgaio54jNdukgXoX9Kj33+8CEe37qFx8XF0v1LCbQBBFl2vnwh9V84eZDj5mNw+ZsvsB7Su7d0AXm+0Dw7cj4GH4vvw8+zNCJCuph7jRdsf0eSw/dEvXpS8vWn9yWEnH8EOfto6pDEdu6MOBUVxNHrFfqXiz7nGPrMoyjnh9N3Lrh1a5xv1kzqkB3/6iupndR4mcVqEhAWEH5zCJPrqvDzwZPzp1Hy03JkugxALDnbzOnTkOH+PWJ49m93U0QQhMPUOyFSowuSbbuhaNJY3PHxRu60Sbi2dgXyZ01BtKEO4ul+6d0tkTtrMh5npZLbJbg+KMcvD8vx8lG5zPUxfCvoJzvhVxDmMvUvd25KAH5xs0ia3PQwPBiVsWF4mpGCB+S6eTONNC01JKp2RKxKR3LFXZBmYYqbK35ANoE/i9fqWpmhcKAziocOQAU502envfAy5jKe+5/Ai8hQPIsMwQOv/Sh0dkCShgquqHdAWg8L3F61GKUj+qN49FBpRvSthXNQ5GiHZK0uiNdUQ6xqO6QY69JrN0eu+wgkdTNGtL4+QlTaI2swnW+qB27RY3MtjZBjb4lrY0ehcLgL8vo5oGCoC3Kce6OY3pN7B7ehMi4CT5Nj8PLWNby4XoinsdF4cmAnXoSex4OwQJzT0XrjCU2/gTDDduVKnKPnGTZkiDQ56yW1m8elpYgZO1baIY1LxSk//IDMDRsQO2ECot3dcTMgQHLMT8rKkDBrllSaZlf86Pp16fF3yQHHUoKJokSTRsfn+3B5me9TcPiwBNjn1C7ZecdOmoRwV1fp4uxFlID4dqlMTuDOWLdOOhdD/0VlJW6SG5fGxP+EA/kzYgCz8/Vp1AgXqN1HkHtPpe/7NYJwOQH5ESXex5R4hWqXHtLnzp//NWp7KdQZC2vbFv4E41Pkjo9Rp9BTCRALCAsIvxmEqXH5du6E++d9UXF4H7L62CHVsRfiCXbZCxci8/tRiDPWQoSBGpIH9UWYliq54k5IMjPAzVmTcO+CH25sXYMrvbsj3soEieRAr1joIsFQCwnDnHEv+jJe8IQrdsIEYd6uUQbfVxOz5ACWVCKNA78oLsKD8IvIHt0fyb27oWDmGDwkEFfyxRtc+yKDnkOSljqiCX7x1CFIJUecaW2BVD0tpBnqIcepF3J62CLP1gLXe1mjYsFUPA/xx4vwILzgn+SIn4YGomz+NHLCGtKFHnjLytJJo1BkZYhcYx1kmxtKs6J5U49CAmp2d2uk0WtOoPPF0etPo05Iqh295m760mvN4XL40gW41tMGWQbqSOdjOJgjf6AjOWxHZPW0Qx6BON+1P26tX407Py3Gk0BfPE1PwkO/06jYtAH3V/+ISl7zTO49beFceBMoXvu8lFBVCP/y/Dke0Re8IicHleRcXz59KkGQx4fP6cq2y+RxYZ4tfU5PDwHm5gh1dpYcM7tVdqlcOmZQB1paSuVldrjsmrPpPsE9e+IMz4Ju0kQ6Fv+8MnMmnt65I3UAGO5cWj9GsD9Px3+Qlyc9nkveXJbmcjg/D57ExXBnF81l67cZE69JEoDptfrScwwl15NGAC6j359QEn5O34OXdJ9f/vtfQKjWiT93/vyfU+fvCbW92wTklFfO+DR9D5UBsYCwgPAbQZiTYxyB9u7Bfbj1w2JkOJHzc3JE2tD+KFj1E4oWLETexOHkhLsh2kIPIaqdcJkdqEZn5A10wh0CRs7cCYgi6ITRbeGaKkgkgF8hsMWb6CBl7HBUEIh58tX/ytGvJmBJY8Xskl+VoctL8KLkGgGXHNJIR2lTkDhDNaT1sUXxltV4FB+Fu/t2IsvaDGnmBgTgzkjU1USyjgZSdLWQrK2BVCM9+p8xAbA7ikaSo7U1xa0hznh8eBeeEXifnTgkwfh5TDju799N7tlK2ngjz8EKJZM9kG+kgQyNTkhRbSs5al7ulG9tjnS++tKQwUgg+KdQJ4D3jE7t2xt500Yj2cYEJetXopygfqO3LbINNJGmr4X8Yf1xdfoUZPd3QsH0qcjzcEPOoN7IHzEYt+ZMxL3zZ1B2cD9uL1uCkjkzpFL2vTXLUXnCE3dCLrzxLOnfQJjaCkOXf2dXy0725vnzEmh5/JUBHGhtjZxdu6QlTbyU6QElhUpqT1xSZoeavX275IRPkdPN279fKi+/4CRBCYPhnr11qwROnnh1lJdHTZkinUsad6bnwc+HS8zskvm43BEoDg6WnDM/Xy6JS+6Znic79Ijhw+FVr95rr+ttJHfADOAwcjr55HQq6W9OvPjPf4SEfiNuF4+ozebSdzC0TZtfQfx7pWkBYQHhN4LwSUqA17ZtISDtxf2jx3DrwH5keHgguU8vZM+ah+Idu1B+5CCur1uOSItuBGEVXOrSBbHkCHOc7HHvoj9KTh1FAv0eqtaZ/qeKKGqEid3MpEsb8hrj3LnT8bQgVwIug5hnQUtXFZIgLCtHv7h1FU9z01B5JRKFs8ZI21tmONogtZcFsscMI0c+COV+J/Hg4jnkD3BEAl8+UV0FSRKACXom+kiin1nkgIu+H4pcW3Pk9bJBnp05bgzogfu7N+Np1CU8u3wRz47ux4uwIDwiCGb1tkNaNyNc9xiFYhcCpHFX5Pei2zRUkKGrQb/bIt/JARm2NsjoYY0UA13qBJgii+7D11jOneGBrKED6L07hNu8WYgZOWlSdndzZBLcuXydatkNifTepffpjTRrI6RTh6Zw/GgUzJuHojHfo2j0CFwd54HihfNwex11Ns6eoo5LuHQ1q+qflzKqPjuax3F5/JfLx6F9+kizmqVZ0ZQweObyLQKifIyWx4YLvbwkUDMUf4XwK6fLjvnKrFnSuC67YQYqjy9zGZnXBfO5FUL4yy8RZGf3K4RvBgb+OvmMAZ9PcOfz8TG5HP5Ot/CkxMmzYLkEzQ6YAfyE/pZcr4IELCTE4vbBpepc6iwG8Ux+6mDyhK2ahkoEhN8WwmtWYQElwQm1DMK8Prj8qCcqVq3AA09P3L90CbfP+iJv3iwkD3ZFyd59eBASiLJT3ojtYYNg1S6I1NVBjFZXZBKc7p47g7vBAbi6eT0izY1wiZxiuGZHxPAl/QY7I50Alz92FB4nxUvrgaUlOfyT1w7fLSP4FuFx+hXcDziJkg0/ovTIHqT3tUb28H7kftci2dEM4YYqCDPRQPYkN9zzP4PbW9YTyCyQxsAj55lurI0UHU0Ccldk0G2ZlmZIN9SS3Gi6viYyTPSQ5+yA+7t+xjMeG06IwfPEGDwKPE8dCTtphnQZ7ys9ZSyKeG9sE+oA0PPPsjRHgdsQFE6biARy+onktlMtTXGdOmvJ5I7D1Dsjrp8T7hGAH60kN+vogKsE6kJy4dkOtkg2N0QCPa9kCwskGBkh1daCfjdGCl8LmbfJpMfmDh6E3OGuKBjrjpuLFqBs13Y8OOeDipgIBPD1ht9gXFjR7GhecsTjv57k/uRJhGc7M5QrKQHwTGZ2wjxJ62zXrlIZmR9b1QnzY7l8zBtx+FGi4Qlf7JzZMXPJm90134/HlRnCDPa0Vauk+zNUz2pq4n52tnR//sljxLx711kNDak8zuVoPg5P3nqXk7PYBfOsVx4D5hI0O2ABYCFlxO2EHXEKddzOk2E5Tm1HmjWtoJ3VZgjbEITnzJ2JZT8sxi4B4T8L4Za463saD08dx93163D32HGU+fkhZ/5c5E2eIF0UoWD8CBRv2478CWMRTXCL0ibQdu2IJGtj3Nr5M/ImjkDJ4b3IdHdFEjnLaEN1RKu2R7x2FwKOKYr37pLGPl8WX5WWHfGY75P8TFSmXsHd017I8xiC3O/749aODcge0Q+J3QmuU8agaNl8JDtZIcJYHWEGXZDQqxvyZ01AOYH4jucBFJDzzO5uiQSCIZeJE/g5aasiz6W/tPlGspYaksnRpuioIYPc5+3lC1B58gieJsTiGakyNBDXJ47GjXEjcHfDStwcM0ICcLpGZwKwMYrmzcb15YuRQbBMMiIIk+vO7tcTef16I8nUAAmO3VHucxRPTnrhwYTRKBk6GAV23ZBGzyXNzBQJBppI0NNCjIYqOWLqKJA7v7l5I0q2bUau20hy4T2RO9QVeWPcUDBtOq4vmI+y3dtQcWwfKsODULpnI86rdMQJ6oH/XhmsuhTOjibYVb8fQ/hSv35SeZkhfCchQQJpxMiR0kxlyeW+gjC7Vn9jYyQvXoywwYOl33m2M7toLk2zw73Ut6907lAnp18dL8M1ys1NmhTGZe+rp05JjvsZiX/n3bvyDx6Uxo8ZwqWUmM6QO/8zr/d3RR0OnuHKs6B5EhaPAYsStNCfEbeX0kaNcJk6sryMqSY3LCAsIPxmEG7eDOWH96Hi4F6Ur1yK0mVLCDwrkT1jKopWLsf11auRMWwICpYsxfVt23DFzhJJ5OjijHSR7twTt/btRvqAnsgc5kIwdke8tQFC1drgUscW0triBHLHefNn43FGCl5cy8PTzGTcC/FHwfzJdNw+yPreBckO3QjgI1C07kck9jBDav+euGJriDgLPYJwdyT2JbBb6SHaTBNXHCyRNXcS7gT6oYIceMnqlUi36YYc14HkeHWQrkdumICZotVFmkGdrKGGNEN6rib6yO3viBujB+ERQfwpuWG+ZnLxklkEvQO4f3A3crqbIU2nC1INNZA/Zby0V3aspipiVXkWdgdpDDrdyhjZTr2oc2GE23u24umVaDzevx3lIwbiZr8+yOnjiHgzc+R7uCPFXB/RurqIUW2DZAMdJBkYIMOxFwo8RiGjbx9k9B+MLBcC98QJKJo4CcU/LscdasAPvA+jMvIyHu3dgduzp5BTdoFvs++UBtNrEJ49WyGE2WX76ejgTny8BEwJpgRkHjfmzTzkE7MYwjw+zYC+n5kpLU16dO2a5FqlWdAE6tKwMMnRcsma1x3fjon59Zg8znsvLQ2RI0ZILle+aQg/7smdO9IxuGzO48vRY8e+0x22+D3jsWBehsSzoHkSVvUkKyT0R3pM7TqJ3LBf06ZSe1L0XRQQficQnlv7IEzJvWzXNtzdvB7lS+aieFg/cnqOyCQwpBEYirbuQO6cucgkd5Q62g0ZY9yRZG+DNPtuKJo1DaXHjiBleD+k9CVY2phLV00K0+osXVM42kgLsQTArDGj8Sj5Cp4V5qDMazfSBvcmyBogiaAXY0rOmtxnpIUBEntaItZEHTE2pogw10K4kSrC9VURod0B4VptyIF3QIyBChLtTZA2fADKfI7h/gU/gtdC5PTvhQwrE2RZGKKwhwXStNWQqq2BDGsrZHQzRgbviGVlhIJ+DnjguQ9P4yLxhD73hxfP4dG5Uyjbsh4pBhqSm45X74BUezuCb2dEtWuFqA4t6fcOyOxhg0x6fVwKTx/QG5Ux4XgeF4WKhdNxy6Uf8m2tkEzuNlS9I9K6WyOVnsulzi3oeK2R3csBaeam0lWX+OIRedRpyBs5HFkE7qvTJlNnYDFub9qM21u34eH5c3iWnoonvqdxpwc5+D69cHWAM842b67wy19dVfeO5iVJ0R4eUim6+v1YPJEqcvRo3I6KksD7sKBAGkOOGTcOubt3S2PE0nriZs2k9cLXfX2lEjSDmlVBCaTI2xshvXr9OpmKgc/nZ2fNsJaOGRiIYAcHqZwd1L27tBEIPzc+J8+Y5o1CeBkTjz1LF35Q8FzfRFw65I04QiiB8jKkF3Ts6glWSOiPxLOmC6kjF0jfQV5frqgkLSA84xWEt78phFe+grBHrYKwDzWsu8cO4c7Gn1C++keUTHBDtq25tBVjyuRJKNi8BWnuI5E5xoOcqwsyXAch220Ecj2G487RQyg5cgDJI1yRv2ieVIpOcOyJlEEElnWrUbRwFjIZTiuWozIzFY8SopD9/UAkO9ogwliDoGuLK070u7kOEgc7I5KcboS5HvxNyH26OiPazhhJfewQoaeCS5ptcFm/My7rdcGVPvYEcROkDnJCzrSxKDuyB/f8TuH+KW/cXrUU18iZ86UKM80MkWVjiRtTx6GQOgm3f1qC8j1bUBlATjguAk8iQlDhtQ+lcydIk8ziNDsjTkuFoNkRiYaaSDXVR4qpLjlaQ+lyi7ljRyFzoBNy6f14EHAaz1MJMj//hLKJ45BjZoQYTRVcUFdBuG4XFE2fTCC2QFiHb5Gg3gZJWh0kAOfY2Uh7Xt9aMAvF82bh+sTxKFm8GCUL5uLO1i24f9wbj8Mu41lUBB6TQ79trYdyOzPcnzoeRWPG4KQSy5aqXkWJJbngmsDG5VreLapDB2mMlsdtT5Lr5dukGdEELgYnu2ae/cxlaR4z9icg84xonowlbUlZZayZz8XnZEfMZWt2yHxMngzG/+PxXr6ww2n6np03MpImh/FxJYgrKPO9sXhXLHIwvPECb8RRTq9DlKKF3kQvP/oIZTzUQu2YJ2hxu6reVgWEBYTfDMI8McvrAEqWLUXZ+jUo+2kFro75HkmW3ZAyapQ0gzd7+hQkOXRHxsihSHXqgbzJY1GyeycexUfj9unjSB0/Fvkzp6NwzmRcXbkUGc49kDm4PwoITtkeY1BCju5RYgw9ZiOyx49AUj87RNsaI9pcG2FGaogw0USYoRqCdClp63dFADnaQEN1XNBuR7erIrBrK4JbSwQRzILU2+IiAe2iZkeE6qkiylQTGaMGoPy8D56kJ+FpQjSehgXjcfAFVBw9jJI503GdXGuBhT5KPFxxd+UiPNi2Bo8v+OKh3wlcn+SOLEc7pBG0s0cMwtW5M5E7pB9K1/yAh/5n8CjIn9zyeTwix1wZEYpHoYGojArD86xUgmUISmdPQZaVBa7oaMG35Xc40aIeQto1Qhpf5EKtE+LJCUv7VBPM8wjAhT3tcW3IAORPmYQYCxPkWerj9ozJKF/xIx7s3Y1HZ07hacQlPNqxAxVLFuLx4b2429cK9yeMRtmsabigpipLAAo+y7cSJRQGrTJOm+/DZWdpLe/v3Z+Pyfer6T6v/v+7x3gb0fF5T2DeijKavtO8EYeYkCX0JuJ284A6muE8Lsyz/QWEf5WA8FtC+FSL5ijxPIjba1bg1owJuDl7GoqG9kcqgSNjODneWXOQNWUa4u3sEW1hhmirbshdsBBlR72kyw/e8TlKLrYvrs6ZhhsbVyHOxgTBnVoiVKMjcgneWRMno2DvLpSf8ULWyH7IneaOWAcTxDh3R6SFNsJN1JDk0hORBl0QqtMRp9Ta4LhaO5zT6oQQAmwYueRA9dYIIfAGq7fHRYLwJQN1nNPogEvkEMOM1XGF3GLepJHUKYjEi4IsvMxJw8vcdPo9G8+iL6PywA7cXzoHd9yHoZhc9E0XR9xf9wPKt67B1fnTke0+AjfWrsD9M8dlsOVNNILP4nlirDSDuuLsaTwkGD+Oj0JlSCAenvXBA+p8XB8zAqnkkpN1VZHm5IBANXpuKq0Q37EJMsgNx3dsjgx9TeTTe1dga4GCnnbI79MTBWNGwltHD5PJ+Z1v0QB5Q/rg9vpVeOB1CJVHj+DJiSOomD8f9yeNw5OgADz28cb9Ib1RuWUDbkwZj5MKxneFFIgh/MUX0t7AvBUlLzeRNmdQkGSFhH5X1G4qCbwRbdtKa4YVTc4SEBYQfiMIH//6a6S7f49rBNHMbvooHDUE18d9j2xrI+S4eyC5X1/E9+lDMLRAlFNPxPXn8vIK3FizHA8C/fEg5AJKD+zFrT3bEedkg0DNzjin0gbhxvpI7NEdWW6jkb1gLnJnjEaslTYy3AYg3FIDYVY6CLcxQLhRF0Rb6iDMQAXxPc0QZW9EgG2NM6rNEaDZTipVh5mqIkSXHLBqSwJdawSwGzbTQvLCGQgy10IUQTipVzfc9fHC86s5eEl6EXEeLwuz8Mu1fBmUr0Th2aVACWqV5JKfxISjkpz8A3K398lFV0aE4EnUJTy96Ev388dz3lUrPBj3f5yH6y5OKBo9DLe3byJwb8TtBXNwfdpEJDJoVVsj3a4bri5dgpQe9kgy0EG6vgryHR2QqUM/rcyQYaiLGJXWiDI2whl1NYRYWMDP1BY72qth05efYl2jBjjXwwo5Lg64O2M8Hq5ficoTXngaE0UdiTw8TU3Gg7WrUDl5NEpd++JUg3e4hvbfLC61f/mltEk/7xEsICz0xnoF4ch27QSEq0lA+C0hzKXC0982QoaxBrk2beQPHkhueBaujxyCa/MXksPrjQRSysQpSBzvgYSRQ5H/4xJcW78W986exQN6/8qO7EP2hHFIdOmPhCHOCLc1QhQ55lhjQ2QN6ofsebORMtAaUYYqiLHQREx3YyQN7IFoO0NE0d9xBN5wcsJRdkbIX7MMEeSUz6q3gR/BNthEHYlDnRFq2AnBmuSItdsT6NviOEH6FB3vrE57hJtrEuDUkDd2OB4TbPnCCC+vZuN5VgKBOBu/XM/HL9mp+CUnXeaQCxnUBXh+6yYqCMQlG5fi3qGtqNj9MypWzMPj/VsJ1udRGXQBd9etxNUhA5BNr4PHxLOHDcLNqeNxbaw70o26IkVbBVlOdrhz0ht59N7kjBiGnN529H4aI89cHzmug+D5XROs/vRjHGzSABcMjRBmpAvPlt9hb4tm2Nroa+z6pj58dTshf+VC3D+yV3LZT8iFP0tPwgt6zi/yc/DE7yTK7Q1RpNcJJ+p88drnKKRAcgh/9520Wb+AsNAbqyqEGzcWEK4iAeG3hDCLZ/tl93RA7uABKBjSD9fpPShdOB+lixbh1sJZKNmwBje3bEXSyO/JEZsg0dUFudNn4taWLdLypmurFiLW2oRkjHArIwRoqSDC0gQxpoYonDYepSePomCWB9IGOiDCSBXx3U2QMWow8mZNRkJ3PcR2U8eVHqZIGeJEIO9BbtgUgYaq5HJ1ENvPHpG2uoiw1sBlUzVEOFpLgD7euQW8uzTHBXLRyeNGIIqOkdGvO+75HMHz/Az8UlyIl6yrufilKEe6ItMvDOSreXh5owAvbl7F05vXUU4Qzpw9FtkjeiPXXA1F3fVxe9lsVPj74uE5H9z39UGZzymU+PnihvcxpA1wRuG4UbjF1xPm/bLV2iGT1wv7ncHNHxahaN4c5Ax0Rm7vnkg2NYZ/V22sbNgQe76pgxPNGiCI35tupvDp0hn7O7XD2mZNsLt1KwTa0nsy3R2lh3ai4lKAdIGHJ+TGnyXF4UVGCh7t34MbA3ojkODt+dl7GkP9t0lAWOhdSUC4RgkIvwMIc0k6e7gr8sid5g/uh6KpU3BzrBse7N2Fh4e34MGJYyihBnSljyMu63bBxS4dkdS7N/I8xqJs+3aU7t+J5DGjEdPTHmFmxgjWIldLEI6zMkHh8h9x+4I/ygPPEqyXILm/AzLdhuPqwtkomDdTAmeGsyWSe5kg3oEcsakKIsnZBmh3ICfcGhd0OiDMSgtZBMZgcs4+Wm1wrEsLHGjXCF5qrRBgo4/AbpoIM1VH9qgBuDptFB4G+eLF9Tz8wltjXiMXfLNQAi9fnYnh/IKg/DQ/Cw8zU1AcehHR44ci0kYX0W0bIrbt10jUaYvCoY64Nnkkrq5YiPwf5qFwxxbkrFuDFEcHZDg5IH9EfwRZmCCkfTOk2Vng1tYNuLF0AQpnT0POqOG4NmkCylYuR/7AAcjlCW4jXJFoa4sQ6oDEDHBCoK4eAqjjE+AxAcfo9uAhfZC+dBZueu1BeYAPKsKD8DAmDI+iL+NJbDiehAShfMYUpPe0hne9r177DIUUSEBY6F1JQLhGCQi/AwjzrNgzTRojUbcjCsaPQo77SNyYPRlP46Ok7R2fhAbgYXAArhFUYgmue5o1xtm2LZFobYfrk6fiJr1via4DEd/XCUmDXHDFzhapLk5Idu6LvAULCSxHcS8qHHfIXZZ6e6KMt7oMuYhy/7Mo3bkR+WMIVG4DkDHQBin9rZA8wJIcsQOCjboQiFsi2EIDmUtn44JZV3irNsXBDo1wqGNjHFNrDV9tVfjrdkKwTjvEW+gi2cGEOgw/SvtQvyT4cimad+liEP9yIx/Pk8LxNCcFD5KicfvSeRScOIywKSNxwUITga3rI6hlQ/g3/BRxKs0Qrd4Rvq2/wQmCfuSIAYifORWRjj0Qw2uJbS2w+Jv6WNPwM4RotEHBWFcUjXZFwcSxyPdwk0r6pYsWS2uHr5GDvdqvN5LtbHCZfkaNHYMwl35I3bIW0T8tR+icqYhdPg9Z+7bimi91eAJ9UR4VgvLLgdR58cODwDN4Fn4RtzxG4myzpjXPNhb6rQSEhd6VBIRrlIDwO4Aw69gXnyJWuw1ublqJbI+hyJw6WXbN2xA/PE2MwxO+gtGBPbixYDZy581BLkHmkrEBrk+fgmvTvkeUgw1inB2ROX48ChctJGD/gMyRrkjvTyDmiyP8/BNyR/Pfjkgf5CTtx1wwwQ3lx73wIPISHkSQ0zu8DXf9TuDuRT9yoIuR5OaKIFsTBBJcLzt0wxn1NjhJQDxCAPbs1BTH1dvjuGp7BJnpItxCB+EE4xi9Dsjpb4+HDK7kKLzIScXL9Di8zErAc4Lvo0sn8SAlGndiQlB0ch/S925CoLsrzphp4FybhjjbtB7O1P8E4c3rIbBFIxys/xF2fv0VtnVshvMufXHJZQAiTfVwUacLRnz6EVz++3+wvUUDXLE3QYqpFjL4UogDnVAwcjhyhw4m19wLWb1tkdnDAkndLRA1aggieNnXkT3IPX0UaUcPIGXfFmQc3om8U4dx8/JF3I65jJJQfxTz9Z19vFB+4pA07p48fBi864tJWUqrNkKYXx+BAI0aAQQL1K0LfPTR6/d7n+LzNWgAfPstQPkI9FkovK364/7JEhCuUQLC7wjCvO7too4mbqxfh8xx3yNpnDsqLpzC3X1r8Cg2As9ysvA8IxVPk6/gcXy0tFvUne1rUXHaG1mD7GXlZyeCz0/rUDBrjrQVY/bIocgbPwYl+3Yie1AfxOup4zK5S14fm+LshIw+PXF7xRJU8l7OhVwizsSTnHQ6Xxjyxw1BooMZgrVVcFGrI8JMNBGsT65Xqy1OdmyEk52a4YQKl6Zb43IPG2kjj9AuTRGt1gxZpl1RNn00KnatwLPoQLzIuoLn+al4kHAZ5QEHUZ4YjuLIi8g+uAGJm1fgZF97HNZoi6NNv4Dn1x/jaIOPENKiPvya1YfnN19iPzn/ze2+xfFetggaMQjB/Zzo/h0x6NOPMeiT/2BblzYItTPFJXNdaUlVvL0VEp17IIKg66uljtMaarhooI1oWzOkrPkBqQe2oijYD4UXzyLv/AnknPFE9qkjyPf1wtULvrgWcAZXT3oif992FO7YiPy1K3BOTRXef3IP6Vqv9wVhOi6aNwdatwaaNn0dKPx3kyay/7doAfyVu3Txc1NXBzZtAnbsAAgGEoir3++PxNDk1/Em7xfDdto0YM8eYNUqWYdA0W3VH/dPloBwjRIQfkcQ5gZ1ihJL0bq1uLp5DbLpDb13fDeur5qDRyEX8CQiDM9SEvEiLxPPczPxNIXAlp2KxwnRuL1hOXJGuCBt2DAUHziEvKmTUDhpAkoO7MU9/7O4vXUNCid+j+QeVggz0ESIVlfEmJki09EB5ft2o/JKDJ7mZeFpYTae8f7SdI6KC2dwbc5YJPc0R3o/e4K6G1K6myPGvCsuqDTFhU7fwb9LW5wmdxygr4bLRmqIUm+BBI0WyLPQRvHwnihbNYWeZyRelt/Ek+vZuHPxOEovncGtmGAUBBxDwsb5iFg6AwepA7GjVWPsIfju//ozHPrmE1xo+TUl769xqkVjeHdog33anbG1mxm229ljm30PzG/fHh71v8LEb+phT8/uOOs2DD4DHOHn7IAg6lyEUMcg1MEWAabGOGWkjyPaXRHp5oLE7QRVfx9cDTmPIknnkHvWC1k+nkg7vBsp2zYgfdNPSF4yH/6G+jjZgjobTWQ7Vr32mQn9vt4HhPnxLVsC584BmZmgjCoDrfy4/LNZM+DIEdn/KdmCEvdbn1dZsQu2sQHy8oDiYmDpUoA6b6/d7/fEnYYOHQBNTRk8/6yT5o4Jvy937gCJiUCrVopvq/64f7IEhGuUgPC7gvDHMjd8XksD+QTh9DFDcfPANuQtnEww3YmSI/tQ5ncSd8itPSRoPsvLJgin088MPE5LxN1zp3Fr/06U+fqg4nIwHtF9KtOS8CguCuVe+5A7ciCS7MyRPGo4Llt1Q8rA/iicPAGle3fi5pofcefUUdz3O4XHKQkEY5krrkyOxYPIYNw/dgClu7YgvX9PJJPjjDVRRUiXlris1YlctQ7CjLog3tIAKYZdkGHYGblmWsi00MDtTT/icU4ynt8txsP0SNzYtRz5e5aj0M8TqXtWI3rlNJxzG4TNqq2xsdk32Pr1p9jzbV0cbd8M/m2bIqBzK1wgx+un0wW+Lj2x2d4Ca7p1wxobOyzU1MUPnTtgk6kZTkyajLNz5+H42Ak4OdQVp4cOhpeFOY4SfE8b68C/Zw+cdrRH3Ka1yD57nFzwORQF+qLwwllkHj2EK1vXIfrH+Qiwt8WJVi3g3bQJvBs3gqeCL7rQn9D7gDCLXe6BA8DDh0BREWBu/j+3y07UwADIzwd9MYFjxwA6/2vHeF9iCNvZAZQPcO8esHIl0LDh6/erSfJOhJcXEB0N2NoClBdeu1/V+1e/jV/v2bNAZaWsI8IVAUW3VX/cu5Ci5/MuJCBcowSE3yGEWSeox5pJb2Sa2xDEjhyMjHluOOdshn02uvAd6ogtDjYImTcPZRGXCZhXUBkWgMfJcXicnoSH8RF4mBiDB1Eh9HukNMP3zp7NKF44E/luw5ExwR0RNlZIcnZG/uTxuDZlAlJszRCjr4rUXja4Nn0CyvbuwMPYSIJ3JB4nEezzs/CEHPe9C74o3r0VhTPGIbWHCeKN1ZHqaIMEM20kWBshwVwbyXp82cIO0s9knc64Sq/hUWI0XhCEH13NRvHFE8g7ugmZhzYgccsSXJ4/DnvNNLGg0ZeYW+c/WFv/Y+xq/i18TQ3g07YJzqm1wyUrPQRa6SJg0nDsH9ILa8xNsdrMAmttHbDTwR7Hh7nCb8EC+K/8EYcIxjsHD8Ve5/7YbWiEfbpa8GFHPO57hM+fg8SdW5FOnZm0vZuR9PNKXBo1FCc7tJege4yhW7fOa19sobfQ+4Iwl3fd3YHSUpmzmz4dqFdP9r+vvgLGjwfKymSaNEn2Pz4vw4zHRNlJt2kjAxPfX+406TlL46XsGvkxderIgM+ukRKdQkfKt/H/5OVxvm+vXq9DWJnz8334PbK0BAoKgFu3gBEjgLZtZeVjfn7c2eDj8fn49vbtZZUAdsz8fz6OIuBWvS0jA6DPQ7qNnwc/nt26/PFyKfuc5ffh187PiX/y3/z+vYvPmyUgXKMEhN8xhKWZ0u3bIdV9GGIdjFG0YSFixzhhr0EHrDLSQe/6X2GOSifELv8RN/1O415YEB6S462IDEKJ53YUrZ+PnAVjkP3DdGQtmIQMFwdkOFgig2FrYYCLaiqI72aOXLfRKJg8DlF6XRGsoYKkfn2QbGuF3MH9UbJ5A4p5G82Du/EwKR5PcjPxJCuVlIJHPGmJnPrViaNxfdpYZPXtjjwPV+RNHSO57YweZshytEWhx0jcWrkEFaHn8LTkGu5nJaI0+iKKCMTpe1chbu1cnOxjhRWtv8Xkuh9j2uf/F6sa1sGWFt/gpHoneLdtDt8ubRGg3QVBfSwIwq7w+n4AVpoaYiF9yVZYWGEnfdGCVyxF5M5tuERQvbD6BxwZNQIHnJxw3N4BXvqaODuoLwLHuiNo1DD4qHbB8RbN4f1dU3g3+RZevPOVGON9f3pfEKZjS6XarCyZ2/X2/p/bZWgeOiRzyVwS1teXgYtB6eAg+9+VK0B6OuDnB4wbJ3OeDBUGMCVrqWw7ZgwwaBDg6QnK1qCMLoNP1efBj+Hz8lhrUBCQmgr4+MhK0NwBkEOYj6vM+dlFGxvLXg+/rqdPgZQU4OJFYO1a2bnU1GTPMTRU9voJIJREAeqYS2V3fm/+CML8vhCY4OsrA3J4OChTy+5XFa7KPGf6fKXyO8ENCQmy5xMfDxw8CPTpIwNx9c/vTSQgXKMEhN8xhFkMYp/mTRFlroNcelMLf5iEk2YdMOW7r2D/2ceY1bYlLo51Q/5RTxRf8ENZqD9uHd6IjMVjETdjJC57DECQe39ccHOBj7U+Tut2RsboQUhzJiA72iPd0hgFHt8jzkADQaodEenYG0nDBiOxlz25215IoeTD1y3OcBuGoh3bcDvQHxXR5Lwzk2Xl79hwlG/+CRXHD6KCZxCvX4Xi9asJ3CtxY+k8FBLcS3dtw41Nq3H3vBeeXM/BvVRy18UFKEuLQ+r2ZQhbOB6b1NtgesMv4PHlfzGrwWdY0rg+tnRqhQOtv4N357Y4Z6SNs/pqCHYfhPNjB2O9uQHcvm2IiS1aYU7nLlhhaIjdvXvh9LjRCJw3DYFzp+PiJA/4DRyAsxYW8Gz4NTzJIXjxhcC/biDGdf9qvS8IsxgqR4/KYMsw6tpVVopWUZHBkCHGQGRYMCj69QOSkoCKClC2BUpKQBkXKCwEFi6UgZKPyY/h/8fEyI7L9792DRg9+vUJVgypqVNlx6A8IJ2TH8sO9vnz/0GYXasy52cxbK9fB16+BCUZmdO/ehU4flzmRHv3lr0+hjwfg38yWPkxy5fLXPLvQfjxY5n4OfLz4PePYc+vkcHMjppfmzLvGc/+5vc7MFD2Wvl+fFy+X0GBDOx/djy8JgkI16h3BuGfGMIL5mL8BAFh1lHqQYZZmuLGlvUoHOeEszotMfebTzGhVRMs0OiMdfraSNywHldPe6M49DwKPLchfukkXJzmBp/v+8PbfQAOD+2DzUZdccTSBIHduiJ3znQUL1mA/MF9kdu/F2J11RBhqIu4vk6IdbJHfG97XNbWwIWOHXC+XQuE6nRFuJkhwdkOOa59cXvLWjwOD5K2c3yWEidtYnF3/zZcXzQXN1evRPG2zbi5jn6uXoGrSxYif81y3Ll0Do/yUlEa5I2HN/JQFOSL5K3LcH60M35s1Rhj6nyMMV98hAUtvsb8JgThjq2wu01TnNTXwtEu7eBtrIlzTnbwbtUc++vWwc5PP8Guzz7HHvoS7udL833TCJ70nns1YjXCUf5JicST/ydKy3+v3ieEuVw8YcL/YDRsmKxky+6VQcDwmjFDBkout545I4MkJVsJIOzmwsJkoGK3SYlbup8cVAzVu3dlIOZJXtSp+83YLL8Odp58DIYYw4ld4t69QHb2byHMHQRlzs9Om0vZ3BHg2/mYW7YAY8fKbuf/c6l340aQawHc3IBZs2RQpFwkOdDqrrc6hPl18XPj17V9u2zMnOHJr4EdN3cY+LUp856xa+fZ3/x/fs8YxlxBmDJF9ry7dfv98ew/IwHhGiVB2MYas+fMwNJlr0N4voDwG+oTni3dDFkLZqFwtgcCTNpj5XdfYGrjbzClVWtMaPwtfAf0R/qPc5F9aBdSDmxB6LLpOOnugv0uvbHHpSd29e2BLebG8B/jjnPWRkhfMAd3tm2SrtiU29cR2bxMyckBKQTZeEtDxJDTjO1mhsumBjij0gqeLekcrVvgkmonpNlbI8feDHdWzMfTuMt4lnYFtw9uQ/pQcs725ihcOBu3DuxGrscw5E4cg2Q3V6TNnoyy4NO4nxKFsqgAgnA+crz3IWbVLBzuroeZjb7CyM/+S074E3LE9bCwcQNsbtoQe8gJH9NQx5H6X+EIgdeTd6iqqWwsQPvP1fuEMLtePT1Z+ZMhsnUr0LkzsGGDDF7sxExMZGOsPFGL/2YAMUScnGQlVIYZ35eh3b+/bDxTDqoHD2RA5XI2jxFXf+5c4uYJYexS+f7BwYCGhmzslEHEzpEhTDkB9vbKnZ/dJ5fTudzMj+XbGXLskPl/XP7l8i67T21twNRU9n95R4BhzMBnkP4ehHksncvrfD8+DjtrBrP8vvzeKvOeDRkCODvL3gN+PHc+uCxuaCgbq+bn/K4+bwHhGiUg/L4g/DGXpT+FT8vmiOxlg6Ce1jhqqoJp9epgTrPvMK9RQyxr3QzhHgOReZgg7LUXEVuW4/g4V2y01scac11ssDDGWvoy+VEP1rdPL4QMHYjS3VtRsmIJMizNkNndCjkD+yDn+yGIN9dHuIYqAtu2IBf8HQJUWiPUzgqnOrSHX/NGuNy6CRI7t8CN0YPw5JI/KkLOIW7yKIJla4QYqiJn/FBcWzoLGbMnIaJvL0S49kfSrEkovXAS9y4fR+X1bDy4mosrPy3ERbeB2N61PabW/QxjCcILvq6PRQTgXaoqOPh1Axz64nMcoS9w9S+Z0Aem9wlhVrNmwKlTMmDGxsrcKo/f8t+8hIndHJ/T0VG2XIiTKZdfGRoMLAYlw4udNLtNyju/goonVvXsKXt89fOy+Pa+fWUw4vNxJ4CdOAOMwc3lXQbp+vWyyVXKnJ+dLpdvFy+WuXB+DJef5c+Bf1pZydb6cpmYx3ZZDEUuX/Nxqzr6miDMM8p5LbN8TJsdPN/OM8q55K3se8bOmKF/8qSs8sC38/95Vje7YT62oslsbyIB4Rr1jiE8R0C4ujiRkRM81qQxDrZpjHXNGuGAnhZ2auliRoM62MZl6V0bkbBnI4JWzMWewQ6YptYGE1TaY4mmKuaSk12nq4OfdbWwQ08DGSMGIJ/XFBOAswb3Q677UFz/eTWyZkxGqIE2Trf5Dt5N65ELb4yznVrDT1sLFzTVcLFJXUQ1/Rx5Ntqo4E0tju7DMRtD7O7YDGc02iKymwYSXHohxrUPQnp3xwU7S1yZOQE3vLfhfshh3M+4gsLTx3BhcG+cpOd2kBzu7k8+xi56jfvIVeyjDschBm9Njlfow9P7hjCXmnlSFAOAYcjwYnCUl8scGY9vshtjl8n/Z1DxfXkCEY/5ysVriQcOlLk3eTk6J0e2Vrem58vH5cfIx0l5LJcd68evJo0xtBjC7Mx5Jrcy52eXWxOEGWbs9AMCZMdlcceDx4q5tMxOVBkIy18bw5ZfB7t8hijfzs6Xb/8z7xk/X3bT/DrlY+gMYz4Wj5fzZ1T9vXsTCQjXKBmErQjC0wnCi94GwiteQXiMgLAifUoNrg5BqnVLbG7ZDFvbtMKyrz/HStWOCPtxPkJ+WoJdrgOw3NoYVl99CYdvv8G4jm0wqXkTLCeI/kxOd4O6Cg7raSPKxghXrE2Qv2wBbu7ahJJje1HiuQvZP8xBUHcTHG75LfY3qo8TrZvivAoB1s4GYZ2aI6rJJ8jUb4Oby+ciasJoHHeywz5zQ/gPd8X5bvoItTZCWC9L+FsY4pypHkL7dkfuxnm4dmwH4qdNhE+nDvCsXw9H6MtU/Qsk9C/U+4Ywu04jI5mDY+BQQpVgwk6PXTGXjKuXjXkWs5mZDDYMJ3a/XN6VLzOSg+qP1tLKN+XgCVF8fx4/ZWjzxCi5Q2ZQ8tgtl3KVOT+DljsOPP7KEGbA8xg3/49hx7/Lx1/ZveroyEryfEw+trIQrvraFEFY2fdM3snh18zn5DFg3iWMOyV8PJ59zeet/t69iQSEa5SA8F8FYRY3OmqIB6nhe7VqgT0dW+J0P2cEz56BvYMHYGzbVujboB4M/vN/YVGvDlxbNMaUNk0xk6A6v10LbDcxxEEDHRzRVYe3thqukAsuWLsYN/cTiA9uQ+HG5Uia5oHQPr1xXLUNLhioI8xYA7E9rBBhrIoEoy7Ic7ZCweRROEMQ93TojpODByFkwjicNtHBWV0V+JvrwtdYCz566jhvZYDEpXPhq94FxyiJCJdby/S+ISyfQMRA4qTPk5MYGjzBiCcw8f9ZPNZ7+bLMoXGZefZsQFdXNobLwOR1xQw5RROaqp9TLgYmr7Vl8LMLZTjyWK6Hh6wUzsdgCPMWkQxLZc7Px+UJZ+wg2X2yq2SocWmYl/sMHiw7D0+W4mVMDEp+LN/GoFAGwtVfmyIIK/ue8fg1jx0T6GBtLVs+xTOq5bPF2S03a/b6e/cmEhCuUQLCfyWE5aLGJ7nJL7/AseYtcMLWHqs6q2Bsw3ro/V8C8Ef/xZBWTTFfTw2bLA2w2VgTW020cMDOEvv0tXBIpysOq3bCMc2OiBo7ClmrFyHvp4XI+nEOMsnlpiychqRFM5C6YAoyZ7oj22MgcudPwu0TB1F6cAfyly/ERXsLHHWwhp/HaIRMnQRvIy0c1+6Ms0bqBGFNeHftBK+G9eH9bWOxNKi26n1DmMVujJfWcAmagx1k9a0ieayVJyLxxCGGEM+oZmCxeOzW318Gi5pAVZN4DHj1aplj5Q4An5uBxceUQ5hnR/NkLWXOz8fk94hnQnPJWD7rmt02u1GGLq/p5TFaBrT8GHxOZcvR1V+bIggr+55x+Z5L0rzWmJ8jj0/z/xjA/DfP3BblaKWCmaWAY0pJQPjvgHBVkbs8Uvcr7KZkt5QgPO6zjzGpRXNs7G6BA07W8Ha0wUlnOxztaYO9FmY45dQTIaOH4Fx3MxzU0cCJ7taInTkB0eMGw6+nEYIH2uLioO4IGGCLS672SJwyGHnLJuPqymkoP70f90LOIZM+3CBrUwQOd8XFyeMQMm0KDhDwD6u1xYmubXFaRwU+2p1wpM4Xrz9fodqjvwLCXDrlWcI8TskOjMdJ2ZVVX07E47XsJNk184xqhgWXrXkfZXawXFLlXZ5275ZBiqHH5enq56sqeo3o1El2sQbeyILPz+6Rx6m5FMvjqAwi7hAoc375c+XnwR0LnpXMx+Tnw9t0MvSGD5fBlIHHY7C8vSXDkl9/RASgqioDa/XXUdNrI6Bh2zbZ7fzcGeDKvmcMdi778zg1A5z/z5Dm6gCX4dlNi4lZSgUzSwHHlJKA8N8N4Vc69LFsgtNeLlXr6uBM/97wI/ie6WGGM47dcdraGIc1OuGUrQUi580lcE7GNnLEnhpdcN7eGpeH9kfQiH4IHOYE30E2ODuEYDyqFyLHD0D6XDcUrpmHW0d3o+TgdsT0scelbrq43McaQe6uCJkyHrt0OksQPqXdEb7q7eHVQKzTrfX6KyDMx2PgyrdV5J+KzsN/88Qndpw8wYnLqDyBitf6MmwYFvScf736EkOKx5yrn6+6+D4MMoYxH0++xSUDin9nuPKxlTm//JjysWF+PVwC5jFYfl58Lt4whEHJZWE+JwOXb+PXzeKxakWvQ9FtfC6+nQHNt/Nxq77mP3rO/FgeE+bH8e28bphL71X/X/39elMJCNcoAeF/CIR/FTVM3gPZs0F9HG38NU7ptMdxLVVcGtwPFwnEfsZaCO7njEse32N31w7wUe+CU4YG8DY1gJelIYJmjsM598E4970zAob3QsSkoYiePBIJM8Yidfp4xNubIdJYGzH2pojqaYyQYX0Q4jESR/RUcah9M5zRVMPR+vVe+4II1UL9FRB+EzHk5GB6V8+Hj6Ps8ZQ9f03HrOn296k/es58++/9/20lIFyjBIT/aRCuKmqkR778HF4ExQAjQ4T1dkCQjRnOdzND2DAXhJKjDdLXwhk9HWzv3B4/q3XAvj694DnYGefc+uKCe1/4j3DGLo2O8OzaBQH6GvBXaY0QLTUk0WOTBtgh3KUXQl374YyOJo58VReevMxIAFiI9U+FsNCHJwHhGiUg/E+GsFzUWL3q1MGxhuSMO7XFGUMjhAwfgvhZ0xFkposL5rrw1lbFHhWCsIEe9nS3wA5bM6zSVsOiNk2xoU1j7G/fHBeszeGn2QkXu3ZEgo0p0p27I2ZQT5xo3hSedcQViISqSUBY6F1JQLhGCQh/CBCWi50xNWSvht/gdDdLnLC0xkkbS3jpqeOUflcc1FCBl4UZNhF8l3VsB/eG9TGnaUMc1tfEUU11BNtaIH6gM8J11RFHII430cOpJo1wRCw9ElIkAWGhdyUB4RolIPwhQVguarye9erhKCVHL1UVHDbWw+Hudthrbo5V6l0xvVEjDP/kYwz57/+PcZ/8Bxua1MOh9k0RbKSBZDtTJJrrIbLtdzhZry6OCPcrVJMEhIXelQSEa5SA8IcIYbk++xRHCMZH1FWxs3M77FFVw8qmTTDz80/h8Z//i0n//T9Y/PlHOK/aFv7q7XGqRQPEmGoj2kj7FYAVHFNISC4BYaF3JQHhGiUg/CFDmMUNmRLloa8Iqi1bSHtHn2/ZFD5Nv8GBOv/BgfpfIJYAfKxRHRyt+zFON28K73pfCQcs9MeSQ7hpU8SpqAgIC725qkK4USMB4SoSEP7QISwXJ8y6dRDeoTXiWjdFZNP6CPn6M0S3bYYkdsE89svOmVS98QsJKRS1E06WvgThmE6dBISF3lyvIBzRti18BIR/IwHhfwuESexuj33xOby/+AzeX36Oo599Qr/T319+AU+x9aTQnxVDmBLnmcaNEUXf6YdffYVfBISF3kDcbh7UrYvw1q3h07AhPD9//SIwAsICwh88hH8j4XaF3lbUhjhZ+tB3IrxdO5QTjF9+/A53URKqNXr50Ucoo3YU2qoVTjZoIDMFAsKS3g2Eo8Kx+qcVmE8QHjdeQFhI6N8iTpYnKGkGk4O5Rnr+iRJbQQoJVRO3m8LmzXGhWTMc/+orhZW52gxha4LwrNnTsWTpIuzcJSAsICwk9Eq8hty7bl2cp+SZ0r49nlS9sIKQkJJ6TO0mgTpxZ5s0wbE6dRTuTSAgLCAsICwkVF084e+LL3CavhdhbdvitihJC/1JcXspfVWKPvX11wrHg1kCwn8SwlOmTnz2OoRnCwgLCf3LxKVDLiH6sxtu1w6PyMmICVpCyojbycMvv0QiAdiPXXDdujVen1xAeBpBeCFBeNtvILxgwZzZ/5+ieN0JL38FYXcBYSGhf5NeueFTDRtKY8O5JF6uJEAs9Hvi9sFl6OzmzRFIOkmwqckFswSEFUO4RicsICwkVHvEY3g8lscbLYS2aYNccjbsiEVpWkiRuF2wA2YAB7doIXXgeOMXRWPBcgkICwgLCAsJ/Y48q4A4iCCc0rYtSul3djs8+5WXoUjuWKjWiT93/vy5HXB74DFgLkGzA1YGwCwBYQFhAWEhoT+QHMQ8weZ806a43Lo1kgjGheR27tB35yH9j3dGEqpdekCfO68DLiDo8ixonoTFY8BcglYGwCwBYQFhAWEhISXECZW3HTxet660+5EfwZgdzyVKvuFt2khbE/IewUK1Q/x5805YoS1bSuuAeRkSd9J4EhaPASsDYJaAsICwgLCQkLLi3bQoYTKMeR3x8Xr1pJ2QeHctLldLatxY6N+uV581d8b48+dZ9FwpkeCrYFes35OAsICwgLCQ0J8VJVl2OgxkTry81zSDWah2iT97SdQOJOf7J+Arl4CwgLCAsJDQ24gTr1DtVvU28SckICwgLCAsJCQk9DdJQLiWQ7iMIHxp7VoBYSEhIaG/Qb9CWFsbrgTh0aNHY9KkSZg7dy6WL1+OTZs2Yf/+/Th58iQCAwOJO1ECwv8mCN+5dQsRW7dig4CwkJCQ0F8uzrvLCMKj9fTgOnCgUhBOSUlBXl6egPCHDuHKykrcLStD4vHjWNOkCfYpaCBCQkJCQu9P+z76CAsIwiPNzDDUxeVXCM+bNw8rVqyQIHzgwAGcOnXqdyHM+VxA+AOA8MuXL/H8+XM8ffpU+tDu3buHHPpQV7Vti90KGoiQkJCQ0PvTLoLwtC+/xBA7Owx1dYWbmxumTJmC+fPnY+XKldiyZQsOHjwoQfjixYuIjo7+FcI3b95EGRkpOYQ5r3N+5zxfqyA8b/5sjB33YUK4oqIC17KycKBfP/xMDeGAgkYiJCQkJPTuxfl2DWlcixZwcXTEsGHD4O7ujqlTp2LhwoVYvXo1tm3bhkOHDuH06dMICgpCTEwMUlNTUVBQ8CuEOY9/kBC2tsLMWTII79j5BhCOJAivWv3hQvjx48fSh1daXIw4LkmTG97xySc4pKCxCAkJCQm9O3Ge3U6aWacOhpqZwWXAAIwYMQJjx47F9OnTsWjRIvz000/Yvn07Dh8+jDNnziA4OBixsbFIT0+XIFxMufvOnTtSHud8/qFCePGSWgZh+bgwf2gPHjyQPsTCjAycog/+p2+/xU5qGAcVNBohISEhobcX59cdH32EhZ9/jtEqKhjYuzcGDx4sLU+aMGECZs2ahaVLl2LdunXYuXMnvLy8cPbsWYSGhiI+Ph4ZlK8LCwt/hTDncc7n8vFgAWEFJ1RSfymEeRD/4cOHKC8vR/HNm0iLisIRagSrmzTBVnLEPFGLG4twxkJCQkJvJ86jnE/3kjYTgOcRgN3bt8cgBwcMGjjw11I0jwfzpCyeGb1x40bs2bMH3t7eOH/+PMLCwnDlyhVkZWWhqKgIt27dkvI35/Gqk7JqEYTDXkF41gcJYe458Yd39+5dlJaWooh6Vknh4fBZtAirVVWxukEDbPriC6lEvZsajZCQkJDQm4lLz+sply7+9FNMptw6SksLg3r0kAA8dOhQyQWPHz8eM2bMkErRPB68devWX2dG80YdERERSExMRHZ2Nq5evSrlbc7fnMc/XCc8lSC8gCC8tfZBWL5WmGfW8TT369evIzcnB4kxMQiinpfnrFlYb2mJJdRbm9OwIWbSmzajXj1Mr1sXU+vUwZQvv5Q0mUDNmkQ9O0mffSZpopCQkJAQJnJeJPCOb9ECo7S14dK9OwY5O2Owi4sE4FGjRkljwTwhi13wDz/8gPXr10ul6CNHjvw6HiyfGc0bdXC+rmmNsICwghMqqb8MwlVnSPOHyOMKPNOOB/sz0tMRFxuLkIAAnPHywpEdO7BjzRpsWLYMK+bMwSJqKLOowUzmhuPqCvdBgzCqf38Mp0bl6uiIIb16YXDPnnBhUU9PLqnsIiQkJFRLVDX/Daa8yDOgXfr1k8GXcidPxOJ1wQzgyZMnY/bs2ViyZInkgnlpEm9Xefz4cakUfenSpV/HgzlPc77mvF19eZKA8D8cwopmSPOgPo8rlJSUSCUOLnUkJSVJe5TyujTuhXl6emL37t3SGAWvXVu8eLHUYLjnxhMJPDw8pPVt3KPjhjV8+HBpjIN7eUJCQkK1XZwPOS9yfuQ8yfmS8ybnT86jnE85r3J+5f2iOd9y3uX8y3mY83HVUrR8PFg+Kav6zGgB4TfTe4Uwh/zDqT4uzJt2yEvSvAg8LS0NcXFxUu/L399f2jKN16rtIFe8YcMGrFq1Suqx8YJynsk3bdo0qSfHDYp7ddy4WGPGjBESEhKq9ZLnRM6PnCc5X3Le5PzJeZTzKedVNjpchuZ8y3mX8y/nYc7HnJer7pTFebv6ePBfBWAOZpYCjiklAWEF48Jc2uAp7zz1nWffsRvmLdJ4LMLPz08qi/DOLdxAeCu1NWvWSDP4eCr9ggULpL1OuTc3c+ZMaZ0bNzC5uKcnJCQkVNtUNQ9yXuT8yHmS8yXnTc6fnEc5n3Je5fzKeZbzLeddzr+chzkfy2dFy5cmKRoPFhD+ACDM5YqqJWkeT+CShnyWtNwN84Jwng7PM/J4pxY5iHnhOE+b55l73Gtbu3at1IPjhrRs2TKpR8dlFZ7hx7u+CAkJCdV2cT7kvMj5kfMk50vOm5w/OY9yPuW8yvmVL1vI+ZbzLudfzsOcjzkvc36Wz4pWVIr+q8aDOZhZCjimlGo1hJVxw9zbysnJkbZHk4OYe2Tnzp2TSiRHjx6Vems8bsElap5EwOMYXKrmRsXi3V5YPMmgquS3CwkJCf0bVVPOk+dGzpOcLzlvcv7kPMr5lPMqL0fiPMv5Vg5gzsOcj5V1wQLCCk6opP5SCCuaoMW9Kx5r4Jl3XJbmSQByEPPEgJCQEAQEBMDX1/dXGPMUel7LxjP5uDHt2rVLalgs3nKN9z4VEhISqq3iPCjPiZwfOU9yvuS8yfmT8yjnU86rnF95ZyzOt3IAcx7mfMx5mfNzTS5YQPgDgDBH1ZJ0dTfMe5DyjDsud8hBzD0wnhCQkJAgbR7Ou7ZwL40bC5dMePYe9964VH3s2DGpQfGsPm5ccnGJRUhISKi2qWoe5LzI+ZHzJOdLzpucPzmPcj7lvMr5lfMs51vOu5x/qwKY8zPn6eou+K8uRXMwsxRwTCnVeghXd8NVZ0pzmUMOYp6FxyUQXhzO69N4oTj3znjReHh4uDRrjxsOX+eSZ/FxGYUbFO9zyr06FjcyISEhodoqeS7kvMj5kfMk50vOm5w/OY9yPuW8yvmV8yznW867nH85D3M+5rzM+bnqjOi/ywVzMLMUcEwpCQgrcMPysrR8fJg/cHlpmtelFRQUSGUROYy5p8bT5rnXxqUTbkSXL1+WGhSLSypcvpaLG5uQkJBQbVHV/Mf5UJ4bOU9yvuS8yfmT8yjnUzl82f1yvuW8W9UBy8eB5WVoRS5YQPgDgDCHIhBXHR/mnhaXPHjsga9XyQvDuTcmhzH30Hi6PM/Y44aTnJwsTaHnhsS7usjFjYvFl98SEhISqm2S58CqeZHzJOdLzps85svg5XzKebUqfDnvcv7lPMz5WO6Aq++O9XcAmIOZpYBjSqnWQ5hDUVm6Koi5x8WD/7wgXO6KuVFw47h27ZpUJuEGw9PmufGwS+aGlJmZKTUqFkNaSEhIqLZLnhM5P3Ke5HzJeZPzJ+dRzqecV+Xwlbtfzr+ch6s6YHmu/rvK0PJgZingmFISEMZv3bD8Z/XSNK8hlrtiOYy5Z8bjE7zNJU+XZ4fMa9e4AXEPjhsTiycTyMWNTEhISKi2qWoelOdGzpOcLzlvcv7kPMr5lPMq51c5fOXul/OwohJ01fxdqyE8dx5BeOyHB2GOmkAsn6zFs+9Ychhzj4zHJbiBcImE16txo+FemxzM3IurLm5kQkJCQrVN1XMhSw5czpucPzmPcj7lvMr5lfNsVfjKZ0FXv0DD3wlgDmaWAo4pJTmEZ8x8BeEdbwjhlatkEPb4QCHM8UcglsNY7oy5LCIHMvfUWFXBzL246uJGJiQkJFTbVD0XsqoCV55D5eDl/FoVvnL3+08DMAczSwHHlNJvILx4AbbXZghzyD9M+YcrV1UYc2NgyYFcFcpycSOqKm5YQkJCQrVd1XNj1bwph25V8CqCr1xV8/XfGcwsBRxTSgLCCqLqB1sTjKu6YzmY5SXrqnBWdJuQkJBQbZSifFj1Njlw5ZLn2t+D798NYA5mlgKOKaX3AGG3Dx7C8qj+QVdtBHIgy1UdyjVJ3rMTEhISqk2qngsVSQ5cuarn3Oo5+Z8SzCwFHFNKMghb/g6EZysL4R8JwjP/VRCWR/UPXhGQq0O5Jsl7dkJCQkK1SdVzoSJVz6mKwPtPgq88mFkKOKaU/gfhKQTh+QThLQLCvxfVG4MiVW9EQkJCQkI1q3oOVaR/cjCzFHBMKQkIv8Oo3miEhISEhJTXhxrMLAUcU0oCwiJEiBAhQsRbBDNLAceUkoCwCBEiRIgQ8RbBzFLAMaUkICxChAgRIkS8RTCzFHBMKQkIixAhQoQIEW8RzCwFHFNKAsIiRIgQIULEWwQzSwHHlJKAsAgRIkSIEPEWwcxSwDGlJCAsQoQIESJEvEUwsxRwTCkJCIsQIUKECBFvEcwsBRxTSgLCIkSIECFCxFsEM0sBx5SSgLAIESJEiBDxFsHMUsAxpSQgLEKECBEiRLxFMLMUcEwpvTmEp74O4TlzBYRFiBAhQkTtCmaWAo4pJYawFUF4+owpEnhfg/B8JSAcERmGFStlEB7jISAsQoQIESJqTzCzFHBMKb0G4e0CwiJEiBAhQoTSwcxSwDGlJCAsQoQIESJEvEUwsxRwTCm9BwiPFhAWIUKECBG1JphZCjimlN4RhC8ThH8gCM8QEBYhQoQIEbUqmFkKOKaU/gfhyQTeeQThzQLCIkSIECFChLLBzFLAMaUkICxChAgRIkS8RTCzFHBMKQkIixAhQoQIEW8RzCwFHFNKAsIiRIgQIULEWwQzSwHHlJKAsAgRIkSIEPEWwcxSwDGlJCAsQoQIESJEvEUwsxRwTCkJCIsQIUKECBFvEcwsBRxTSgLCIkSIECFCxFsEM0sBx5SSgLAIESJEiBDxFsHMUsAxpSQgLEKECBEiRLxFMLMUcEwpCQiLECFChAgRbxHMLAUcU0oCwiJEiBAhQsRbBDNLAceUkoCwCBEiRIgQ8RbBzFLAMaX0xhCeogDCs+cICIsQIUKEiNoVzCwFHFNKEoStLDFt+mQsXPQWEF6+QgZh9zECwiJEiBAhovYEM0sBx5RSdQhv+3/tnQd4lNXSx/fea+Oz3WtDsV+7IEWxNxRBQRSkCBYUpaf33hNI6ITQQi8hlNAJvYYWCCWEEAiB0EEUlCaItPnOf5LNDbtvkjfJbrLZzDzP/1Fg993dt5zfmTkzcwTCYmJiYmJi+g3M0uCYLgmExcTExMTEymFglgbHdMkKEO4mEBYTExMTqzYGZmlwTJfyIPyJJSDcS0HYRyAsJiYmJlatDMzS4Jgu/Q/C7grCQQJhMTExMTGx0hiYpcExXRIIi4mJiYmJlcPALA2O6ZJAWExMTExMrBwGZmlwTJcEwmJiYmJiYuUwMEuDY7okEBYTsxO7fv06Xb16lf7++2/666+/6OLFi/Tnn3/S+fPn6dy5c2a6cOEC//ulS5f49XjftWvX6MaNG6aHFhMTK8bALA2O6ZJAWEysChugCXgCuKdOnaLc3FzasWMHbdiwgZYtW0bz5s2jGTNmUGJiIk2ZMqVA+HNSUhLNnz+fli9fThs3bqSdO3fSwYMH6Y8//mAwX7lyhcEuJiZWvIFZGhzTJYGwmFgVM4ARgIQXe+zYMcrIyKBVq1bRrFmzaPLkyTRhwgQaN24cjRkzhkaPHk2jRo2i+Ph4M+Hv8e94HV6P9yUkJNDcuXMpJSWFdu3aRb/88gsDHh62eMhiYtoGZmlwTJcEwmJiVcQA38uXL9Pp06cpKyuLVq9eTdOnT6eJEyfS2LFji4RtaQUwA8qTJk1isK9bt4727t1LZ8+eZa9bYCwmdrOBWRoc0yWBsJiYjRugB/j99ttvHGpetGgRe7yWBG9RwvEBZHjICG/DO0a4Gp64wFhMLM/ALA2O6ZJAWEzMRg2QQxj4zJkzvF4L+MI7RfjYFJYVIXwu4I815OzsbA6HY01aTKy6G5ilwTFdEgiLidmgAcBIjkKiFdZ7Ab/Kgq+p4IEjsWv9+vV09OhRDpGLVyxWnQ3M0uCYLgmExcRszIze7/bt23lNFuFgUxBWthCmRiIXsqszMzPZK5ZMarHqamCWBsd0SSAsJmYjZlz7Rcbz2rVr2ftFkpQpAG1J+H4oeUpNTeU1a0wgxMSqm4FZGhzTJYtC2D9AICwmVhYDgBHWRfh5yZIl7GWaAs9WBa8YGdrI1kZ4WjKoxaqbgVkaHNMlI4S9vBWEw8oD4Zh8CPcUCIuJlcYALHSsQhnQggULbDL8rEeYOCxdupQbfgiIxaqTgVkaHNOlwhAOVRAeGS8QFhOrMDMCGNnG6G6FpCdTuFUljR8/nhYvXlwAYjGx6mBglgbHdEkgLCZWSWYMQe/bt88uAGwUQIyQ+pEjR7ieWEzM3g3M0uCYLgmExcQqyQAoeIwLFy60GwAbhdD0ihUruO2l1BKL2buBWRoc0yULQjhKQdhbICwmpsNQzvPrr78yqOA5mkLMHoRkLbS8RLtLWR8Ws2cDszQ4pkvmEB4mEBYTs6YBSKirRVkPQGUKL3sSyqxQ74zGIwJiMXs1MEuDY7okEBYTq2DDOjB6MKO+1tq9nytbqCNGw5H9+/fL+rCY3RqYpcExXRIIi4lVoGF9FM04kpOTbaYNpbWFkiuE3X///XfpqiVmlwZmaXBMlwTCYmIVZAjHYm/ejRs3VqlmHJYQwtLp6ekcBRATszcDszQ4pksCYTGxCjK0dERYFnsA23sY2lQIS6PP9IkTJyRbWszuDMzS4JguCYTFxCrAjMlYKSkpVbYjVnmFJLS0tDRuTiImZk8GZmlwTJcEwmJiFWBGL3jq1KnVzgs2Ct7w3Llz2RuWtWExezIwS4NjuiQQFhOrAEOJDvbfra5esFHwhrdt2yZrw2J2ZWCWBsd0SSAsJmZlg9d3/PhxLtWxtheMjGuA3qiStkLE90G3LuPr8X5rfkccf9GiRbxfstQNi9mLgVkaHNMlgbCYmJUNGxns2LHDqo05ALfExEQGHPYiRgY2ulUhGaqoUigAetq0abxOjdfDU1+2bBnNmDGDu3hZC8YJCQmUk5Mjew+L2Y2BWRoc0yWBsJiYlQ0JWaiTtVZ/aHiw2DABe/leuHCBQ9/4zHPnzvH2iJMmTTJ7j/F9AC/qd/F6lE9Bp06dYiijrMgaIMbn4viSoCVmLwZmaXBMlwTCYmJWNGMo2lplSfBysXUgwImOVADw6dOn6dChQwzg4uAPT3j27NmUlZXFG0lgswXAGB7q+fPnafPmzVapZ8bnYt9kCUmL2YuBWRoc0yWBsJiYFQ1gRItKa4WiEYI+fPgwfw6gtmHDBg4xw4uFB1wUgI0CEPHd8Hoca+nSpdzRCyD+448/GJYlrSuXRQhJA/xSMyxmDwZmaXBMlywLYX9v6iEQFhMrMIRcAUZrZEXDCwY04b3ic7AhRFGhZ73C98TWitj5CBnMWMu2hjeMY+LYWC8XE6vqBmZpcEyXAOEmgLBXOSEcrSDsJxAWE7vJAEiEi4tKjiqPkDyF5heAJdZ/k5KSLBLyhleMmmYc98iRI/xn09eUV4A9EshkXVjMHgzM0uCYLhkh7KkgHBIaRCNGCoTFxCxiWO9EiBjZxpaAo6mM3iRAdvLkSQ7xmr6mLLLWcQvLWKqERDAxsapuYJYGx3RJICwmZiUDhH/77TfestAUQpYQPOEtW7ZwEhXWVy3lseK4mzZt4uNayxPGpASeOz5DTKyqG5ilwTFdsgKEuwqExcQoLzMaLRqt4UlCxuxmdKDC2nBJSVh6heMCkDju8uXLLXZcUyERDMlfkiEtVtUNzNLgmC79D8JuCsKBAmExMUsZMn9Ru2sNT9IoABLZzcbuWPAwyyscB+Fi43Hxd6afawlhcoLSKoGwWFU3MEuDY7pkDuGhAmExMUsYIIx6XWtAGGAEJNEKc86cOVbTzJkzOTxt+vmWECCMcL1s5iBW1Q3M0uCYLgmExcSsZIAw1mrLWzakJSRPbd++nRO/kIFtLaHxx6pVq6wSkgaEf/31V4GwWJU3MEuDY7okEBYTs5JZG8I7d+7k0iRju0lrCGu21toDWSAsZi8GZmlwTJcEwiZ2Qw0I19Xgee3KFVE10vWrV+kGujdZcH3SmhBGOBpZ1yjzQVKWtZScnMzf3xrrwtYIR2N9GdcR19P0GovsV7jeGLcxfleGgVkaHNOlag9hXLS/EXpTg8EfasD8ddcuOrZlCx1av54Orl0rqgY6tG4dHd28mX7JyKA/DhygCydP0uULF8r9QFtzTRgCGJFAZU1Zo2WlUZZKzMLg+9e5c3T+xAk6vW8fnUhPpyObNvF1Nb3WIjuUus6HN2ygY1u30q+7d9PZI0fo4unTdOXSpXLfW3oNzNLgmC5VWwjj4vytBlo8tNsnTqQ5XbtSXIMG1Pepp6jP449TzKOPiqqR+jz2GPV98kmKrVOHpnXoQJtGjKDf1AP919mzZYbxtQrIjgYorZHFjOPCA0ZSliWPW1jw5LHmXNaBEvC9+PvvdHz7dlrbty8ltGpFg158kfo88QTFqOtpeo1Fdix1vTFu93v6aRrx9tu0wMWFMmfOpDPoq14BMAazNDimS9USwghf4OJsUQPN2MaNKfqRRyjsrrso6F//ogD1+aLqq8B//pNCa9SgXg89RCPVw7yuXz+eqF29fLnUoWqEWbEzkbXqhAFKbLCQnZ1t0XVbHBf7EGMXJmx1aK3saNQJl2UnJbz+ysWLdDIzk5YFBlJcvXoUdf/9FHLHHXz9TK+pqBpJcSfollso/O67GcoJX33FMEaUBJM2axmYpcExXapeEMbDq2ZFCD1O//57nkEF33YbXziziymq3sLDfOut1LtmTZrSpg3tX7kyL0RdCmDgtQi3WrNjFhpqIIsZOylZyuPGcdGTGsfFjkqWOm5hwbtGeVVpO2bhnF764w/apQZWTKAjFXxl8izSUqB6hjGhhnec7OrKoepr2DCkFM+wXgOzNDimS9UHwgg/q0ElZ/FifngxU8JFMr1wIlFh8YN855004q23KGvOHLp87pxuEON1yF4GbKwR0i3c4xlZxpaCPY6bkZHBGzhYs3f0kiVLOANbr+F8XlSTmi2jR9Pg2rUp5PbbZQItKlGIjiBSMqVtWzqcmpoX1bKwgVkaHNOlagPhq2qgyl21ikOMCFvJwysqjRAxGfrqq7R73jwOheo1QAZZxoCOKYjKK3is6PFs3EXJUrAHdA8cOMDbDForsQyhc2zxqHsXJQXgv86coTT1+wY+/zyHHE2vkUhUlDCZhuM1sUULTtxDNrUlDczS4JguVQsI44T/gn1RmzWj0P/7P7MLJBLpETyv0Y0a0dG0NLp+5YrpbaZpACRAaY11VYAdJUoXLlzgz0HzDnjDZQUx3gcvGP2iESbGMbdu3WqV726sc9a7nzAm0YhiDalXTwAsKpsUkyLuvZdmdurEVRBlTbjUMjBLg2O6ZPcQRgjrwi+/0AJnZ4r8z3/EAxaVXZhNq4cYmfTnjx/XFZa+omC9Z88eq9QKQ/Ba9+3bxzDDGm66muWj3SRgDA+2pOxmYxY0joMtF9etW8e1u1fVxBXr2TiWNcqU8P2wjo0M8pIMgyWS4yZ+/jmF1Khhfl1EIp2CR4xE3LV9+tClM2dMb7UyG5ilwTFdsnsII/6/V3kL/Z95RjInReUWHuJ+Tz1FuxWc4J2VZMiQxroqejAXB8OyCoCcN28e79YEEMN7hWcMgCKpqrjsZmN2NULPWFM+e/Ysh4cxcUDWsiUzrgvL6MHD29YzkbmsXrcxLo6T5GQSLSqvEEkZ+tprXFdsqbA0mKXBMV2yOIS797AtCMMLntGxo4ShRRYT7qXp335L59W9pcewLrx69Wqr9F+GALW5c+dySRHWho19n/H/+LuivHAAFpD+/fff+fX4ngA44L1y5UoOGZu+xxLCpGDz5s08YSjJAOnfc3Np1AcfUPCtt5pdC5GoLEJUFOVtyLS3hIFZGhzTJYZwk3JCeMPGddQ7Oop8/WwLwpjlYP1uwHPPiRcssphwL+GeQqmbnpk0PMvMzMwiYWgJwSPG8eFxL1y4kJPBFi9ezCHmosLJ8MwRsi78esAcoWJrTRggHD9XgRUh75IM0Yas2bMpplYt8YJFFhO8YVQ8/I61YR3RmJIMzNLgmC4ZIezh6UbBIQrCI+wIwghjpQ4dSlHqR5peBJGoPELJw4bYWL7HSjJjSBqAKwqIlpJpK8uSQuCmr7f298NnLFu2THcoGu0Hk93dKfyee8yugUhUZik+ocvWPnUvcu1wOQ3M0uCYLpUZwtExkX/17deLNm1aT5vTNtCYsfEUGzuA32grEEY/6Jk//URhd95pfhFEonIITQCmdujAyx167NKlS1bLkq5KgreuNyvaGIqGxyIZ0SJLqzQT6ZIMzNLgmC4Bwq1bt6IBA/vS8BFxNCNpKh06tF9NiIdTdEwExcRE+Rm0bEHyrCvbt6fSnj07KDNzG23btpE2b15LK1Ysojp16tgEhM8dP07jmjbNK+o3mF8EkaisQkh6sJpsYsMPPaUOyAJGNnBSUlKJ3qm9Cl4wdmXSu30hkiqz1evR2U5C0SJLC+VKy4KCLLIuDGZpcEyXAGFXNyfm59atG5mn4OqOHWmUmorkyPhAg5ZVBQhjNw1kwUlbO5E1hGzd9IQEXc07uNuTet3GjRurrTcMLxglVHoSsmAYHJE8g8HS9NyLROVV2N1303xHR17yKK+BWRoc0yW7hvCZQ4e4NElm0SJrCJt+zO7alf5Unp0eM3rDs2fPtvraq60JXjASv3TvH6wmLdhkZUzjxnn93TXOv0hUHmGZMunHH3nZsrwGZmlwTJfsGsLYHxhbE5qefJHIEgr8179460PsQ6xnhxbefODSJdqyZYtVM6VtUWgGsmvXLl1rwbBrylvOWbKEd8KRSbTIGkKp4Yzvv6cLOifRxRmYpcExXRIIi0TlEDLvU+PidCd3wAvEmihKgqxZBmRLQvgdjT9Qt6wnIxoG7wR7wqLfr+k5F4ksIYFw8RIIi6qEkPSHnuRY+tALGHiDaKKBGl57T9JC2B17EyMMr6cuGIaowvFt2zjKgGiD6TkXiSyhKg9h8xKlkRQb29+mSpQEwiJrC20skb27c/p03qtajxmTtBCWtsYORbYiTDASExO5UQnaYeqdpPx19iytiY6myPvuMzvfIpGlZEsQzitR6kPDRwyhGUmJ+kqUbm7WsZZ6R0eSr58Xde/RRSAsqlbCwzztm2/o7NGjukGDsDTaRa5du9Zq7SErW1j3RntKtMTUe15Q7vXb7t0U/9570qZSZFXZEoSbNGlMHp6uFBwSoL9Zh0BYJMoTvOE+TzxBmUlJur1hGMKz2HgBWwfaW9nSxIkTeYKBiYaubOh8w842KX36UNSDD0pClsiqEggXL4GwqEoJHbQSWremM+qe0+v1wdBX+tChQ1y+Y40diypD8OyxYcUvv/yiex0Yhj7c2NlmaMOGFd4hC81XQu+8k7eqDP+3FaSOG3bPPXnlVtVkcoHJKc4r+jTYYu9+W4Hwg2rCaVEI93ToJhAWVTvx2nCtWrRl9GjdmdIwABuJWgfVvQoQV3WPGB4wdmA6fvw4TzB0mzoPyIhe4utLEf/+t9n5tbbQuGHy99/RXG8vmufna3n5+tBMZyeKffVV+657Vs9B8O23U6Ty7vo8/TQNePklGvjKK9TvhReo96OP8kTEVpLtbAnCTT9tUnYIr0lZSZs2bxAIl1PGWSP+a/pvoqohrGHGv/sunUhP17W7ktEKgxilS1VxjRhJWFgDXrNmDYfYSwVgymtRuU/99kEvvljxHe7UM9f7scdo28JkysnYYTVlbdxAcxWMwythklERwvgV/p//UPwnn9CK2FjKWLWSdq1fT7s2rKfMtWspbfZsNRFxpr7PPmsTExFbgvCnhSA8Mn5YPoSDS4Cwp+ufeMHKVcsEwmVV/qwR6199/vtf6q9mi5g94s/2HLbCTBihv4j776NeDz9MvZUHCUXVrEkR6iEOqVFDM3zFIUP14ETcZ/K+h9X77lPv+z/t91WY1PXCPqWLPD15r+HShKWNIMZevgAZgFZVypdQhoRmHGjJiY5YpQlBw25cu0an9u6lhFatOKxvdl6tLXXdorGmvzaFDh3ItZr2Ze6kheFhDCqz71DFBecBz2Xizz9R+vJltD9rFx3M3X/T7z+wL4eyt26hNeqeGdygAQVVcuKdrUI4ftRwhnBIaEDxEPbwcDmHF6xYuVQgXAbhpkVoZuRHH9HqEcNp5+pVata4jv+7etgwGvbeexR611125RkDkGH33E39lbcz+bvvaGm/vrQpaQbtWLaMti9eRBsTE2lhRDiNa9WSYp58Ig/GiBDgXKlz0feZZ2hyh/a0NCaaNs2YTulLl9D2JYspddpUWtwriia0bcOTGAC+ss4bfmM/NaHaMWUK/X3hguktWaIBYKdOneKsYpT3oN2jKfRsSWg4gj2Mt2/fzs040JqzNIbJB8LQK0JDqZcajCrlugmEyy0AbXzrr9j7Pahga/rbC6TAnLMzg1YPH6ae8ScrddJsaxD29MqD8KjRI26CcGCgv4dBy0whHK0g7Of/Pwj/S3k7Bo0P1Cm7hrBx1jixbVvatmgh7d+dxTen8SbFLHLL3Dk0pnlzTuiolIHJwkKiTfTjj9G0bl0pbc4c2rMljX/ngZy9PGM+uH8fHdibzQPV7tSNtH7iBBqvPCN4x1hLmvLDDwq8M2hP2mbavysz733qPQXvU3+3e/MmBvmkDh2ol3pfZa09IYqBEpujmzbRtVKGZWHIJkZZD9o8Lly4kMPTtuYVw/uFt469gfft28ftOEvj+RvtivqdWbNn04Dnn6+066UJYXVPwnPL3bNbU7j/8Brcu7nZe8z+naX+vrA3aAphXn4qJLPvVUWE797ByvBDAAA2O0lEQVTn6afUszeFn0Uz8JpKnRM8q4mdOrGjYXq8ipKtQPihhx4qgHBIaKB+CLvnQ3jZ8sWUtiW1AMKOTt0FwsUIN2zUQw9S4o8/UsbKFXkPs+lNqoSbGd7hhHZtGdhVGcQAcP+XXqJlyvPFw1fUby78kGIA25myhj3j5QMH8HqanvfhvCGisCAwMG+mXRkDu7pWaLeYpCYOp/fv17XVoakBaNhtCOFphHmnTZtmE20uMRlA8tisWbO42QjCz1j/LQuAsZn6ETVRGfPRR7wsY3YeK0oaEMa9Bq9unTrna0aOvElrx4zhZxP3KNZ616tJkulrEHLdOCUhb4Kdf8zCEEYoFktQSFjqpyYgfdX/IzmsKj7nITXuoLFffkG7N6X+z5koQTh36yeM56Uk0+NVlGwFwjWVw/BZs08LIDx6zEiGcHCIf/EQdnVz/g0vWLJ0IW3ZuomiY6IYwk7OPQTCRQgA7vXII5Tk5MiJCsWGbQ7kDwQrV/KMMUrNlqribBkQRIh4Zexg2pu+3WydqDjBy8XApbW+VJzwPnjMyQhxqvNdGecNg2kvdc2WBQTQ+ePHywRiGMK76K6Vk5NDq1at4rXXyoAx4IsSKkwG1q1bx0lk8H5LUwNc2NCa8tesLEps146XGio1/0EDwrjvFqkJIJZAIh988CbFqDFlposLZW/bSulLFtPAOnXMXoMIztC331aTx403HdMI4d7qvtw8M4knjNC25AU0tsXnvARj9v1sXGH33ktzvDx5QmL6LBYp9TzvXLOaJyCV8XxCtgThZoUgPHbcKIZwQKAPQ9g3wNvRoGUuro5H8YKFi+bRtu1pBRB2dunJEL5FeT8GjQ/UKbuDMGAUox70eX5+/GACFGY3poYA6sx1azmrEElIlXXDlkkIu99/P2eEIiGjNCAtr/BZOM9Tf/6ZPQyz71YBwrXqq675xrg4+vPUqTJ5izC8D2vF58+fp+zsbIYx1ovhkVp7S0SsSSMcnpSUxPDdrzx7hMrxfcr8exS48WzOc3Dg1pSV7v1pQBhAmefvp5nJjEnD1M6daY+6p5GXgLIjZFcXVvQTj9PwDz+grNTUgmMWhnD044/f9HkAeoICAvIZTD/P1oVkSkSs8PtMn8PihOgWJ2hVcE24UbYC4Ycffpg+b9GsAMLjJ4xRED5Gvn6eDGEvX4+uBi1zcumZixfMXzCH0ndsK4Cwq5sj1a5dm2699VazDyuF7ArCuMn6PvsMLY6KYg9NL4CNwuuzUjfS/AB/DrFWeAlHGYW10aHvvkM7Vq4o9W+2hBBJwPrzADUprJSwtBKu1cAXXqBtCpjYpL6s4ILhvQj9AoIHDhygTZs20YIFC7j/NIAMYJZ37Rjvx3FwPHjdixYt4rDzkSNH2CMvD3xhAPBZdazlwcHUWw0+NjGpLCOEs7dvo1wsf3AJToqJ1vIzi3Vl4zFLhHDHjlUSwshbmefrW2pPODNlDSdpVtY9YCsQfuSRR6hFi+YFEJ44aRx7wt4+7oDwDU9Plx8NWubo3CMDEJ47bybtyNiOJtMMYTd3J4bwbWoANmh8oE7ZDYQBIhSsrxg0kPaqh7as3iCHWLekcRZwv2efrbTZY2mEAWyBGmz37cww+z0VJQxu07t1qzRvGMK1GqyeCWRMlxfEMKNnjE0R0BYSoWoAecmSJRwuRsIUvFeEjxG6BlThMQOwEP4fwt/j3wFcvB4wx85OSLYCeHNzc+ns2bO8Nl3arGctA4DPHD5My4OCeNOLyhp8zVQOCCMHYbc691kbNtws5eXxhLsaQDhEwWxiu7b8e02fv6KE87ZxaiIvF5ker6JkKxCuVasWffllC4ZwaFigeg4n0PETR/nPgLCzm0Nrg5b1cOiWAgjPmj2DdmbuoJg+vQo84VdeeYVuv/12sw8rhao+hNWDHXLHHTT41Qa0Jn4kP9RlBbBReD9AviJ2MA2o/bJNFLwXJ4TP0+bMvskbqGghSzVlVHxeL2KN71hRQiOPWPVcbJ84kS6ePl3mNWJTw5osgAxQwkM+efIkh4wzMjIoNTWV20cCzvCY58yZQ7Nnz6a5c+dScnIyNwZBTTLKobDTEaCLRCt4vDheeb3ewoZa4D8OHaKlfn7cWcxmAAyVEcIIRyO5Mr7JJxxWLSyEqMe1bEm7C4HJXiGMa4m1XTTjKDF5ElLjGH4vcmMqc3JsCxBGKe+jakLaqtUXBRCekjiJIQyHFhB2dOzexKBlPXp2nQEIT58+hXbvzqQ+fXsrCHszhOvVr0d3KAAZND5Up6o2hAHgGjVo2Dtv0/rJk7h8Rm/WYEkCiDFApCiPhlvgVWZWaTHCOh+yPxFyMv0NFSmcrx3Ll3GZk+l3rGjBI0ZHqM0jRuQ187AQiAubEcpo/AGQInkKUAWgoQsXLvB/8Xf4N3jTeB3C3HhfWROtijOUaaEZx0IPD4qupES5YqUBYURvFoaFcRIWqhMKK/qxxxRAnPQlZqVqJ2bZE4QhwDSx04+cZFbs0pOa6CFjfP2kiXlJWZW0TATZCoQfU/fTV61b5kM4iKYpph4/cYSTnAHhbt26vWLQMgeHbhGAcMKUibQ3Zzf1VRD2D/Bmer+qvL//Uz/QoPGhOlWlIcxroeoB3DR9+s01wJaSOh7AjhvZFjrPaAkDLTqA4aE0+/4VLAx2SIqr1AzcfGGNuB+yxcPD+f4sTXvLqma8hq1gfywtjaZ/9x1HI2wOwJAGhBEu3YZoQd++tCgy8iYtjYmhzUlJ/GwDniihM30N8j9WDY3Lm4DnH9OeIcyll2rigSxpJJJyvbDJuGd0IFKnTqXh77/PkULT41SkbAXCT6h7r23br8jL243CwoNp5qzpdOzYYU7KcnDsdr1du3a3GbTM3d05BC+aOHEs7c/Nob79ojmlGhBu2LAh3aluJoPGh+pUlYUwbkZ4gOvGj7upRtDiAojVQ40HPRrrazYAmMJiCCuvz1YgjEHWFiAM4dwgKWlO1650YscO3v7QUmFfWzF4+Rd//532LFhAYz7+mOumbe0eLZAGhAEMPF/wZJF4VVjG9V6U3GFduLjXVIc1YaMYxA89RJM6tOfGHTgH+F04T8hnQeh+UWQEDa5fP68Uq5LvB1uB8FOKUV9/3bYAwnPnzqJDh3IZws4uPa8bijJfX0+G8Nix8XTw4H7q1z+GAgN9FYSd6Y033qC71UNn0PhQnaqyEEYHmKk//8Q3nelM0OLKzSvDGf9VK5urL8SAiwYEhQeayhCHo1cst4lwdGFx17R776VxTZvS7rlz80qYrBAKrnBTkwk04cCzt2HwYF4HD8GSSSUPuMVKA8JoJoGWqiivm+XqWnq5udLCiIibMobtHcIQ7mvADb8PLXnR6W569240oU1rGqTuhcj777eZpFJbgfB/1TjZ4ZuvFYTdKSIihBYkz6X9+/cyhN09nIuGcHCwP0N4ZPxQOnL0IPUf0IcCg3zxJnrnnbfpXjXAGDQ+VKeqLIQRckMiEBKCTIFgDSHchdAXavVMv0tlCx761gXzS2xKYk1hMF2Hzjxqhm76/Spd6gEEoAa98AKtiozkddOq7BVjEoHs79zVq2n6t9/y+q+tDLjFSgPCDMwimnXoUXVbEzYKEEaeChLaMPHF+ev33LO8to5nEL/PVu4JW4Hws88+S993/IZLkiIiQ2nxkmTak72LIezp5Vo0hMPDg4LxoiFDBnJN04CBfSko2I8h/P4H79F9991n9oGlUJWFMDKCsalAsckJFhS3f5s4wSYhg4kBwk+lLeK3pBAKQ6MTbJZh+v1sRVgnxuYFE5o3p10zZ9L5EyfYm4RXWRUMk4a///yTTuXk0Lr+/WlIvXoUVombaJRaGhBGl7Y1I0fQuK9aUXzTJqXWqE8/pcSfOnGTGuMx7RnCuNYoVULS2qimTXlfZmxMg37v6AyG/JVlffuyZzyobl1OcKtsGNsKhJ9//nn6sdP35OPjQZFRYbR8xVLK2LmdIazAXCyEA/EiZEWju0dc3CBS3jF5eLrQxx83ogceeMDsA0uhqgthdRNWZEYwSgI2q4EbW/uZfpfKFmbE8Z805h7Q5S3PKovggaPHb2V25dErHsTuuIOTttBJ6mBKCu8udB0bQNgojDnxSnnueM62jhvHoXW06qwqzWQKpAFhY8tUeLJZWOMtrarRmjCuNzz/8W1ac9QJvx1h+P35G11AaGqyf9cuNSnZSjuWLaX5gQEMY4CwsiZrtgLhF198kTp36UQ+vh4U1SucUtau4k2R8iF81VCUBYUEeONF4REhDGHsgYhtmADhJk0/4Z0hDBofqlNVG8IVuA7KXaFmz6rUovcipW4whOcx8MAjtfoaeSEB+hgEZ7m4aNZ62qqQ3IIkJpQyLfT0pMMbNtCFkyd503tbCVOj5vfy+fN05tAh2jltGk1u2ZKia9Wy/bXfoqQFYQVPbEiwZe5c2jxrZhk0i3dIQ6TKeEx7hHBeN8BnaWFoKCdh8u8t4TnHBCdnRzpnmI/5/PNK2ynOFiD8T/W8o7lV9x5duE1lr94RlLppPa1JWWkMR18yFGXevh49UcOEBh0IR48bP5pCQwO51ql588+4FZdB40N1qvpAWN2wWD/mDEJkXKIVnvqzXs/RpiFsyHtI0Vhk7ZjRFq2XLlb5pRAoHansPUvLKnxnJG6h5eXc7t0pOzmZ2z1ePneuUsqauEvXX39xo5GTyqPZOGQITWjWjDtfwYOvjEHUYtKAMIC5OCqSa1l7PfJwqYVlKewJbs9rwlxu99xztGJILGeJ6x2zjEIZU7ryirFTHC8XVfA9ZAsQxh4LgLCjUw9udtU7OpK2btvM68KAsJu706+GoszJqWcrQBhrwOjugS4fKDQGhL9s+QV3AYGrbdD4YB2qFhA27vaTogCFDMKxX7SgqZ1/ppTRozi7Ws+6sq1DGELd9JDXXqP1kybxWptVQQwA78zgLmUD1M1t62HokgQYo0NTHwWJicprwJrr0bQ03pnpr7Nnrbp2jEQr1PkCvH/k5tKe+fO54UZcgwa8hg3Pt0rD1yiBcKnFu4Q9/DAtiogoE4CNwvi1bWEyjfy44reztAUIo7NknTp1uMkVml2h/XPGznSaM3cmQ9jRqfsOQ1Hm6Oh4PwqJlejY8cM0a9YMrnHy9HKjNm2/oieVByIQLlq4abG3bpKjI3trYXffxR4FBlz8eZarC/97STd3VYAwhAdsyBuvcxKZ1UCcD+DVI0fQwFdesckmJmUVrxmrc4gSjwHPPksJX31Fa6Kjaf+KFfTHgQMcskZmMhKk0KGqtKFrbC2IkDfCzIDuuWPH2OPdkZhI852caPibb7LXG648liq35luSNCAs4ejiBYBN/Lod10SXNEaVJET+1o4dww11KjJqZQsQRlOrBg3qc38N/wAfzrHK3rubEqdOYgj3cOgaZyjO1Buv4YWoaUpeOI9rnFBwjJon1D4JhIsWQLR80ED1MD5mduPhz3hIlw8YkAcsjfcbVVUgHPCPfBA3bMggtnhomkPQGZyRiTaC9gRgU+H+wIQtUg3mMep+i6tfn/flXeLvT9smTKADa9ZwpjI2SwBM0SITSV6oRcZ/L6g/4++QhX326FGG+Int22nvkiUcZgZ0xzZpQgOee45616zJa9QcUbAHr1dLWhCWxKwihfsPjsKGhAROuDJ7Fksr9ezu2byZplTwVo4WhvBgDY6VKPTTeEM5J4Awml2h6dXBQ/t5T2FOzPJ2DzEUZ17e7gzhnZnptGLFUk6v9vbxoB9+/I6ef/658kA4rrQzeS2zZQijsfvoZs2KbN2G5hvjvvyyxJ1JqgyE88Ugfu01Wjd+vMVAbGyHt2rYsLwQtB0DWEvwTEPV/YI1ZGQnw2NFlnVs3bo06oMPKKFVK5rVuTOvLc/u0oWmtGlDk9XfTWrRgka8/TbDFuFu1PVGKU8bfYCxhGAXoWY90oCwlCgVLYxZWDrjULsFnl+IveHRoyq01NJSEAarFLOGaXCsRP1H3Qvvvfcuubs7U2CQHw0Y2If7Rg8dFssQDgkPCjYUZ94+7n/jhcjmWrd+DfXqFc5p1l27/UQvvfRSeSA81hKN5G0ZwsgkLG4vTXgesQ0a8Iza9L2FVdUgDAHE2Hxi3bhx5QZxAYCHDuV9g6sbgIsT7i3s3sTLHGpwx1IHhAke/g6yaw9XrzQgLM06iha+f3JoqEXr//EcZ6xeRf2U81bUmGhpWQrCYBWYpcGxEoVS3saNP+L+GkHB/gxfVBv16duLIYxSYENx5ubufAovRCbX1m1pnNmFNGtHp+70shoQb1UDgEHjg3VoJnZ0Ka/ZMoR3qtfgQTR9v1HYXWSg8uqw5mL63sKqihCGAOLBCsRrx43Ne5jLAOL/ATiOBqhJnwBYVCZpQNiabSvRxEYbwhUbji2r4K1iSanwerclBIdjyOuvV1gypaUgDFaBWRocK1GoImrW/FMu7Q0JCeAqI0AYoWmw1dfX29lQnPV06JaMF85ImsrbGebtKZy/nWG9elRDzbgNGh+sQyuxFVt5zaYhnLKGX2v6fqMAYYRWd623TwhDCHkOblA/r3yplCAGgPfuSKdVcUMEwKLySQPCXDqoIAOI4j4ri/bt3HlThQOiPkt69+ZuUWjpuGPlioKkJoStsfEBwGD2/WxMyPxG0pme6o3SCIlwIxp9WGH7pFsKwmAVmKXBsWKFSPHjajL2VesvC21jmMjVRs4uPXkHJQeHru8YijMvLzduXQl6GzdxCMjfxOHNN9+ge+65x+yDdSoTe52W1wTCti8Gcf16XJalF8RGAK+IHcwhfQGwqLxCu0Vs9FHeTN/ixH3Mx43lZzXygQdoxeBBXAGBxhVodTvsvXcrDEDlEU8grHCucC7iGzeusFIlS0EYrFLM2qXBsWIFCD/zzDP0zbftefMGNL6av2AOHTiwj71gF1eHa4aSDP2jUaIUi/7Rit6DBvUv6B/dqNEHdP/995t9sE6dPX/+vOlvLbVVGwjPss22lXqFgWdQvXq88UXOzuJBzABOT+cBTAAsspQiH3yAVg8fZtXtR3HvYmwY8VEjXptHDXJip040y82NRjdvXikNK8oihKORWGnRcHT+uUEZY9CtVSscfeHCBWaWBseKlbFl5U8//8AJzRGRYbRy1TLKyMjrG+3l7VYyhIOD/b3w4tCwQI5jjx4zsqB1ZbNmn5ara9ahQ4dMf2uprVIgjFni8mUlzhItBuG92bQhYTIngpgeoyqJQVy3LjfZQK2vFojzALydlg8cSP1feKHC1o5E9i94XwiFbpk7h0PQeK4QbsU9Z0kh6zpl9GhOTEQ7VWSiA75VqesYNmrA1oQISe/ZsoXXs8srrAevjBuSF9GroPNgKQiDVab80iNjtyw4sj6+aFkZTpvTNjKIwVUPT9cLhpLM0dXxA/Xi68pt5rTq6TMSKQxdszxdqU2bVvTEE0+UOUN64cKFpr+11FYZEEaYCYlCJc2oLQVhACs5NITC/1N1+iMXpSAFYjTZQLMNUxBjAGMAD+jPHoQAWGRR/SNvH1wkBi0IDqaNCQmUvnQJT6gtrS3z59HSvn1oVNMmNrcPuB5hsoDJQ2zD17hhR+KPP7JHX1ZN+aEjjW72GSerVWQjGEtBeNGiRWb80iM06qhfv35+tywvzqnK2p1JSTOnMYR7OnZfbdBj6gBcK7xvXzYtWpxM4RGhHN/u2PFb3iexrBCOjo42/a2ltsqAMGa0qP9NVw8bQsWm0CyA8JrVCsJFbzSPNH2U3KCUyfS9RqFQHi3f0B6vKqwl6RHCy2i2gYQrlHfAK8GaGc7D0j4x3KtWACyyitRYhfsPHioiS0hAQmTL4lLH5b1177qrwspxLC6cK/UcAmTI6MZvKbPU+zkSUMHnwlIQBqtM+aVH/1b32Tvvvp3fqMOXc6oOHzlAY8aOZAj7+HgUXyNsNAXcK3jDpk0baP2GFHapUSuMXSFQpvQvNbMxaHyBktS+fXu6du2a6e8tlVUGhDFLxEM86ZtvKG3ObO6eg6y/3Zs2FQhw2Zg4pdh1XBynz9NPcws80/fjzyhd2jRjOo1r1ZJnpRUVwqkI4eHGrBhbo83x8qTZHu7cHKB3rUcqdKYsEonsV5aAMBjVoUMHM37pEXYaxI6DxhrhYcOG0C+/HKO+fXvrqxE2mrOLwx68Yc7cJMrclaFc6ih2rRGihqsNl9ug8QVKErLGLl68aPqbS2WVAWEIAMXsLkZ9NsJbIz76iEY2blygEY0aUf+XXuJGCqbvLSysUyE8e/P7P6YRH35Isa+9xqDC+kxVWUsqjbg1Y40avM0Zr5nVqDprZiKRyPZlCQiDUYj4mvKrJCFCjOXa1q1bcg4V8qoSEydxeRL+rJh6w8vL/VuDHvPycgsDhOFCHz5ysFCZkhO9//573JbLoPElShK+ZE5OjulvLpVVFoSNAjTg1SFUDKAWCC0B9Xh0xbxfOh2JRCJR2WUJCO/bt69MS654D1o7o8Uzlm+x78KixQto3/7sgvKk0NBGtxj0WEh4kD/ehM2IkSE9Mn4YZ0jDxf7882ZUq1Ytsy+gV0OHDjX9zaWyyoawSCQSiWxTloDwsGHDzLilR+gmmbePcHfuMgl+pqau5yXdvPIk978Nes3Z3flDdPZAh4+jxw7TrNkzKDwimHdTQhFyeXZTatWqFV25csX0d+s2gbBIJBKJtFReCKNdJRhlyi09QiMrNLRydcvbwrBv32jau3c3TZ8xJX8f4R6rDaUxTy/Xq3hj+o6tlJKyiqJ65SVn9ejZtVzJWfiip06dMv3tuk0gLBKJRCItlRfCp0+fpnvvvdeMW3pUs2ZN+vSzJgVJWdzw6pej6r8DGMLBwf5BhtKYq5vjEbxx3vzZtGtXBm9M7B+Q10MaeyViz0SDxhfRo0mTJpn+dt0mEBaJRCKRlsoL4cmTJ5vxSo8QGX766aepffu25OnlRmHhQTR1WgInZSGCjKQsbz/PLobSmLevezggPGx4LB07foRiYwcw3UH5zz5rytQ3aHwZPfryyy/LHJIWCItEIpFIS+WBMJjUsmVLM17pESLDtWu/zJFitKuMisprV7krK4O9YPTeaNeu3W2G0pi/v1d3TqlWFD+uIDxt2hRF92DeGeLbcq4L33777XTgwAHTc6DLBMIikUgk0lJ5IHxQseWOO+4w45UeYZn1rbff4kgxIsaIHAPA2LwBEHZzdz5hKK0hldrd3ZnXhXdmptOalJXUq1d4wd7Cr7zyCt12221mX0avQkJC6MaNG6bnoUQTCItEIpFIS2WFMFgUHBxsxim9QsVQixbNuR4YlURxcYO47XPc0EH5ewh7hhvKYq6uDtk4APYWztm3h/r1iy6oFy7njkr8pf/44w/Tc1GiCYRFIpFIpKWyQvjMmTP06KOPmnFKjxARfuGFF6jTTx0Lti+cPSeJjh47xKxERNnHz/M7Q1ksMNg/ALtBRMdE5u+oFM9dQED7r79uQ08pGJY1JA2VpWb4jIJw///+1+zki0Qikah6CxBO+uEH+rOUEAaLTPmkV3fddRc1bPgaubjmbdoQHRNFmzZvpI2p64w7J10xlNXc3BxfdXTqfg3hZ2zmsGz54oJSJcC5bt3yhaTRxvLs2bOm56NYO3vkCA2pX19fdyqRSCQSVRthT+d5PXvSxVKUwZ47d65MbSqNQlT38xbN8kuT/GjQ4P505OhBGjtuVF5SlqvDHEN5TFH8FA40d95Mys7Oon79oykwyJfc3Z2p8Scf04MPPmj2pUqj2NjYUq0Nnzt+nMY2bmw3OwyJRCKRyDKKuPdeWuLvT5d0LnWCPUOGDDHjkl4hK/qll16iLl1/KghFz5w1nY4dP1xQmhQY6ONiKI8FBPgEA8LYSQmFx+MnjOEsaS8vN/q+4zf03HPP0T//+U+zL6dXiMP/9ttvpuemSEOYYcZ333HYwfQCiEQikaj6KvK++2jdgAF0WXm3egzsKetaMIR9FN559x1y4y5Z3rx/8NZtm2n9hjXsBSvv+IruftFFmYuLSx1nl57XjFnS69avod69I8jXL29Xpddff53Tsw0aX1CvPD09dW9xiJO7rl8/PtmmF0AkEolE1VcxtWpRdnIyXb182RQdZgbmeHl5mfFIr5APhVLdr9u34TypkJBAGj4ijkt6hw6LzStN8nCeZrCEubo5b8UBJ0wcyxsUDy7UuOOr1i3LnaCF2qy0tDTTc6Rp165coYNr13KGtGyDJxKJRCII+5LHNWhAp3NydC1xbtmypcx1wdCdd95JDdTnOTn34DypyKhwWrpsEeXm7uW/w/4LPv6erQyWsIAgX2fEtkH7w4cP0ILkuRQRGUrePu6coFW/fr0y7zFs1FtvvaVvr2F1cs8dO0YJrVpRiDqBphdCJBKJRNVP4ffcQwtcXOji6dOm1DAzsAbMMeWQXhn3Dv7yy8+5DAl5UgMG9KXcAzmUNHNqfija5XeDpUx9538or/ciDowOIDk5e27aY7jFF835C5XHG4bCw8Pp+vXrpufLzK5cukQ7p02jPuozxRsWiUSi6i14wYNr1+Yo6bW//zZFxk0GxkRERJjxpzSC01mvXl3jFoWFaoMPc5lST4du5O/v62ewpPn6e0biA4ND/LmXdNLMafzB+AI9enahunXrUo0aNcy+bGmEdpYpKSmm58zMEGo4d/Qo14OF3X03BQiIRSKRqFoKjljUAw/QsoCAvNKkEkLRaxWowRpT/ugVnM3HH3+cmn/+GTuhcEb79oum3Xt2cTg6PyHrcseOHe80WNKcnH6upT7wb3zAipVLKWv3Tv5gozeMOilLeMOoHT527JjpeTMzzHYOrVtH8e++S8HqhJpeGJFIJBLZuRRvwu68kya3bEm/ZmXR9RISfI8fP86MMeVOaQQvuK7ygrFZA8qQwsJDaPqMRE7ICgsLyvOOvVyGG6xhHp5uo/EB4RHB3BcTH2z0hvH39erV4+4hBo0vXhp9+umndOnSJdPzd7Op2c7ff/5Ju2bPpiHKCw++9VbzCyQSiUQi+5QCcEiNGhT/3nt0MCWlxIxoMOWzzz4z401pBCfzySef5CXYwl5wVtZOWrV6uXHHpCtdnLo8bbCGOTg4PIsPMHrDe5T7jX7SgUF+/IVatvqiXLsrFZaTk1OJ2x0iLP3XmTOUPnkyDXv1VQpFopaEpkUikciuhRA0liLHfPQR7V28mP5GUm8xYWiwxNnZ2YwzpRXKcRu82oATko1rwUlJ0/K84PA8L9jD03W8wZrm6ek2Fh8UEhrAXUGwGB2ZnymNtOzXX2/IBcwGjR9QWkVHR5dYP8wgPnuWcpYsofHKg8baQNAtt5hdNJFIJBJVcSn4IuoZ/cgjNK1DBzqSmkpXSgAwGBITE2PGl9IKTanQ3rJt26/yM6L9qH//PpS9N4tbOhu9YDirBmua+oDHjWvDyQvn0f7cvTRwUD+uG/bwcKFvvm3PO0rcokBo0PghpRF+9LBhw0rOmFYX4Opff9HJXbtoZXg4xdWvz808Qm6/XbKnRSKRqIorULEAJam9HnyQ84A2xsbS77m5ujKhhw8fXq6ujkahRfM777xNzi498+uCw7hc98jRQ1yilLcW7DbSUBGmPmgAPtDbx4MOHsqlZcsWUy/uouXJXbQaffQhN7W2RFj6VjXrGTVqVMkgVoZF+Uu//07Htmyh1VFRNKFZM+r/zDMU8+ijPHPqXbOmSCQSiaqIMG7HPPYYDVSOXULr1rRh8GBOwELnxBslMAHMADvAEFOulFbIpq5d+2X6sVPH/O5YATQkbpDi336aNXtGnhfs7vhXly5dahoqwrp16/Z/yhs+hw+enDCejqqZwMj44RQaFkSeXm7UrXtnTtK6++67zX5MWQSvOi4ursTQtNGuX73KIWo09TiZmUkH1qzhVmaZSUm0c8YMkUgkEtm4MF5nL1rEtb+/7dlD50+coMvnz9MNHRwAK7A5EDZYMOVJaQVnEl0hmzX/FOFm7hHdOzqS1q1bQzn79nDnSMXCG97e7kGGijQfH6/OaMuFdeAdGdto27Y06tO3d0HJUtt2ren555+3SFgaQjghICCA/i4h/GBqmC2h1SUy59DkQyQSiURVQxi3MX6X5PUWNjAiMDDQIiFo6IEHHqA33nidsKUvkrFQkjRx4jiuEBo+Ykhej2h3xyPqo/9hqGjz9HLdiC+AWQEaeMyZM5Pj5D6+CEs70kcfNeKiZkuEpY369ttvef9HMTExMTGxwgY2fPfdd2bcKKtQE1ynTm3qlB+GRu7TgIF9ORkLmxkhS9rJqce1gADfzw2VYX5+nq8bS5bmzZ9Fhw7l8i4SCEvn76VIDRu+Rvfdd5/ZjyuPXn31VcrOzjY9/2JiYmJi1dTAhNdee82MF2UVorjIhkbpLaK7xjD0ylXLmHX4Mxjn4+Mxx1CZ5unp3B/xcMTKMzN3UHr6Vi5e5mxpNXP4sdP3PJMo7wYPprr//vspISFB9zqxmJiYmJj9GRgwZcoUZoIpJ8oqY2vKRo0+5GRjJB1j06KEhIlcEzx69Ij8kiSH8z///HMtQ2Wbu6dLBr5QZFQoHT12iBYvSeYZg3+AD88g2rRpxWVLt912m9mPLY9wojp27EgnT540vS5iYmJiYnZuGPt/+OEHiy554lg1a9bkdWBsxICoLqK7cUMHc0musTOWk3OPa35+3u0MtmDe3m6vGmuHJ00ex+vDCVMm8vqwr58XZ5R91qwpd9OyVKJWYT3yyCPsFV+9etX0GomJiYmJ2ZlhrIf3i7HflAflFZpN1a9fnzp36USeXq4UHBLAuwZu255Ge/Zk8t9hLdjb12OmwZbM3d3VydGp+3V8OcwUDhzYRyPjh3FbLyRqocAZrj36bloqa81UH3/8MaWlpena0FlMTExMrGoZxvYtW7ZQ48aNzcZ/SwhltXXq1KGOP3zLy6noihXTpxctX7GEm3JE9QozhqEPOjg43GWwNfP19ZgNCKNuakfGdm5qPTh2ALvyaGuJFO93332HHnvsMauBGJ72119/TZmZmQJjMTExMTswjOUY09u3b2+VaCp055130ssvv0TtO7TLT8Ty4SZUaMaBcqTRY/LWgRH1DQ72e91gi9auXbsaCsA78UUxg9ifm6NmLZuov3Ll0WEEbjy2f3r77bfo0UcftRqIIXRJaY0OKxs26Oq2JSYmJiZmW4axG2N4mzZtLNL5qigBwC+++CL3hcbyKZZRsZw6OWEC5znNnTeLAezo1OOah4dbJ4Mtm6en88surg7cTSs6JpKOHDlIKWtXcyOPvIxpV+reowu99dZbVvWIjcIi+5tvvknx8fF05swZ02ssJiYmJmZjdvbsWR6z33jjDYsmXWkJ2+8CwG3aGAGclwk9Zmw8lyKtXr2Co7ioAvLwdBlrqAoWFhb4jjFRK3bIAE7UWrFiKcfW4SEDxPCI33n3bV4jtkRrMT3CyW7bti1Nnz5dgCwmJiZmQ4YxGWMzxmhL7EuvR/feey+9/PLL1O7r1gxg5C8hjyk+fjhHcjdt3sAlSlhm9QvwSjZUJfPx92ylvjw38hgZP5Rj6kuXLmIQBwX7FWSYffjh+5w1bc1Qg5bQkPvDDz+kiIgINUFYQefPnze9J8TExMTErGQYc1euXMljMMZijMmm47S1BO8aTaReeeUV+ubbrws8YAB4xMihtG9/Nm3dtpmTs3jvYB/3Dc7OzW43VDVzdXV0cXbpeRUgHj1mJIN4ufKIEZoODvHnzR7Qe7pp00+4z7SlG3qURljsRy0zZmHoOzpmzBhavnw57dixg44ePcrt0C5fvizJXmJiYmLFGMZIjJUYMzF2YgzFWIoxFWMrxlhLbXdbFmEJFKVNr77agH748TtOwvLz9+IQdPyoEQrAe2l7+lZ2FDkRy8M508Gh08OGqmoubk7Bjk7dr+V5xMM4NL0mZRXXXYWEBvJ2iOgz3eqrLzksgBota68BiEQikaj6CRFXLIEiJ6lrt5/J3cOFAgJ8KCoqjMaNH025B/bRlq2bCgCsPORcR8fOTxqqurm4OISiuwh+VFzcIK632py2kQYO6kdh4cEcBkA4ALVZ6AuNzOmKWicWiUQikf0L68yIuDZp0pgTrZCbFBjkS717R9CUxMl0+MhB2rBhrXFrQtQCZzs4ODxrsBdzdXXwdHF14NB0TJ8obuaRuSuDhg+P4zCAn783ubk7817EWCd+7rnnOG3coHEyRSKRSCTSI4SfH374YapXry5vsYtEK7SiDA725xyl+QvmcIR2+fLF3FQKa8CKRRmd7cEDNjVvb492bu5OlwFirAln7trBGWgTJ42jXr3DeS9izE5wIr766kteNMfJE69YJBKJRKUVHDnshIQmUV26dlLerRNnQKOB1IABfShl7So6fuIoTZ+RyPCFfHw8VnXu3Pk+g71acHDwu65ujhcAYmSe4SQcO36YkpPnccIW1ol9fD34ZHXu8iO9//677BXfc889slYsEolEohKFpK9atWpR3bqvsEPn7NyTHTx0wYqMDOMMaERiUQc8JG4Qh58VgG/4BXjPbNeu3b8M9m5eXl51lEe81zjzSJw6iUGMBXHsVBERGcIny+gVt2vXmjPZsKBeo0YNsxMuEolEIhFCz9jS8MUXX6CPPmpEXbv9xA4dEoCxEUN0TBTNnDWdDh0+QOk7tnFEFgDGUqm7u3NfQ3Wybt263evr7z0Hsw9jd63dezLpwMF9HBrAycJJg1eMFHK85vPPP6NXXqnDiVsVWVMmEolEItsVoqT//ve/6bnnnuW2yN93/IbXfpHlDIcOeUfweDemrufwM9aB8e9cguTm9Ke/v3dzQ3U1dQIClbi7FrLSFi9eQCfUSUKnkqHDYrl/JzLYsJCODGrMbJo0/YRq167N4QaBsUgkElVPGeH7zDPP0OtvvE5ft29DTs49mSWougkNDeTkq6SZ05SDt5+ys7NowMC+xvAzeXi4bnH2dH7ZUN0tMDCwoZub4z6cFJyc/gNi2CtGynjywnlcU4xSJsxo0OADdcXY6xEwrlOnNvegRqMPWTMWiUQi+xeSdRF2RtLVGwq+aDuJxk+osEH0FGHmqF7hNGr0CG68Ae8XLDGWHyH8rAAcR0T/MIjlmbOz8+2enm7xxjImhAoQlkZNcfbeLJo6LYFLm5DV5u/vzevFeE237j9T8+afUf369eipp57iZh+STS0SiUT2J+QEodvVCy++QO+99y59883XBfDFui9aIiN6itBzSgqSfo/Qtu1pXH1j9H6Vw3cwONj/fYOYtqmT87a7u9Nuo1eMUPSKlUs5RJ2RsZ0mTR7P68UM4wBvjvkjTI3XowYMqegvvfQirxsjo9rauzSJRCKRyHrCkuODDz7IewzA2fr0s6b0088/kLOLA3u2heGL/euXLVvMUdS9OXsoftRw4w5I4MQVDy/X2NDQ0FsMYiWbt7ebj5ub00WcPAgzmQ0b19KJX45SevpW3ucRsX6EqQMCfcjb251nQy7qwiBU3eKLz+nNN99QQH6JHn/8cfaQcTElZC0SiUS2K0Qy0d2qZs2avNZbt25d+ujjRtShQzsGKpwuT09XXvNF8m5UVBjFxg6kpcsWcckRknunJE7k14EdeI+nl9tqrwCvugax0pmDg8PDnt5uY9XJ5BA11KdvL9qYuk7B+Bg3+8CCO9aMIyLDeB0AmzHDO0ZGNcqbAORWrb6gDz54j5t/oOYYa8hYT8A6soSuRSKRqHIEp+i2227jLQXRmAlLinCcGjZsSJ9+2oS++bY9OTh256XHPK/XnZ2usLBg6h0dyfW+q9esoCNHD3IXRixbGtd98zpfOR3y8fdpbRArn7n7utf28nFLUhfiemHPeNXq5Rzz35+7l2dBw4YP4QsD7xhhbHRGQSIXgGzcExL9qb/8sgV98OH7XHuMC47FfXjLmHnBY0aXFdwYEsoWiUSi8gvNM+644w5eInzggQe4suXpp5/m3ZTq1KlDb731Ju+m9/XXbahL15/YgYIn6+HhwuBFW2N4vQg59+0XTVOnJnBfCSRc7cnexV0XjaWs+W0nf/Px83QwiFnWvAO863t53QxjzIpQfA0QG0PVc+bM5LWBXr0jGMhBwf68VRVC1riouLhYT8CCPhK7vlWzrZbKW27StDGvKWMTCZRAAdBo+I2bBZBGQsBDDz3EXjTS4u+++24GNm4uQBs3GjxrCXmLRCJ7FBwTjHHYjQjLe4gmInQMuMKBAWDh0SInB82VEE5+8cUXeSxFWPmNN96gRh99SM0//4zatvuKOnX6nqGJsiI4SlhSRCQTGc5oY4wOiqjx7dOnN+9ytHr1Cso9kMNjPSKiSMDCOG6Er/KCf/P393IJDQ39p0HMeubp6fyyp6fLWDXzuWKEMS5E7JAB7B0jNIG9i9N3bOW0dCzOY/0YsyiEMQBlJHXhQuOCYzsro7eMGRiOhRAIeo2i6Bsdu1q2bEHNmn1KjT/5mD788AN65923uS6tgfKm69arWwBto3DjYZYHiCMEDm8biQUAOoSwi0gkEtmKjGMTxinAE2MWxi6MYUaQGoVtZ7G8V79+fXqt4Wv0pvJk33//Pe5SBY+2RYvm1Lp1S+rwTTvq9NP31KNHFx5XMb5inIUjBOCidXGep+vF0UtANzwiRDlQkbzLXuLUyZSydjU7Wb+cPEa7sjI45Aznyzj2Y81XHSvHz8+nhykrxKxsaLIdEODjqyB6wpgBBwGow4bH0rLli+ngwf3q4h3nxfrUTetp/vw5NHbcKOrXL4Y9ZcyywsKCeEcNzLwQ9vD19eQbozCgIdw4uIGMsDYKN5ejE8Ddjbr36MwNRX7u/CPP8rBpdEcF8u++78AeN5IL2ndoy2EXqF2+kO03YkQcjRs3Ml/x+RpJISEBBa8TiUQiS4vHo/ZteXxC2c9333VgBwTLdz+qMQzjE/JrEDns0TMPfBj3jGA1wpUB6+qYD1knXp8FaNFsCVnMyNlBv4fAIL884IaHsHOEihd4tQAsqmGQ7wNHCrk/29O38N+HRwTzGGsc513dnK65ezonefu5f2bKBrFKMAXOT5V3PFpd8L8KXyjcLFG9wihhygRavyGFs+cAZfSqzsrayftHwltOmDKRhisIYr0B68pR6sbAjAyAxs2CpC+kwQPUuIkwc/NTNxSADY8a0PbyVvJyY3hDqGXOkwuHwXFDagkzQnzG6jVLKTU1xUwTJ43h14hEIpElZToWGYXxisetgjEsb0yD8oDqzlDF2AewYjxEdBEeKgCLaCPWcEPDAnlJEM5Or17hDNtBg/uzI4RlRAB327Y0ys3NYU8XpajwdpMXzmVHCp9lHMshBfkbru5OWYGBvl52vdNRVTdfX69vFZCHqZvofGEP2bhuAJiOjB9Ks2bP4LKn/fuxnnyM4YzZ17592RzKxr/Bm543bzZNmzaFxk8YQyNHDuWbqE+fXnxDAdjwqNGdBTM6ZGnjhmOAh0PBeVIwh1DfDAG6hdVPwX/DhtW0detGM81ImmL2epFIJLKkjGMTZByvCsYvNZZhTMPYhnEOwpiHsQ9jYIwaC1Glgg14xowZSQkJExmyixYtoDVrVlLallR2eg4fPsCwxVh79Nhhyti5nZNqUXLar380GZOrCsvNzemGi5vj5qAgP38nJ6enTcd7MRs3Z2fnesHB/gHOrj3nqVnV38ZFfFPh4mP3JmRYo8YMDb7XrlvNNwlC2UgEwI1jFKB95MhBnsHt2bOLdu5M584suNmQMID3IokAMz0Ujy9ZupAWLV7AXveC5Lk0b/5shrtRCxfNp/T0zeo4W820bt1Kmj0nSSQSiSyiOXNn0tx5s24ag7BUhy1lMRYtXpLM49byFUto5cpltCZlJUcS0dN/69bNvAPRLgXVnJw9vOSHKhUjXPN0TEE2r9shxkQ4MzNnTWMPGG2J4TmbOkhGJ0l54jfUeHzUx8cjxsfHqzO6KZqO62JV2NRMqlZAgJ+7X4BXmJNTj42eXq5XjEXdxSmv4NtVzRgDqG+/3jzjGz1mBKfGY70CN3aygitgi+Qw3LCb01IZzAA51jjQD3tvThbl7NvDiQZGIdvvwAHAPEO9Bq+7WTk5u+jQ4VyRSCSymOBc5BYah/btz1bj024u+cnavZN2ZqZzRHDrts2cT4O93wFlOBNwIpKSpvIyHrKWUa+LCCE8ZAAWa8OmY6ip8sdUBVzn35xdHUaGhAQEu3u5f2E6ZotVA2vUqNEtzs4OTYNCAnyDQvxCnVx6DFYe8x4PT9dLynu+YWyLaXoTWVKBgT4cjt6+PdVMkxPGmb1eJBKJbFmIOqKzlRpDr7m6OZ12cOi2yMvHLSw8PCjYy9ej+08OPz1uOhaLiRVpPXr88KiLu+PX/v6+HiHqJlIKDQryC/PwcglzcOjar0fPrjOUVitYp6ubL8fFtecxBe9Tbu5OZ9w9nM8rXfTwdLmkwH4Z3ndhqZv0amh44LX5C2beWLJ0vplGjR523dvb/apIJBJZSl5KpmORp5fb355eLn+5e7hcdHd3vqC81HMKoL+7uDqedHbpeVB5r1kKsKk9Hbos7uHQdZRyWCL8/LzClBcbGo4xMSTA39PHvUcPpx7vtmvX7jbTcVTM3P4fvnR3apFFMCMAAAAASUVORK5CYII=;" vertex="1" parent="1">
          <mxGeometry x="280" y="120" width="220" height="444.58" as="geometry" />
        </mxCell>
      </root>
    </mxGraphModel>
  </diagram>
</mxfile>
